<?xml version="1.0" encoding="utf-8"?>
<!-- Generator: Adobe Illustrator 26.0.3, SVG Export Plug-In . SVG Version: 6.00 Build 0)  -->
<!DOCTYPE svg PUBLIC "-//W3C//DTD SVG 1.1//EN" "http://www.w3.org/Graphics/SVG/1.1/DTD/svg11.dtd" [
	<!ENTITY ns_extend "http://ns.adobe.com/Extensibility/1.0/">
	<!ENTITY ns_ai "http://ns.adobe.com/AdobeIllustrator/10.0/">
	<!ENTITY ns_graphs "http://ns.adobe.com/Graphs/1.0/">
	<!ENTITY ns_vars "http://ns.adobe.com/Variables/1.0/">
	<!ENTITY ns_imrep "http://ns.adobe.com/ImageReplacement/1.0/">
	<!ENTITY ns_sfw "http://ns.adobe.com/SaveForWeb/1.0/">
	<!ENTITY ns_custom "http://ns.adobe.com/GenericCustomNamespace/1.0/">
	<!ENTITY ns_adobe_xpath "http://ns.adobe.com/XPath/1.0/">
]>
<svg version="1.1" id="Слой_1" xmlns:x="&ns_extend;" xmlns:i="&ns_ai;" xmlns:graph="&ns_graphs;"
	 xmlns="http://www.w3.org/2000/svg" xmlns:xlink="http://www.w3.org/1999/xlink" x="0px" y="0px" viewBox="0 0 152.2 141.7"
	 style="enable-background:new 0 0 152.2 141.7;" xml:space="preserve">
<style type="text/css">
	.st0{fill:#FFFFFF;}
</style>
<metadata>
	<sfw  xmlns="&ns_sfw;">
		<slices></slices>
		<sliceSourceBounds  bottomLeftOrigin="true" height="245.8" width="436" x="-255.5" y="-56.3"></sliceSourceBounds>
	</sfw>
</metadata>
<g>
	<path class="st0" d="M-287.2-47.7c81.9,0,163.8,0,245.8,0c0,81.9,0,163.8,0,245.8c-81.9,0-163.8,0-245.8,0
		C-287.2,116.1-287.2,34.2-287.2-47.7z M-241.7,134.2c0.8,0.1,1.2,0.2,1.6,0.2c3.5-0.2,7.1-0.2,10.6-0.6c5.8-0.7,11.2-2.6,16.2-5.7
		c6.9-4.2,13.3-9.2,19.5-14.5c6.4-5.4,12.9-10.7,19-16.4c7.5-7.1,14.8-14.4,22-21.8c6.4-6.6,12.6-13.4,18.9-20.1
		c0.8-0.8,1.4-0.7,2,0.2c0.6,0.9,1.2,1.8,1.9,2.6c0.8,0.9,2.1,1.1,3.3,0.6c1.5-0.6,2.2-1.8,2.1-3.3c-0.1-2.2-0.6-4.4-1.7-6.4
		c-0.6-1-0.5-1.7,0.2-2.5c4.4-5.1,8.7-10.2,13-15.4c2.2-2.6,4.3-5.3,6.5-8c0.7-0.8,0.8-1.5,0.2-2.4c-2.1-3.1-4.9-5.3-8.3-6.8
		c-0.8-0.3-1.3-0.1-1.8,0.6c-2.8,3.6-5.5,7.2-8.4,10.8c-3.3,4.2-6.7,8.5-10,12.7c-0.6,0.7-1.2,0.8-2,0.5c-2.3-1-4.7-1.2-7.2-1.1
		c-1.9,0.1-2.9,1-3.3,3c-0.3,1.3,0.6,2.8,2.1,3.5c0.9,0.4,1.7,0.8,2.6,1.2c1,0.5,1.2,1.1,0.5,1.9c-1.7,2-3.2,4.1-5,6.1
		c-7.9,8.9-15.9,17.7-24.5,26c-10.6,10.2-21.7,19.7-33.2,28.7c-10.2,8-20.8,15.5-31.6,22.7C-238.1,131.6-239.7,132.8-241.7,134.2z
		 M-175.6,53.6c-0.6-0.4-1-0.5-1.3-0.8c-2.5-2.6-5-5.2-7.5-7.7c-0.7-0.7-1-1.4-1-2.3c0-3.4,0.1-6.9,0-10.3c0-2.3,0.1-4.4,1.1-6.5
		c0.6-1.3,1.3-2,2.7-2.5c3.1-0.9,5.1-3.1,5.8-6.3c0.7-3.3-1-6.9-3.9-8.7c-2.5-1.6-6.4-1.3-9,0.6c-4.2,3.1-4.2,9.5-0.6,12.3
		c0.8,0.6,0.8,1.2,0.4,2.1c-1,2.3-2.4,4.4-2,7.1c0.2,1.2,0.1,2.5,0.1,3.7c0,3.6,0,7.1,0,10.7c0,1.2,0.4,2.1,1.3,2.9
		c1,0.8,1.9,1.7,2.8,2.6c5.8,5.8,11.6,11.6,17.4,17.5c0.7,0.7,1.1,0.7,1.8,0c0.8-0.8,1.5-1.6,2.4-2.4c0.6-0.6,0.6-1,0-1.6
		c-1.3-1.2-2.5-2.5-3.8-3.6c-0.7-0.7-1-1.5-1-2.4c0-6.2,0-12.4,0-18.6c0-0.6-0.1-1.3-0.4-1.8c-0.7-0.9-0.9-1.7-0.8-2.9
		c0.2-2.1-1.6-4.3-3.5-4.6c-2-0.3-4.2,1-4.8,3c-0.6,2,0.5,4.3,2.5,5.1c1,0.4,1.3,1,1.3,2c0,3.2,0,6.5,0,9.7
		C-175.6,51.1-175.6,52.2-175.6,53.6z M-185.8,68c-0.1,0.1-0.1,0.3-0.2,0.4c-0.5,0.1-1,0.2-1.5,0.2c-3.8,0-7.7,0-11.5-0.1
		c-2,0-3.1-1-3.5-3c-0.3-1.8-2.2-3.5-4-3.5c-1.9,0-3.8,1.5-4.2,3.3c-0.4,2.2,0.7,4.3,2.7,4.8c1.6,0.4,2.8,1.2,3.7,2.5
		c0.7,1.1,1.7,1.4,3,1.4c8.6,0,17.2,0,25.8,0c0.7,0,1.4,0,2.1-0.1c0.7-0.1,0.9-0.6,0.4-1.2c-0.2-0.2-0.5-0.4-0.7-0.7
		c-7.2-7-14.4-14-21.7-21c-0.6-0.6-1.7-1-2.5-1c-3.8-0.1-7.7-0.2-11.5,0c-1.8,0.1-3.6,0.6-5.3,1.1c-1.1,0.3-1.6,0.3-2.4-0.6
		c-3.5-4.7-10.8-4.2-13.6,0.9c-2.3,4.1-0.5,9.7,3.8,11.5c3.9,1.7,9.4,0.5,11.1-4.7c0.2-0.5,0.5-1.2,0.9-1.3c2-0.6,4-1.3,6.1-1.5
		c2.7-0.3,5.3,0,8-0.1c1.3,0,2.2,0.4,3.1,1.3c2.8,2.8,5.7,5.5,8.5,8.2C-188.1,65.8-186.9,66.9-185.8,68z M-153.6,97.4
		c0.8,0.6,1.3,0.9,1.7,1.4c2.4,2.3,4.7,4.6,7.2,6.9c0.7,0.6,1,1.3,1,2.2c0,3.8-0.1,7.7,0,11.5c0,2.1-0.3,4-1.1,6c-0.4,1-1,1.4-2,1.6
		c-2.6,0.5-4.6,1.9-5.8,4.4c-1.4,3-0.9,6.6,1.4,9.1c2,2.3,5.7,3,8.7,2.1c5.2-1.6,7.2-8.8,3.4-13.1c-0.8-0.9-0.8-1.7-0.5-2.7
		c0.7-2,1.3-4.1,1.2-6.3c-0.1-3.8-0.2-7.6,0-11.4c0.2-3.3-0.4-6.1-3.4-8c-0.2-0.1-0.3-0.3-0.5-0.5c-4.6-4.5-9.2-9-13.8-13.4
		c-0.6-0.6-1-0.5-1.5,0.1c-0.7,0.9-1.5,1.7-2.1,2.6c-0.2,0.3-0.1,0.8-0.1,1.1c0.1,0.7,0.6,1.4,0.6,2.1c0,6.4,0,12.7,0,19.1
		c0,0.8,0.4,1.6,0.7,2.5c0.2,0.6,0.4,1.2,0.5,1.8c0.1,0.7,0,1.5,0.3,2.2c0.6,1.9,2.2,3,4.1,2.9c2-0.1,3.2-1,3.8-3
		c0.7-2.1-0.1-4.1-2.2-5c-1.3-0.6-1.9-1.4-1.9-3c0.1-3.9,0-7.7-0.1-11.6C-153.7,98.6-153.7,98.2-153.6,97.4z M-142.2,83.5
		c0.7-0.1,1.1-0.2,1.5-0.2c4,0,8.1-0.1,12.1-0.1c1.4,0,2.3,0.7,2.5,2.2c0.1,0.6,0.2,1.2,0.4,1.7c0.8,1.7,2.7,2.5,4.8,2
		c1.7-0.4,3.1-2,3.1-3.8c0.1-1.8-1.3-3.8-3.2-4.2c-1.2-0.3-1.9-0.8-2.6-1.7c-0.8-1-1.7-1.5-3.1-1.5c-5.8,0.1-11.5,0.2-17.3,0
		c-2.9-0.1-5.1,0.6-6.9,2.9c-0.7,0.9-0.7,1.3,0.1,2.1c5.7,5.6,11.4,11.2,17.1,16.8c1,1,2.2,1.5,3.7,1.5c3.1,0,6.2,0,9.2,0
		c2.4,0.1,4.8-0.2,7-1.3c0.6-0.3,1.4-0.5,1.9,0.3c1.8,2.5,4.2,3.5,7.2,3.5c4.8,0,8.9-4.9,7.4-10.4c-1-3.5-4.2-5.9-7.6-5.9
		c-3.6-0.1-6.7,2.2-8,5.9c-0.1,0.3-0.4,0.8-0.7,0.9c-2.1,0.6-4.1,1.3-6.2,1.5c-2.8,0.3-5.6,0.1-8.4,0.1c-1.1,0-1.9-0.3-2.7-1.1
		c-3.5-3.4-7.1-6.7-10.6-10.1C-141.7,84.4-141.8,84.1-142.2,83.5z M-162.9,63.3c1.1-1.2,2-2.3,3.1-3.4c0.7-0.7,0.9-1.4,0.7-2.3
		c-0.1-0.4-0.1-0.8-0.1-1.2c0-5.3,0.1-10.7,0-16c0-2.8,0.8-5.2,2.4-7.4c0.2-0.3,0.8-0.5,1.3-0.6c1.2-0.2,2.6-0.1,3.7-0.6
		c3.4-1.3,5-4.1,5.2-7.6c0.2-2.7-2.2-6.4-4.8-7.5c-2.5-1.1-6.5-1-8.9,1.4c-2.4,2.4-3.5,6.1-1.9,9c1.3,2.3,0.7,3.8-0.5,5.6
		c-0.2,0.4-0.4,0.8-0.7,1.1c-0.8,1.3-1.2,2.7-1.2,4.3c0.1,6.5,0.2,12.9,0.1,19.4C-164.5,59.6-163.9,61.4-162.9,63.3z M-179.8,80.1
		c-0.6,0-0.8-0.1-1-0.1c-8.8,0-17.6,0-26.4,0c-1,0-1.6-0.3-2.2-1.1c-1.5-2.2-3.7-3.7-6.4-3.5c-6.3,0.3-9.2,5.3-8,10.4
		c0.8,3.3,3.7,5.7,7.4,6.1c3.1,0.3,6.5-1.6,7.7-4.6c0.6-1.5,1.5-2,3-2c6.3,0.1,12.7,0.1,19,0c0.5,0,1.1,0,1.5-0.3
		C-183.4,83.5-181.7,81.9-179.8,80.1z M-164.5,94.9c-0.1,0-0.2-0.1-0.3-0.1c-1.4,1.5-2.9,2.9-4.3,4.4c-0.5,0.5-0.8,1.3-0.8,2
		c-0.1,3-0.1,5.9,0,8.9c0.1,2.5-0.3,4.7-1.7,6.8c-0.5,0.8-1,1.1-2,1.1c-3.9-0.1-7,2-8.1,5.7c-0.9,3.1-0.2,6.9,3.2,9.2
		c3,2.1,7,2,9.9-0.3c2.6-2.2,3.8-6.9,2.1-9.8c-1.1-1.8-0.9-3.1,0.2-4.6c0.3-0.4,0.5-0.9,0.8-1.3c0.8-1.1,1-2.4,1-3.7
		c0-5.6,0-11.2,0.1-16.8C-164.5,95.7-164.5,95.3-164.5,94.9z M-142,71.5c0.1,0.1,0.1,0.2,0.2,0.3c0.6,0,1.3-0.1,1.9-0.1
		c5.8,0,11.6,0,17.4-0.2c1.8-0.1,2.9,0.4,3.9,1.8c1.8,2.7,6,3.8,9,2.6c5.8-2.3,6.9-9.3,3.1-13.4c-4.1-4.4-11.4-2.8-13.4,2.5
		c-0.4,1.1-1,1.3-2,1.3c-4.8-0.1-9.5,0-14.3,0c-0.5,0-1.2,0.1-1.5,0.4C-139.2,68.3-140.6,69.9-142,71.5z M-221.2,25.5
		c0,5.1,5.1,9.1,10.1,7.8c0.9-0.2,1.5,0.1,2.1,0.7c2.2,2.4,4.4,4.7,6.6,7.1c1,1.1,2,2.3,3.1,3.3c1.2,1.2,3,1.1,4.1,0
		c1.1-1.1,1-2.7-0.2-3.9c-3.1-3.3-6.2-6.7-9.4-9.9c-0.8-0.8-0.9-1.5-0.6-2.4c0.6-1.7,0.6-3.3,0-5c-1.4-4.2-5-6.6-9.4-5.8
		C-218.4,18-221.1,21-221.2,25.5z M-115.2,133.3c5.9,0,9.6-5.9,7.4-11.4c-1.5-3.8-5.1-5.6-9.3-4.8c-1.1,0.2-1.7-0.1-2.4-0.8
		c-3.4-3.3-6.8-6.6-10.3-9.9c-1.3-1.2-2.9-1.2-3.9-0.1c-1.2,1.2-1.1,2.9,0.2,4.2c3.2,3.1,6.4,6.2,9.8,9.2c1,0.9,1,1.7,0.7,2.8
		C-124.9,127.7-120.9,133.3-115.2,133.3z"/>
	<path d="M8.1,128.4c2-1.4,3.6-2.6,5.4-3.7c10.8-7.2,21.4-14.7,31.6-22.7c11.6-9,22.7-18.5,33.2-28.7c8.6-8.3,16.6-17.1,24.5-26
		c1.7-2,3.3-4.1,5-6.1c0.7-0.9-2.2-2.7-3.1-3.1c-1.4-0.7-2.3-2.2-2.1-3.5c0.4-1.9,1.4-2.9,3.3-3c2.5-0.1,7.2,1.1,7.2,1.1
		s1.4,0.3,2-0.5c3.3-4.2,6.7-8.5,10-12.7c2.8-3.6,5.6-7.2,8.4-10.8c0.5-0.7,1.1-0.9,1.8-0.6c3.4,1.5,6.2,3.6,8.3,6.8
		c0.6,1,0.5,1.6-0.2,2.4c-2.2,2.6-4.3,5.3-6.5,8c-4.3,5.1-8.6,10.3-13,15.4c-0.7,0.9-0.4,1.6-0.2,2.5c0.1,0.9,1.6,4.2,1.7,6.4
		c0,1.5-0.6,2.7-2.1,3.3c-1.2,0.5-1.7,0.2-3.3-0.6s-3.2-3.6-3.9-2.8c-6.3,6.7-12.4,13.5-18.9,20.1C90,77,82.7,84.3,75.2,91.4
		c-6.1,5.7-12.6,11-19,16.4c-6.2,5.2-12.6,10.2-19.5,14.5c-5,3-10.4,5-16.2,5.7c-3.5,0.4-7.1,0.4-10.6,0.6
		C9.3,128.6,8.9,128.5,8.1,128.4z"/>
	<path d="M70.1,50.8c0-1.4,0-2.4,0-3.5c0-3.2,0-6.5,0-9.7c0-1-0.4-1.6-1.3-2c-2-0.8-3.1-3.2-2.5-5.1c0.6-2,2.8-3.3,4.8-3
		c1.9,0.3,3.7,2.5,3.5,4.6c-0.1,1.1,0.1,2,0.8,2.9c0.3,0.5,0.4,1.2,0.4,1.8c0,6.2,0,12.4,0,18.6c0,1,0.2,1.8,1,2.4
		c1.3,1.2,2.5,2.5,3.8,3.6c0.6,0.6,0.7,1,0,1.6c-0.8,0.7-1.6,1.5-2.4,2.4c-0.6,0.7-1.1,0.7-1.8,0C70.6,59.4,64.8,53.6,59,47.8
		c-0.9-0.9-1.8-1.8-2.8-2.6c-0.9-0.8-1.3-1.7-1.3-2.9c0-3.6,0-7.1,0-10.7c0-1.2,0-2.5-0.1-3.7c-0.4-2.7,1.1-4.9,2-7.1
		c0.4-0.9,0.4-1.5-0.4-2.1c-3.6-2.8-3.7-9.1,0.6-12.3c2.6-2,6.5-2.2,9-0.6c3,1.9,4.7,5.4,3.9,8.7c-0.7,3.1-2.7,5.4-5.8,6.3
		c-1.4,0.4-2.1,1.2-2.7,2.5c-1,2.1-1.1,4.3-1.1,6.5c0.1,3.4,0,6.9,0,10.3c0,1,0.3,1.6,1,2.3c2.5,2.5,5,5.1,7.5,7.7
		C69.1,50.3,69.5,50.4,70.1,50.8z M64.9,12.8c0-1.5-1.5-3-3-3c-1.4,0-2.8,1.4-2.8,3c0,1.8,1.4,3.2,3.2,3.1
		C63.7,15.8,64.9,14.5,64.9,12.8z"/>
	<path d="M59.9,65.2c-1.1-1.1-2.3-2.2-3.4-3.3c-2.8-2.7-5.7-5.5-8.5-8.2c-0.9-0.9-1.8-1.3-3.1-1.3c-2.7,0.1-5.4-0.2-8,0.1
		c-2.1,0.2-4.1,0.9-6.1,1.5c-0.4,0.1-0.8,0.8-0.9,1.3c-1.7,5.2-7.2,6.4-11.1,4.7c-4.2-1.8-6-7.4-3.8-11.5c2.8-5.1,10.2-5.6,13.6-0.9
		c0.7,1,1.3,1,2.4,0.6c1.7-0.6,3.5-1,5.3-1.1c3.8-0.2,7.7-0.1,11.5,0c0.9,0,1.9,0.4,2.5,1c7.3,6.9,14.5,14,21.7,21
		c0.2,0.2,0.5,0.4,0.7,0.7c0.5,0.6,0.3,1.1-0.4,1.2c-0.7,0.1-1.4,0.1-2.1,0.1c-8.6,0-17.2-0.1-25.8,0c-1.3,0-2.2-0.3-3-1.4
		c-0.9-1.3-2.1-2.1-3.7-2.5c-2-0.5-3.1-2.7-2.7-4.8c0.4-1.9,2.2-3.4,4.2-3.3c1.8,0,3.7,1.7,4,3.5c0.4,2,1.5,3,3.5,3
		c3.8,0,7.7,0.1,11.5,0.1c0.5,0,1-0.1,1.5-0.2C59.8,65.4,59.9,65.3,59.9,65.2z M25.1,52.6c0-1.8-1.2-3-2.9-3c-1.6,0-3,1.3-3,2.9
		c0,1.9,1.3,3.2,3.1,3.2C23.8,55.7,25.1,54.3,25.1,52.6z"/>
	<path d="M92.2,94.6c-0.1,0.8-0.1,1.2-0.1,1.6c0,3.9,0.1,7.7,0.1,11.6c0,1.5,0.6,2.4,1.9,3c2,0.9,2.8,2.8,2.2,5
		c-0.6,2-1.8,2.9-3.8,3c-1.8,0.1-3.5-1.1-4.1-2.9c-0.2-0.7-0.1-1.5-0.3-2.2c-0.1-0.6-0.3-1.2-0.5-1.8c-0.2-0.8-0.7-1.6-0.7-2.5
		c-0.1-6.4,0-12.7,0-19.1c0-0.7-0.4-1.4-0.6-2.1c-0.1-0.4-0.1-0.9,0.1-1.1c0.6-0.9,1.4-1.7,2.1-2.6c0.5-0.6,0.9-0.6,1.5-0.1
		c4.6,4.5,9.2,9,13.8,13.4c0.2,0.2,0.3,0.4,0.5,0.5c3,1.9,3.6,4.7,3.4,8c-0.2,3.8-0.1,7.6,0,11.4c0.1,2.2-0.6,4.3-1.2,6.3
		c-0.3,1-0.3,1.8,0.5,2.7c3.8,4.2,1.8,11.5-3.4,13.1c-3,0.9-6.7,0.1-8.7-2.1c-2.3-2.6-2.8-6.2-1.4-9.1c1.2-2.5,3.2-3.8,5.8-4.4
		c1-0.2,1.6-0.6,2-1.6c0.7-1.9,1.1-3.9,1.1-6c-0.1-3.8,0-7.7,0-11.5c0-0.9-0.3-1.6-1-2.2c-2.4-2.3-4.8-4.6-7.2-6.9
		C93.5,95.6,92.9,95.2,92.2,94.6z M103.6,132.2c0-1.6-1.4-3.1-2.9-3.1c-1.5,0-3.1,1.4-3.1,2.9c0,1.6,1.5,3.2,3,3.3
		C102,135.3,103.5,133.7,103.6,132.2z"/>
	<path d="M103.6,80.7c0.4,0.6,0.5,0.9,0.8,1.2c3.5,3.4,7.1,6.7,10.6,10.1c0.8,0.8,1.6,1.1,2.7,1.1c2.8-0.1,5.6,0.1,8.4-0.1
		c2.1-0.2,4.2-0.9,6.2-1.5c0.3-0.1,0.6-0.6,0.7-0.9c1.3-3.7,4.3-6,8-5.9c3.4,0.1,6.6,2.4,7.6,5.9c1.6,5.5-2.6,10.4-7.4,10.4
		c-3,0-5.4-1-7.2-3.5c-0.6-0.8-1.3-0.6-1.9-0.3c-2.2,1.1-4.5,1.4-7,1.3c-3.1-0.1-6.2-0.1-9.2,0c-1.4,0-2.6-0.5-3.7-1.5
		c-5.7-5.6-11.4-11.2-17.1-16.8c-0.8-0.8-0.7-1.2-0.1-2.1c1.8-2.3,4-3.1,6.9-2.9c5.7,0.2,11.5,0.1,17.3,0c1.4,0,2.3,0.4,3.1,1.5
		c0.6,0.9,1.4,1.5,2.6,1.7c1.9,0.4,3.3,2.4,3.2,4.2c-0.1,1.8-1.4,3.4-3.1,3.8c-2.1,0.4-4-0.3-4.8-2c-0.3-0.5-0.3-1.1-0.4-1.7
		c-0.3-1.5-1.1-2.2-2.5-2.2c-4,0-8.1,0.1-12.1,0.1C104.7,80.6,104.3,80.6,103.6,80.7z M137.7,92.8c0,1.7,1.2,3,2.8,3.1
		c1.5,0,3.1-1.5,3.2-3c0-1.5-1.5-3-3-3C139.2,89.8,137.7,91.2,137.7,92.8z"/>
	<path d="M82.9,60.5c-1-1.9-1.6-3.7-1.6-5.7c0-6.5,0-12.9-0.1-19.4c0-1.6,0.4-3,1.2-4.3c0.2-0.4,0.4-0.8,0.7-1.1
		c1.2-1.8,1.8-3.4,0.5-5.6c-1.6-2.9-0.5-6.6,1.9-9c2.5-2.4,6.4-2.5,8.9-1.4c2.6,1.1,5,4.8,4.8,7.5c-0.2,3.5-1.8,6.3-5.2,7.6
		c-1.1,0.4-2.5,0.4-3.7,0.6c-0.5,0.1-1,0.2-1.3,0.6c-1.5,2.2-2.4,4.6-2.4,7.4c0.1,5.3,0,10.7,0,16c0,0.4,0,0.8,0.1,1.2
		c0.2,0.9-0.1,1.6-0.7,2.3C84.9,58.2,84,59.3,82.9,60.5z M94,21.5c0-1.5-1.5-3-3.1-3c-1.5,0-2.9,1.5-2.9,2.9c0,1.7,1.3,3.1,3,3.1
		C92.5,24.5,93.9,23.2,94,21.5z"/>
	<path d="M66,77.3c-1.9,1.8-3.6,3.4-5.4,5c-0.3,0.3-1,0.3-1.5,0.3c-6.3,0-12.7,0-19,0c-1.6,0-2.4,0.4-3,2c-1.2,3-4.6,4.9-7.7,4.6
		c-3.7-0.4-6.7-2.8-7.4-6.1c-1.2-5.1,1.7-10.1,8-10.4c2.8-0.1,4.9,1.3,6.4,3.5c0.6,0.8,1.2,1.1,2.2,1.1c8.8,0,17.6,0,26.4,0
		C65.2,77.3,65.4,77.3,66,77.3z M32.7,80.9c0-1.8-1.2-3.1-2.9-3.1c-1.5,0-2.9,1.4-2.9,2.9c0,1.7,1.3,3.1,2.9,3.2
		C31.5,83.9,32.7,82.7,32.7,80.9z"/>
	<path d="M81.2,92.1c0,0.4,0,0.8,0,1.3c0,5.6-0.1,11.2-0.1,16.8c0,1.4-0.2,2.6-1,3.7c-0.3,0.4-0.5,0.9-0.8,1.3
		c-1.1,1.5-1.3,2.8-0.2,4.6c1.7,2.9,0.5,7.6-2.1,9.8c-2.8,2.4-6.9,2.4-9.9,0.3c-3.4-2.3-4.1-6.1-3.2-9.2c1.1-3.6,4.2-5.7,8.1-5.7
		c1,0,1.4-0.3,2-1.1c1.4-2.1,1.8-4.3,1.7-6.8c-0.1-3-0.1-5.9,0-8.9c0-0.7,0.3-1.5,0.8-2c1.4-1.5,2.9-2.9,4.3-4.4
		C81,92,81.1,92.1,81.2,92.1z M74.7,123.3c0-1.7-1.3-2.9-3.1-2.9c-1.6,0-2.9,1.3-2.9,2.9c0,1.7,1.4,3,3.3,3.1
		C73.6,126.3,74.7,125,74.7,123.3z"/>
	<path d="M103.8,68.7c1.4-1.6,2.8-3.2,4.3-4.8c0.3-0.3,1-0.4,1.5-0.4c4.8,0,9.5-0.1,14.3,0c1.1,0,1.6-0.2,2-1.3
		c2-5.3,9.3-6.9,13.4-2.5c3.8,4.1,2.7,11.1-3.1,13.4c-3,1.2-7.2,0-9-2.6c-1-1.5-2.1-1.9-3.9-1.8c-5.8,0.2-11.6,0.1-17.4,0.2
		c-0.6,0-1.3,0.1-1.9,0.1C103.9,68.9,103.8,68.8,103.8,68.7z M136.3,65.4c0-1.7-1.3-3-2.9-3c-1.5,0-2.9,1.3-2.9,2.7
		c0,1.7,1.4,3.4,2.9,3.4C134.9,68.5,136.3,67.1,136.3,65.4z"/>
	<path class="st0" d="M64.9,12.8c0,1.7-1.2,3.1-2.6,3.1c-1.8,0-3.2-1.4-3.2-3.1c0-1.5,1.4-3,2.8-3C63.4,9.8,64.9,11.2,64.9,12.8z"/>
	<path class="st0" d="M25.1,52.6c0,1.7-1.2,3.1-2.8,3.1c-1.8,0-3.1-1.3-3.1-3.2c0-1.6,1.4-2.9,3-2.9C23.9,49.6,25,50.8,25.1,52.6z"
		/>
	<path class="st0" d="M103.6,132.2c0,1.5-1.5,3.1-2.9,3c-1.6-0.1-3-1.7-3-3.3c0-1.4,1.6-2.9,3.1-2.9
		C102.2,129.1,103.6,130.6,103.6,132.2z"/>
	<path class="st0" d="M137.7,92.8c0-1.6,1.5-3,3-3c1.5,0,3,1.5,3,3c-0.1,1.5-1.6,3-3.2,3C138.9,95.8,137.7,94.5,137.7,92.8z"/>
	<path class="st0" d="M94,21.5c0,1.7-1.4,3-3.1,3c-1.6,0-3-1.5-3-3.1c0-1.4,1.5-2.9,2.9-2.9C92.5,18.4,94,20,94,21.5z"/>
	<path class="st0" d="M32.7,80.9c0,1.7-1.3,3-2.9,3c-1.6,0-3-1.4-2.9-3.2c0-1.5,1.4-2.9,2.9-2.9C31.5,77.9,32.7,79.2,32.7,80.9z"/>
	<path class="st0" d="M74.7,123.3c0,1.8-1.2,3.1-2.7,3c-1.9,0-3.3-1.4-3.3-3.1c0-1.5,1.4-2.9,2.9-2.9
		C73.5,120.4,74.7,121.6,74.7,123.3z"/>
	<path class="st0" d="M136.3,65.4c0,1.7-1.3,3.1-3,3.1c-1.5,0-2.9-1.6-2.9-3.4c0-1.4,1.4-2.7,2.9-2.7
		C135,62.4,136.3,63.7,136.3,65.4z"/>
	<path class="st0" d="M35.6,22.5c0,1.7-1.3,3.1-3,3.1c-1.7,0-2.9-1.3-2.9-3.3c0-1.4,1.3-2.8,2.7-2.8C34.2,19.5,35.6,20.8,35.6,22.5z
		"/>
	<path class="st0" d="M130.4,125.2c-1.8,0-3-1.3-3.1-3.2c0-1.3,1.5-2.8,2.8-2.8c1.7,0,3.3,1.4,3.3,3
		C133.4,124,132.2,125.2,130.4,125.2z"/>
</g>
</svg>
