<?xml version="1.0" encoding="utf-8"?>
<!-- Generator: Adobe Illustrator 26.0.3, SVG Export Plug-In . SVG Version: 6.00 Build 0)  -->
<!DOCTYPE svg PUBLIC "-//W3C//DTD SVG 1.1//EN" "http://www.w3.org/Graphics/SVG/1.1/DTD/svg11.dtd" [
	<!ENTITY ns_extend "http://ns.adobe.com/Extensibility/1.0/">
	<!ENTITY ns_ai "http://ns.adobe.com/AdobeIllustrator/10.0/">
	<!ENTITY ns_graphs "http://ns.adobe.com/Graphs/1.0/">
	<!ENTITY ns_vars "http://ns.adobe.com/Variables/1.0/">
	<!ENTITY ns_imrep "http://ns.adobe.com/ImageReplacement/1.0/">
	<!ENTITY ns_sfw "http://ns.adobe.com/SaveForWeb/1.0/">
	<!ENTITY ns_custom "http://ns.adobe.com/GenericCustomNamespace/1.0/">
	<!ENTITY ns_adobe_xpath "http://ns.adobe.com/XPath/1.0/">
]>
<svg version="1.1" id="Слой_1" xmlns:x="&ns_extend;" xmlns:i="&ns_ai;" xmlns:graph="&ns_graphs;"
	 xmlns="http://www.w3.org/2000/svg" xmlns:xlink="http://www.w3.org/1999/xlink" x="0px" y="0px" viewBox="0 0 152.2 141.7"
	 style="enable-background:new 0 0 152.2 141.7;" xml:space="preserve">
<style type="text/css">
	.st0{fill:#FFFFFF;}
</style>
<metadata>
	<sfw  xmlns="&ns_sfw;">
		<slices></slices>
		<sliceSourceBounds  bottomLeftOrigin="true" height="350.1" width="848.3" x="-702.7" y="-210.3"></sliceSourceBounds>
	</sfw>
</metadata>
<g>
	<path class="st0" d="M-702.7,217.6c0-37.2,0-74.4,0-111.6c82,0,164,0,246,0c0,82,0,164,0,246c-82,0-164,0-246,0
		c0-35.5,0-71,0-106.6c0.1,0.2,0.2,0.4,0.3,0.6c0.8,4.3,1.4,8.7,2.4,13c0.8,3.5,2,6.9,3.1,10.3c0.7,2.2,1.4,4.4,2.2,6.5
		c0.8,2.2,1.5,4.3,2.3,6.4c0.1,0,0.2-0.1,0.3-0.1c-0.3-0.8-0.6-1.6-0.9-2.4c-2.8-8.6-5.8-17.2-7.1-26.3c-0.5-3.5-1.2-6.9-1.6-10.4
		c-0.3-2.3-0.4-4.7-0.2-7.1c0.5-7.1,1-14.3,1.8-21.4c0.4-4,1.2-8.1,2.1-12c1.8-7.5,4.1-14.9,7.3-22c2.5-5.6,4.9-11.2,8.9-16
		c1.9-2.3,3.3-5.1,5.1-7.5c2-2.7,4-5.5,6.3-8c3.2-3.5,6.6-6.9,10.1-10.1c3.6-3.2,7.5-6.2,11.3-9.1c3-2.3,6.2-4.3,9.4-6.3
		c2.4-1.5,4.8-2.9,7.3-4.1c2.9-1.5,5.8-2.9,8.8-4.2c2.8-1.3,5.7-2.5,8.6-3.5c3.3-1.1,6.6-2,9.9-3.1c1-0.3,2-0.8,3-1.1
		c-0.5-0.1-1.1-0.2-1.5,0c-3.7,1-7.4,2.1-11,3.2c-8.1,2.5-15.7,5.9-23.1,10c-7.8,4.3-15,9.5-21.8,15.3c-7.4,6.3-13.9,13.4-19.6,21.3
		c-5.9,8.1-10.6,16.8-14.5,26.1c-3.7,9-6,18.4-7.9,27.9C-701.9,213.4-702.3,215.5-702.7,217.6z M-687.1,292.2
		c-0.8-1.7-1.7-3.4-2.5-5.1c-0.2,0.1-0.3,0.2-0.5,0.3C-689.1,289-688.1,290.6-687.1,292.2c0.1,0.3,0.2,0.8,0.3,1.1
		c1.1,1.9,2.2,3.8,3.3,5.7c0.6,1,1.2,2,1.8,3.1c0.1-0.1,0.2-0.1,0.3-0.2c-1.2-2.1-2.3-4.2-3.6-6.3
		C-685.6,294.5-686.4,293.4-687.1,292.2z M-481.2,303.9c0.3-0.2,0.7-0.3,0.9-0.5c4.9-6.2,8.9-12.9,12.1-20.1
		c1.4-3.1,2.5-6.3,3.7-9.6c0.4-1.2,0.5-2.5,0.8-3.9c-0.3,0.2-0.4,0.2-0.5,0.2c-0.1,0.2-0.2,0.4-0.2,0.6c-1,4.2-2.5,8.3-4.4,12.1
		C-472.5,290-476.4,297.2-481.2,303.9c-1.2,1.4-2.3,2.8-3.5,4.2c0.1,0.1,0.2,0.2,0.3,0.2c0.6-0.7,1.3-1.3,1.8-2.1
		C-482.2,305.5-481.7,304.7-481.2,303.9z M-622.7,132.6c0.3-0.1,0.7-0.3,1-0.4c1.6-0.6,3.1-1.1,4.7-1.7c3.8-1.4,7.6-3,11.4-4.3
		c3.1-1,6.2-1.7,9.4-2.4c2-0.5,4-1,6.1-1.4c2.6-0.5,5.3-0.6,7.9-1.2c3.4-0.8,6.7-0.8,10.1-0.8c5,0.1,10,0.4,14.9,0.9
		c3.3,0.3,6.6,0.8,9.9,1.4c2.3,0.4,4.5,1,6.8,1.4c0.6,0.1,1.3,0.1,1.9,0.2c0-0.1,0-0.2,0-0.3c-1.3-0.4-2.6-0.9-4-1.1
		c-5.7-1-11.4-1.9-17.1-2.9c-1-0.2-2-0.6-3-0.6c-2.7-0.2-5.4-0.2-8.1-0.3c-1.3,0-2.6,0.3-3.9,0.3c-1.3,0-2.7-0.3-4-0.4
		c-0.2,0-0.5-0.1-0.7-0.2c1.2-0.4,2.4-0.6,3.6-0.6c5.4,0,10.7-0.1,16,0.3c5.6,0.5,11.1,1.3,16.6,2.3c4.5,0.8,9,2.1,13.5,3.3
		c2,0.5,3.8,1.3,5.8,1.9c2,0.7,4.1,1.2,6.1,1.9c1.7,0.6,3,1.8,4.4,2.8c2.4,1.6,5.2,2.7,7.6,4.3c5.2,3.5,10.3,7.2,15.5,10.8
		c0.3,0.2,0.7,0.3,1.1,0.4c0.4,0.7,0.9,1.3,1.3,2c0.1-0.1,0.3-0.3,0.4-0.4c-0.6-0.5-1.2-1-1.8-1.5c-0.5-0.4-0.9-0.9-1.4-1.3
		c-6.5-6.1-13.7-11.4-21.5-15.8c-0.2-0.1-0.4-0.3-0.6-0.5c14.3,7.2,27.2,16.3,37.6,28.9c-0.2-0.8-0.3-1.4-0.6-2
		c-0.3-0.6-0.8-1.2-1.2-1.7c-5.6-7-12.2-13-19.5-18.2c-6.6-4.7-13.6-8.8-20.9-12.2c-5.7-2.6-11.5-4.9-17.5-6.7
		c-6.7-2.1-13.6-3.6-20.6-4.4c-6.7-0.7-13.4-1.2-20.2-0.9c-6.9,0.3-13.8,1-20.6,2.3c-12.8,2.5-25,6.7-36.4,12.9
		c-0.3,0.2-0.6,0.3-1,0.4c0-0.2-0.1-0.4-0.1-0.6c35.3-19.3,72-23.7,110.3-9.2c-2-1-3.9-1.9-6-2.5c-3.9-1.3-7.8-2.6-11.8-3.6
		c-4.1-1-8.3-1.8-12.4-2.4c-4.3-0.6-8.6-1.2-13-1.3c-4.8-0.2-9.7,0.1-14.5,0.2c-2.3,0.1-4.7,0.2-7,0.5c-2.8,0.4-5.7,0.9-8.5,1.6
		c-4.7,1.1-9.3,2.3-13.9,3.7c-8.8,2.7-17.2,6.7-25.2,11.3c-5.9,3.4-11.6,7.1-16.8,11.4c-7,5.8-13.5,12.2-19.1,19.4
		c-3.9,5-7.4,10.3-10.5,15.8c-1.7,3.1-3.4,6.2-4.8,9.4c-2.8,6.4-5.5,12.9-7,19.7c-1,4.5-1.9,9.1-2.5,13.6c-0.5,3.4-0.4,6.8-0.5,10.2
		c-0.2,7.9-0.4,15.8,1,23.7c0.8,4.6,1.7,9.3,2.8,13.8c0.8,3.2,2,6.4,3.3,9.5c1.7,4.2,3.5,8.4,5.4,12.5c1.6,3.3,3.5,6.6,5.2,9.8
		c3.4,6.5,7,12.8,11.5,18.6c5.4,6.8,11.1,13.1,18,18.5c5.1,4,9.8,8.3,15.4,11.6c1.2,0.7,2.4,1.3,3.6,2c-1.1-1.3-2.3-2.4-3.6-3.4
		c-2.1-1.6-4.4-3.1-6.4-4.8c-2.6-2.2-4.9-4.8-7.6-7c-4.6-3.9-8.6-8.4-12-13.3c-3.4-4.8-6.4-9.8-9.6-14.7c-1-1.6-2.1-3.1-3.2-4.6
		c-0.1,0.1-0.2,0.1-0.3,0.2c4,6.7,8.1,13.4,12.3,20.3c-0.4-0.2-0.6-0.2-0.6-0.3c-1.9-2.1-3.9-4.3-5.8-6.5c-0.5-0.5-0.8-1.2-1.2-1.7
		c-4.6-6.5-8.6-13.3-12.3-20.4c-3.2-6.1-5.9-12.4-7.7-19c-1.1-4.1-2-8.3-2.8-12.6c-0.7-4-1.1-8.1-1.7-12.1c-0.2-1.8-0.4-3.7-0.6-5.5
		c0.1,0,0.1,0,0.2,0c1.4,6.1,2.7,12.2,4.1,18.3c0.1,0,0.2,0,0.3-0.1c-0.3-2-0.7-3.9-1-5.9c-0.7-4.5-1.8-9-2.2-13.6
		c-0.7-7.1-0.2-14.2,0.9-21.3c0.8-4.8,2.3-9.4,4.1-14c0.7-1.9,1.6-3.8,2.4-5.7c-0.5,1.5-1.1,3.1-1.6,4.6c-0.5,1.5-0.9,3.1-1.3,4.6
		c-0.4,1.5-0.8,3-1.3,4.8c1.9-5.6,3.7-11,5.6-16.4c0.2,0.1,0.3,0.1,0.5,0.2c-3.3,9.3-6.4,18.7-6.8,28.7c0.6-3.1,1.2-6.2,1.8-9.3
		c0.1,0,0.2,0,0.3,0c0.1,0.2,0.1,0.3,0.3,0.6c1.2-6.4,3.1-12.4,5.4-18.2c2.3-5.9,5.1-11.5,8.2-17c3.1-5.5,9.6-14.6,11-15.2
		c-0.7,1-1.4,1.9-2.1,2.9c0.3-0.1,0.5-0.4,0.7-0.6c5.1-6.4,10.4-12.6,17-17.7c4.1-3.1,8.3-6.1,12.5-9c2.4-1.6,4.9-2.8,7.4-4.2
		C-626,134.6-624.4,133.6-622.7,132.6z M-675.2,242.7c-0.2-0.4-0.6-0.8-0.6-1.3c-0.2-2.1-0.5-4.3-0.5-6.4c0-3.3,0.2-6.6,0.4-9.9
		c0.4-6,1.3-12,3.4-17.7c1.5-4.2,2.8-8.5,4.2-12.7c0.2-0.7,0.6-1.4,1-2.1c-0.1,0-0.1-0.1-0.2-0.1c-0.4,0.7-0.7,1.4-1.1,2
		c-0.1-0.1-0.3-0.1-0.4-0.2c1.5-3.3,3.1-6.7,4.6-10c0.1,0.1,0.3,0.1,0.4,0.2c-0.1,0.4-0.2,0.8-0.3,1.1c0.4-0.3,0.6-0.6,0.8-1
		c0.8-1.8,1.5-3.8,2.5-5.5c3.2-5.7,7.2-10.9,11.6-15.8c5.3-5.9,11.3-11.1,17.8-15.8c3.1-2.2,6.4-4.2,9.6-6.1c2.4-1.4,4.8-2.8,7.3-4
		c2.5-1.3,5.1-2.4,7.6-3.6c0.9-0.4,1.9-0.8,2.8-1.3c-0.3-0.2-0.6-0.2-0.8-0.1c-2.1,0.7-4.3,1.4-6.3,2.3c-7.4,3.3-14.7,6.9-21.4,11.5
		c-4.9,3.4-9.5,7.1-13.8,11.1c-5,4.8-9.6,10-13.5,15.7c-5.2,7.6-9.6,15.6-12.5,24.3c-1,3.1-2.2,6.1-3,9.2c-1,4.2-1.9,8.5-2.6,12.9
		c-0.6,3.9-0.9,7.8-1.2,11.7c-0.4,5.2,0.1,10.3,0.8,15.4c0.3,2.7,1,5.4,1.4,8.1c0.2,1.3,0.2,2.6,0.3,3.9c-0.1,0-0.3,0-0.4,0
		c-0.1-0.3-0.3-0.6-0.4-0.9c-1.8-6-3.4-12-4-18.2c-0.4-3.8-0.2-7.7-0.2-11.6c0-2.1,0.2-4.2,0.5-6.3c0.3-2.2,0.9-4.4,1.2-6.6
		c0.7-4.4,1.4-8.8,2.9-13.1c0.1-0.2,0-0.4,0-0.7c-3.3,6.7-4.3,13.8-5,20.9c-0.4,3.9-0.3,7.8-0.2,11.7c0,1.9,0.4,3.8,0.6,5.7
		c0.3,2.3,0.5,4.5,0.8,6.8c0,0.1-0.1,0.2-0.2,0.3c-0.2-0.4-0.3-0.7-0.5-1.1c0.3,7.9,9,33.5,12.9,37.3c-1.4-3.7-2.6-7.3-3.9-10.8
		c0.1,0,0.2-0.1,0.3-0.1c0.9,1.3,1.9,2.5,2.6,3.8c1.7,2.9,3.2,6,5.1,8.8c2.8,4.1,5.8,8.1,8.8,12.1c3.5,4.7,7.9,8.6,12.3,12.4
		c4,3.3,8.4,6.1,12.6,9.1c0.2,0.1,0.4,0.3,0.5,0.5c0,0.1-0.1,0.1-0.1,0.2c-0.5-0.2-1-0.3-1.6-0.5c1.3,1.1,2.7,1.9,4,2.9
		c2.3,1.6,3.4,2.2,4.2,1.9c-0.5-0.4-1-0.8-1.5-1.2c0.1-0.1,0.1-0.2,0.2-0.3c0.5,0.2,1,0.3,1.4,0.5c3,1.2,5.9,2.5,9,3.5
		c3.8,1.2,7.7,2.3,11.6,3.2c3.6,0.8,7.3,1.1,11,1.5c3.2,0.3,6.4,0.5,9.5,0.7c0.4,0,0.8-0.2,1.2-0.2c0-0.1,0-0.2,0-0.3
		c-6.1,0-12.1-0.6-18-2c0.8,0.1,1.6,0.1,2.4,0.2c-2.3-0.8-4.5-1.3-6.8-1.9c-2.3-0.6-4.5-1.3-6.8-2c0-0.1,0.1-0.3,0.1-0.4
		c0.9,0,1.9,0,2.8,0.1c4.6,0.6,9.1,1.5,13.7,1.8c7.6,0.5,15.3,0.7,22.9-0.5c3.2-0.5,6.4-1.1,9.5-1.8c3.2-0.7,6.4-1.6,9.6-2.6
		c1.7-0.5,3.2-1.4,4.8-2.1c0-0.1-0.1-0.1-0.1-0.2c-2.1,0.7-4.2,1.4-6.3,2.1c0-0.1-0.1-0.2-0.1-0.3c0.4-0.2,0.7-0.4,1.1-0.6
		c-1.4,0.2-2.8,0.6-4.1,0.9c-8.3,2.3-16.7,3.5-25.3,3.4c-7.4,0-14.6-0.8-21.9-2.5c-5.5-1.3-10.8-3-16-5.3c-4.7-2.1-9.3-4.6-13.3-7.9
		c-3.6-3-7.1-6.1-10.6-9.2c-0.5-0.5-0.9-1.1-1.3-1.7c0.1-0.1,0.3-0.3,0.4-0.4c2.4,1.9,4.8,3.9,7.2,5.8c0,0,0.1-0.1,0.1-0.1
		c-0.4-0.5-0.8-1-1.2-1.5c0.8,0.3,1.4,0.7,1.9,1.2c3.3,2.8,7.1,4.9,10.9,7c0.4,0.2,0.9,0.2,1.3,0.3c0-0.1,0.1-0.2,0.1-0.4
		c-0.5-0.4-0.9-0.7-1.4-1.1c-2.7-2.2-5.5-4.4-8.2-6.7c-8.9-7.9-16.1-17.2-21.3-27.9c-0.8-1.6-1.7-3.2-2-5c-0.2-1.4-0.7-2.7-1.2-4
		c-0.7-1.9-1.4-3.8-1.7-5.7c-0.6-3.1-1.1-6.3-1.4-9.4c-0.3-2.7-0.3-5.5-0.3-8.2c0-1.4,0.3-2.8,0.3-4.2c-0.1-4.6,0.8-9.1,1.8-13.6
		c0.9-4.2,2.1-8.4,3.3-12.6c0.6-2,1.2-4,2.1-5.8c1.4-3,2.9-6,4.5-9c4.8-8.8,11.1-16.4,18.7-22.9c0.3-0.2,0.6-0.4,0.9-0.7
		c0,0-0.1,0-0.1,0c-2.5,2.6-5,5.2-7.5,7.7c0,0,0.1,0.1,0.1,0.1c1.6-1.5,3.1-2.9,4.7-4.4c0.1,0.1,0.1,0.2,0.2,0.2
		c-0.2,0.2-0.4,0.5-0.6,0.7c-5.4,4.8-9.1,11-13.5,16.6c-0.9,1.1-1.4,2.5-2.1,3.8c-1.2,2.3-2.3,4.6-3.4,7c-0.9,2.1-1.8,4.3-2.6,6.4
		c-0.8,2-1.7,4.1-2.1,6.2c-0.6,3.2-0.8,6.5-1.2,9.7c-0.1,0.6-0.2,1.2-0.2,1.8c-0.2,2.3-0.5,4.6-0.7,6.9c-0.1,1,0.2,1.9,0.3,2.9
		c0.8-9,2.3-18.1,3.5-20.4c-0.4,2.1-0.7,3.8-0.9,5.5c0.7-2,1.3-3.9,1.9-5.9c0.9-2.5,1.9-5,2.7-7.5c1.4-4.2,3.3-8.2,5.7-11.9
		c1.1-1.6,2.4-3.1,3.6-4.6c1.8-2.3,3.5-4.6,5.3-6.9c1-1.3,2.1-2.5,3.1-3.7c0.1,0.1,0.2,0.2,0.2,0.3c1.5-1.5,3-3.1,4.6-4.6
		c-0.1-0.1-0.2-0.1-0.3-0.2c0.5-0.6,1-1.3,1.6-1.8c1.3-1.1,2.6-2.1,4-3c4.4-3,8.7-6.1,13.3-8.8c7.1-4.1,14.8-6.7,22.8-8.6
		c4.7-1.1,9.4-2,14.1-2.4c6.6-0.5,13.1,0,19.5,1.3c4.6,1,9,2.3,13.5,3.5c0.4,0.1,0.7,0.3,1.1,0.5c0,0.1-0.1,0.2-0.1,0.3
		c-9-2.6-18.1-4.1-27.5-4c0.8,0.2,1.7,0.1,2.6,0.2c0.8,0,1.7,0.1,2.5,0.2c0.8,0.1,1.6,0.2,2.4,0.4c0,0.1,0,0.3,0,0.4
		c-19.9-2.1-37.9,3.6-55,14c0.9-0.3,1.6-0.5,2.2-0.7c2.3-1,4.6-2.2,7-3.1c4.9-2,9.8-3.8,14.9-5c5.1-1.2,10.1-2.3,15.3-2.6
		c8.7-0.5,17.3-0.2,25.9,1.8c6.3,1.5,12.4,3.4,18.2,6.2c6.9,3.3,13,7.7,18.7,12.7c6.8,6,12.6,12.8,16.9,20.8
		c2.4,4.5,4.5,9.1,6.4,13.8c0.9,2.1,1.1,4.4,1.7,6.6c2.2,8.4,3.3,16.8,3.1,25.5c0,0.4,0,0.8-0.1,1.2c-0.2,0-0.3,0-0.5,0.1
		c-0.4-14.6-3.8-28.3-10.7-41.1c-7-12.8-15.9-23.7-28.4-31.5c0.5,0.4,0.9,0.8,1.4,1.2c-0.1,0.1-0.1,0.1-0.2,0.2
		c-1-0.6-2-1.3-3.1-1.9c-0.1,0.1-0.2,0.2-0.3,0.3c9.2,6.8,17.2,14.8,23.1,24.6c6,9.7,10.6,20,12.2,31.5c-0.2-0.2-0.4-0.5-0.6-0.7
		c2.4,10.9,2.4,21.8,0.3,32.7c-0.1,0-0.2,0-0.3,0c-0.1-0.2-0.2-0.3-0.4-0.6c-0.3,1.7-0.5,3.3-1,4.9c-1.4,4.8-2.8,9.6-4.4,14.4
		c-0.4,1.3-1.1,2.5-1.7,3.7c-0.9,1.9-1.9,3.8-2.8,5.6c-0.3,0.5-0.6,1-0.9,1.6c-0.3,0.5-0.5,1-0.8,1.4c2.9-2.4,4.4-5.5,6.1-8.6
		c0.6-1.1,1-2.5,2.5-3.4c-0.2,0.8-0.3,1.2-0.5,1.6c-1.2,2.6-2.2,5.3-3.6,7.8c-1.6,2.9-3.2,5.7-5.2,8.3c-4.4,5.9-9.6,11-15.5,15.5
		c-1.3,1-2.6,2-4.1,3.2c0.6,0.2,0.9,0.3,1.6,0.5c-9.8,7.6-21.1,11.5-32.4,15.2c0.4,0.1,0.8,0.1,1.2,0c3.9-0.8,7.9-1.7,11.8-2.5
		c0.3-0.1,0.7-0.1,1-0.1c0,0.1,0.1,0.3,0.1,0.4c-10.5,4.4-21.7,5.8-32.8,7.7c0.2,0.1,0.4,0.2,0.6,0.2c5.2-0.1,10.3-0.2,15.4-1.3
		c6.6-1.4,13.1-3.4,19.4-6c7.4-3.2,14.7-6.5,21.4-10.9c1-0.6,2-1.3,3.1-2c-0.2,1.3-0.2,1.5-2.2,2.8c-6.9,4.7-14.2,8.7-22,11.5
		c-1.2,0.4-2.4,0.7-3.6,1c-2.3,0.6-4.7,1.2-7,1.8c0,0.1,0.1,0.2,0.1,0.3c0.6,0.2,1.1,0.4,1.7,0.5c0,0.1,0,0.2,0,0.3
		c-2.5,0.6-5.1,1.5-7.6,1.8c-5.3,0.6-10.7,1-16.1,1.2c-4.4,0.2-8.8,0.1-13.2-0.2c-3.5-0.2-7-0.9-10.5-1.4c-0.4-0.1-0.8,0-1.2,0
		c0,0.1,0,0.2,0,0.3c8.2,2.1,16.5,3.6,25,4.2c0,0.2,0,0.4,0,0.6c-0.9,0.2-1.8,0.6-2.7,0.6c-4.5-0.2-8.9-0.1-13.3-1.4
		c-2.2-0.7-4.6-0.7-6.8-1.2c-6.8-1.4-13.4-3.2-19.7-6.3c-2.6-1.3-5.2-2.5-7.8-3.7c-2-0.9-4.1-1.7-6.1-2.7c-1.8-0.9-3.5-2.1-5.2-3.2
		c-0.4-0.2-0.9-0.4-1.6-0.8c0.4,0.7,0.6,1,0.9,1.5c-0.7-0.3-1.1-0.4-1.6-0.6c0.9,0.8,1.9,1.5,2.8,2.1c3.1,2.1,6.1,4.5,9.3,6.2
		c4.2,2.2,8.6,4,13,5.8c4.8,2,9.8,3.7,14.9,4.8c4.9,1,9.8,2,14.8,2.6c3,0.4,6.1,0.3,9.1-0.1c7-0.9,13.9-1.9,20.8-3.2
		c3.6-0.6,7.1-1.8,10.7-2.7c2.4-0.7,4.9-1.4,7.7-2.1c-0.3,0.6-0.4,0.9-0.6,1.1c7.9-2.5,15.3-5.8,22.2-10.8c-0.6-0.1-0.9-0.1-1.5-0.2
		c1.1-1,2-1.9,3-2.7c9-6.9,17.1-14.8,24-23.8c4.4-5.8,8.2-12,11.3-18.6c3.1-6.5,5.7-13.3,7.6-20.2c1.8-6.4,3.1-13,3.7-19.6
		c0.7-7.6,0.9-15.1-0.3-22.7c-0.9-5.8-2.2-11.4-3.9-17c-2.4-7.8-6-15-10.3-21.9c-4.9-7.9-10.8-14.9-17.7-21.1
		c-6.4-5.8-13.4-10.7-21-14.8c-5.7-3-11.5-5.5-17.7-7.3c-4.8-1.4-9.7-2.5-14.5-3.4c-7.3-1.4-14.7-1.7-22.1-1
		c-4.2,0.4-8.5,0.8-12.7,1.4c-3.7,0.6-7.4,1.6-11.1,2.5c-7.1,1.7-13.8,4.4-20.5,7.4c-9,4.1-17.2,9.5-24.6,16.1
		c-0.2,0.2-0.5,0.4-0.7,0.5c0-0.4,0.1-0.6,0.3-0.7c3.4-3.7,7.3-7,11.3-10c4.6-3.4,9.3-6.6,14.5-9.1c3.3-1.6,6.7-3.1,10.2-4.4
		c3.6-1.4,7.2-2.5,10.9-3.6c1.5-0.5,3.1-0.8,4.6-1.1c4.1-0.8,8.3-1.7,12.4-2.2c3.8-0.5,7.7-0.4,11.6-0.6c5.7-0.3,11.4,0.4,17,1.3
		c5.3,0.8,10.5,1.8,15.6,3.6c3.3,1.2,6.6,2.4,9.9,3.6c0.5,0.2,1.1,0.3,1.6,0.5c0-0.1,0.1-0.2,0.1-0.3c-0.3-0.2-0.6-0.4-0.9-0.5
		c-1-0.4-2.1-0.8-3.1-1.3c-4.9-2.2-9.9-4.4-15.2-5.7c-8.1-2.1-16.3-3.1-24.7-3.4c-8.4-0.2-16.8,0.6-25.1,2.4
		c-3.3,0.8-6.8,1.2-10,2.3c-5.9,2.1-11.7,4.3-17.3,6.9c-7.8,3.7-14.9,8.5-21.5,14c-9,7.4-16.5,16.1-22.5,26.1
		c-2.4,4-4.4,8.3-6.5,12.5c-1.3,2.6-2.5,5.3-3.4,8c-1.5,4.8-2.7,9.7-4,14.6c-1.5,6.1-2.2,12.3-2.2,18.5c0,4,0.5,8,0.8,12.1
		c0.1,1.3,0.3,2.5,0.5,3.8c-0.1,0-0.2,0-0.3,0c-0.3-1.7-0.7-3.4-1-5.1C-674.7,244.8-675,243.8-675.2,242.7c0-1.8,0-3.6,0-5.3
		c-0.1,0-0.2,0-0.4,0C-675.5,239.1-675.3,240.9-675.2,242.7z M-624.6,250.6c0.4,0.9,0.6,2,1.2,3c1.8,3.2,3.6,6.5,6.2,9.1
		c0.4,0.4,1.2,1.1,0.5,1.9c-2.2,2.4-4.5,4.5-7.3,6.2c-0.4,0.2-0.9,0.3-1.4,0.2c-0.8-0.2-1.5-0.4-2.3-0.7c-2.8-1.3-5.6-2.1-8.6-2.4
		c-0.2,0-0.5,0-0.7,0.2c-1.5,1-2.2,3.5-1.6,5.2c0.2,0.4,0.2,0.9,0.3,1.3c-0.1,0.1-0.2,0.2-0.3,0.2c-0.6-0.6-1.2-1.1-1.9-1.7
		c-0.4-0.3-0.8-0.7-1.2-0.9c-0.1-0.1-0.7,0.4-0.7,0.5c0.5,1,0.7,2.4,1.6,3c3.8,3,8.2,4.1,13,3c0.7-0.2,1.5-0.5,2-0.9
		c2.4-2.1,5.4-3.1,8.1-4.6c2.6-1.5,5.3-2.9,7.9-4.5c2.6-1.7,5-3.5,7.5-5.4c1.9-1.4,3.8-3,4.3-5.5c0.9-4.4,1.8-8.8,2.5-13.3
		c0.3-1.7,0.3-3.6-0.1-5.2c-0.8-3.1-1.9-6.2-2.9-9.2c-0.1-0.4,0.2-0.9,0.3-1.4c0.4,0.3,0.9,0.5,1.1,0.9c0.6,1.4,1.2,2.8,1.7,4.2
		c0.8,2.4,1.7,4.7,2.3,7.2c0.9,3.6,1.6,7.2,2.2,10.8c0.3,2,0.5,4.1,0.4,6.1c-0.2,5.5-2.8,10.1-6,14.5c-1.4,2-3.1,2.4-5.3,2.2
		c-6.4-0.3-12.8,0.1-19,1.9c-2,0.6-3.9,1.5-5.6,2.6c-1.3,0.9-2.5,2.1-3.1,3.5c-1.2,2.6-0.6,5.2,1.3,7.4c3.3,3.9,7.9,5.5,12.8,6.2
		c3.4,0.5,6.8,0.1,10.1-0.6c5.3-1.2,10.6-2.4,15.9-3.7c3.9-1,7.7-2.1,11.6-3.1c0.9-0.2,1.8-0.6,2.7-0.5c1.1,0.1,2.2,0.6,3.3,0.9
		c5.3,1.4,10.6,2.9,16,4.2c2.5,0.6,5.1,1.2,7.7,1.6c2.8,0.5,5.7,1,8.5,1.2c3.3,0.3,6.5-0.6,9.6-1.7c2.6-0.9,4.8-2.3,6.5-4.5
		c1.4-1.8,2.2-4,1.9-6.3c-0.3-2.6-2-4.4-4.1-5.7c-3.8-2.3-8.1-2.9-12.4-3.3c-4.2-0.4-8.6-0.1-12.8-0.2c-0.6,0-1.4-0.2-1.9-0.6
		c-2.7-2.6-4.9-5.7-6.4-9.1c-2.3-5.2-2-10.7-0.8-16c1.1-5.1,2.7-10,4.3-15c0.5-1.6,1.3-3.2,2.1-4.7c0.1-0.3,0.6-0.4,0.9-0.5
		c0.1,0.3,0.3,0.7,0.3,1c0,0.2-0.1,0.5-0.2,0.7c-0.9,2.6-1.9,5.2-2.5,7.9c-0.5,1.9-0.7,4.1-0.5,6c0.4,4,1.3,8,1.9,12
		c0.3,2.3,1.4,4.2,3.2,5.6c2.3,1.9,4.7,3.7,7.2,5.4c2.8,1.8,5.7,3.4,8.6,5c3,1.7,6.1,3.3,9.2,4.8c1.6,0.8,3.3,1.5,5,1.9
		c2.7,0.6,5.5,0.1,7.9-1.1c1.7-0.8,3.6-1.6,4.3-3.7c0.2-0.6,0.2-1.2,0.2-1.8c-0.6,0.3-1.2,0.5-1.7,0.9c-0.5,0.4-1,0.9-1.5,1.4
		c-0.3-0.8-0.3-1.3-0.3-1.9c0.1-1.5-0.4-2.8-1.3-3.9c-0.3-0.4-0.9-0.9-1.3-0.9c-1.3,0.1-2.7,0.3-3.9,0.7c-2.1,0.7-4.2,1.6-6.3,2.3
		c-0.7,0.2-1.7,0.3-2.3,0c-1.5-0.9-3-1.9-4.4-3.1c-1.5-1.3-2.7-2.9-4.2-4.2c-2.9-2.7-5.8-5.4-8.6-8.1c-1-1-1.5-2.2-1.5-3.6
		c-0.2-4.4-0.5-8.8-0.8-13.2c-0.2-2.3-0.4-4.7-0.5-7c-0.1-2.2,0-4.4-0.1-6.6c-0.3-6.3-3.9-10.6-10.1-12c-3.2-0.8-6.2-1.8-8.8-3.8
		c-2.5-1.9-3.8-4.3-4-7.4c-0.2-3.1,1.9-5.2,3-7.8c0-0.1,0.1-0.1,0.2-0.1c2.1-1.1,2.5-3.1,2.9-5.1c0.3-1.7-0.1-2.1-1.7-2.6
		c0-0.6,0-1.2,0-1.9c0-1.8,0.1-3.5-0.1-5.3c-0.2-2-1.1-3.8-2.7-5.2c-3.3-2.9-7-3.7-11.1-2.1c-3.6,1.4-6,3.9-6.3,7.9
		c-0.1,1.7,0,3.5,0.1,5.3c0,0.7,0.2,1.4-0.9,1.6c-0.4,0.1-0.8,0.8-0.9,1.3c-0.1,0.7,0,1.5,0.2,2.2c0.5,1.4,0.8,2.9,2.3,3.8
		c0.5,0.3,0.9,0.8,1.3,1.3c0.6,1,1.2,2.1,1.7,3.1c0.2,0.3,0.4,0.6,0.4,1c0.9,4.6-1,8.9-5.2,10.9c-2.9,1.4-5.9,2.4-8.9,3.5
		c-3.2,1.2-6.2,2.7-7.3,6.3c-0.4,1.4-0.8,2.9-0.9,4.4c-0.3,3.9-0.5,7.9-0.8,11.8c-0.4,5.3-0.8,10.6-1.2,15.9
		c-0.1,0.8-0.2,1.8-0.7,2.3c-2.4,2.5-5,4.9-7.5,7.3c-0.5,0.5-1.1,0.6-1.6-0.1c-1.6-2.4-3.3-4.9-4.9-7.3c-0.5-0.7-0.7-1.7-1.3-2.2
		C-622.6,251.3-623.6,251.1-624.6,250.6z M-535,221.5c-0.2,0.1-0.3,0.1-0.5,0.2c1.5,4,3.4,7.8,3.9,12.2c0.5,4.3,1.2,8.6,0,12.9
		c0.6-1.8,1.2-3.7,1.5-5.5c0.2-1.4,0.1-2.9,0.2-4.3c0-1-0.1-1.9-0.1-2.9c0-1.9,0-3.8,0-5.8c0-0.3,0.3-0.6,0.5-1
		c0.3,0.2,0.6,0.4,0.8,0.6c0.4,0.7,0.6,1.5,0.9,2.1c0,0,0.1-0.2,0.3-0.5c0.1,0.3,0.3,0.6,0.3,0.8c0.5,4.2,1.1,8.5,0.5,12.7
		c-0.2,1.4,0.2,2.9-0.1,4.3c-0.6,2.5-1.6,5-2.5,7.5c-0.3,0.9-0.8,1.7-1.3,2.9c1.8-1.2,2.8-2.4,3.8-4.9c2.1-5.2,3.5-10.4,2.6-16.1
		c-0.7-3.9-1-7.9-1.6-11.8c-0.6-3.5-2.2-6.6-4.1-9.6c-0.1-0.2-0.6-0.3-0.8-0.4c0,0.3-0.1,0.7,0,1c0.3,1,0.7,1.9,1,2.9
		c-0.4,0-0.6-0.1-0.7-0.3c-0.9-1.2-1.8-2.5-2.7-3.6c-5-5.9-11.3-9.7-18.5-12.4c-0.9-0.3-1.9-0.3-2.8-0.4c2,1,4,1.7,5.9,2.6
		c1.9,1,3.7,2.1,5.6,3.3c2.6,1.6,4.3,3.3,4.5,4.4c-0.8-0.6-1.6-1.2-2.4-1.7c-0.8-0.5-1.7-0.7-2.6-1.1c-0.1,0.1-0.1,0.2-0.2,0.3
		c0.2,0.2,0.3,0.4,0.5,0.6c3.2,2.2,5.7,5.1,8.2,8c1.7,2,2.9,4.3,3.7,6.8c0.1,0.5,0,1.1,0,1.7c-0.1,0-0.2,0-0.3,0.1
		C-532.7,225.2-533.8,223.4-535,221.5z M-654.5,270.6c0.1,0.5,0.2,1.1,0.4,1.5c1.3,2.7,2.4,5.5,3.9,8.1c4,7.3,9.1,13.7,15.5,19
		c5.4,4.5,11.4,8.3,17.9,11.1c3.5,1.5,7,2.7,10.9,2.9c0.2,0,0.3,0,0.5,0c0.2,0,0.3,0,0.2,0c-2.1-0.8-4.4-1.7-6.6-2.5
		c0-0.1,0.1-0.2,0.1-0.4c0.3,0,0.6,0,0.9,0c0.3,0,0.7,0.1,1,0.2c-10.1-2.9-18.2-9.2-26-15.8C-643.6,288.1-649.6,279.8-654.5,270.6z
		 M-611.6,205.6c-2.3,0.9-7.9,7.4-8,9.1c2.1-0.2,3.4-1.6,4.8-3c1.4-1.4,2.9-2.9,4.5-4.1c2.9-2.1,6-4.1,9-6.2
		c-3.6,1.3-7,3.2-10.5,5.4C-611.7,206.3-611.7,206-611.6,205.6z M-655,300.3c-0.1,0.1-0.2,0.3-0.4,0.4c4.5,6.1,10.5,10.2,17,13.9
		c0.1-0.1,0.2-0.2,0.2-0.3C-643.7,309.6-649.4,305-655,300.3z M-641.9,196.1c-4.8,5.1-10.1,19.4-10.4,27.8c1.4-4.5,2.7-9.4,4.5-14.2
		C-646,205-643.8,200.4-641.9,196.1z M-463,199.1c-1.7-5.5-4-10.7-7.2-15.6C-467.8,188.7-465.4,193.9-463,199.1z M-595.2,197.3
		c-4.5,0.9-9,2.5-13.2,5.3c0,0.1,0.1,0.2,0.1,0.3C-603.8,201-599.4,199.1-595.2,197.3z M-697.4,259.2c-0.2,0-0.4,0.1-0.5,0.1
		c0.4,3.6,1.4,7,2.4,10.5c0.2,0,0.3-0.1,0.5-0.1C-695.8,266.2-696.6,262.7-697.4,259.2z M-616,220.7c-2.4,1.7-4.8,7-4.1,8.5
		C-618.7,226.5-617.4,223.7-616,220.7z M-625.8,209.3c-1.8,2.3-3,4.7-4,7.1C-628.6,215.7-625.9,211.1-625.8,209.3z M-514.6,251
		c-0.1,0-0.2-0.1-0.4-0.1c-1,2.4-2.1,4.8-3.1,7.3C-516.3,256.1-515.1,253.7-514.6,251z M-658.3,252.7c-0.1,0-0.2,0-0.3,0.1
		c-0.3,2.4,0.4,4.6,1.5,6.7C-657.6,257.2-658,254.9-658.3,252.7z M-658.9,245c-0.8,1.3-0.8,5,0,6.1C-658.9,249-658.9,247-658.9,245z
		 M-626.2,261.4c0.1-0.1,0.2-0.1,0.3-0.2c-0.6-2.1-2.2-4.6-3.3-4.6C-628.2,258.2-627.2,259.8-626.2,261.4z M-641.6,318.5
		c-0.1,0.1-0.2,0.2-0.3,0.3c1.1,1.4,1.9,3,3.7,3.7C-639.3,321.2-640.5,319.8-641.6,318.5z M-676.5,307.7c0.1-0.1,0.2-0.2,0.3-0.2
		c-1.1-1.6-2.2-3.3-3.3-4.9c-0.1,0.1-0.2,0.1-0.3,0.2C-678.7,304.4-677.6,306-676.5,307.7z M-698.2,254.6c-0.2,0-0.4,0-0.6,0
		c0.1,1.1,0.2,2.2,0.3,3.4c0.2,0,0.3,0,0.5,0C-698,256.9-698.1,255.7-698.2,254.6z M-620.9,223.6c0.2,0,0.4-0.1,0.5-0.1
		c-0.2-0.8-0.5-1.5-0.8-2.5C-622.2,222.3-621.3,222.9-620.9,223.6z M-521.1,252.4c0.2,0,0.3,0.1,0.5,0.1c0.4-1.1,0.8-2.2,1.1-3.3
		c-0.1,0-0.2-0.1-0.4-0.1C-520.2,250.2-520.7,251.3-521.1,252.4z M-513,240.8c-0.1,0-0.2,0-0.3,0c0,1.2,0,2.5,0,3.7
		c0.1,0,0.2,0,0.3,0C-513,243.3-513,242-513,240.8z M-684.2,294.5c-0.1,0.1-0.2,0.1-0.4,0.2c0.5,0.9,1,1.7,1.5,2.6
		c0.1-0.1,0.2-0.1,0.4-0.2C-683.2,296.2-683.7,295.3-684.2,294.5z M-622.1,225.3c0.1,0,0.3-0.1,0.4-0.1c-0.1-0.6-0.3-1.1-0.4-1.7
		c-0.1,0-0.3,0.1-0.4,0.1C-622.9,224.2-623,224.9-622.1,225.3z M-514.6,142.6c0-0.1,0.1-0.3,0.1-0.4c-0.9-0.4-1.9-0.8-2.8-1.2
		c0,0.1-0.1,0.2-0.1,0.3c0.4,0.2,0.9,0.5,1.3,0.7C-515.6,142.2-515.1,142.4-514.6,142.6z M-535.1,239.6c0,0-0.1,0-0.1,0
		c0,1.1,0,2.1,0,3.2c0,0,0.1,0,0.1,0C-535.1,241.7-535.1,240.6-535.1,239.6z M-535.3,238.2c0,0,0.1,0,0.1,0c0-0.7,0-1.5,0-2.2
		c0,0-0.1,0-0.1,0C-535.3,236.8-535.3,237.5-535.3,238.2z"/>
	<path d="M6.6,65c0.2-1.2,0.5-2.4,0.7-3.6c1.1-5.5,2.4-10.8,4.5-16c2.2-5.3,4.9-10.3,8.3-15c3.3-4.5,7-8.6,11.3-12.2
		c3.9-3.3,8-6.3,12.5-8.8c4.2-2.3,8.6-4.3,13.3-5.7c2.1-0.6,4.2-1.2,6.3-1.8c0.3-0.1,0.6-0.1,0.9,0c-0.6,0.2-1.1,0.5-1.7,0.6
		c-1.9,0.6-3.8,1.1-5.7,1.8c-1.7,0.6-3.3,1.3-4.9,2c-1.7,0.8-3.4,1.6-5.1,2.4c-1.4,0.7-2.8,1.5-4.2,2.4c-1.8,1.2-3.7,2.3-5.4,3.6
		c-2.2,1.7-4.4,3.4-6.5,5.2c-2,1.8-4,3.8-5.8,5.8c-1.3,1.4-2.5,3-3.6,4.6c-1,1.4-1.8,3-2.9,4.3c-2.3,2.7-3.6,6-5.1,9.2
		c-1.8,4.1-3.1,8.3-4.2,12.6c-0.5,2.3-1,4.6-1.2,6.9c-0.4,4.1-0.7,8.2-1,12.3c-0.1,1.3,0,2.7,0.1,4.1c0.2,2,0.6,4,0.9,6
		c0.7,5.2,2.4,10.1,4.1,15.1c0.2,0.5,0.3,0.9,0.5,1.4c-0.1,0-0.1,0-0.2,0.1c-0.4-1.2-0.9-2.5-1.3-3.7c-0.4-1.2-0.9-2.5-1.3-3.8
		c-0.6-2-1.3-3.9-1.8-5.9c-0.6-2.5-0.9-5-1.4-7.5c0-0.1-0.1-0.2-0.2-0.4C6.6,75.7,6.6,70.3,6.6,65z"/>
	<path d="M46,45c-0.6,0.7-1.2,1.4-1.8,2.1c-1,1.3-2,2.6-3.1,4c-0.7,0.9-1.4,1.7-2,2.6c-1.4,2.1-2.5,4.4-3.3,6.8
		c-0.5,1.5-1.1,2.9-1.5,4.3c-0.4,1.1-0.7,2.3-1.1,3.4c0.2-1,0.3-2,0.5-3.2c-0.7,1.3-1.5,6.6-2,11.7c-0.1-0.6-0.2-1.1-0.2-1.7
		c0.1-1.3,0.2-2.6,0.4-3.9c0-0.3,0.1-0.7,0.1-1c0.2-1.9,0.4-3.7,0.7-5.6c0.2-1.2,0.7-2.4,1.2-3.6c0.5-1.2,0.9-2.5,1.5-3.7
		c0.6-1.3,1.3-2.7,2-4c0.4-0.7,0.7-1.5,1.2-2.2c2.5-3.2,4.7-6.8,7.8-9.5c0.1-0.1,0.2-0.3,0.4-0.4c0,0-0.1-0.1-0.1-0.1
		c-0.9,0.8-1.8,1.7-2.7,2.5c0,0,0,0-0.1-0.1c1.4-1.5,2.9-3,4.3-4.4c0,0,0,0,0,0c-0.2,0.1-0.4,0.2-0.5,0.4
		c-4.3,3.8-7.9,8.1-10.7,13.2c-0.9,1.7-1.8,3.4-2.6,5.1c-0.5,1.1-0.9,2.2-1.2,3.4c-0.7,2.4-1.3,4.8-1.9,7.2c-0.6,2.6-1.1,5.2-1,7.8
		c0,0.8-0.2,1.6-0.1,2.4c0,1.6,0,3.2,0.2,4.7c0.2,1.8,0.4,3.6,0.8,5.4c0.2,1.1,0.6,2.2,1,3.3c0.3,0.7,0.5,1.5,0.7,2.3
		c0.2,1,0.7,1.9,1.2,2.8c3,6.2,7.1,11.5,12.2,16c1.5,1.3,3.1,2.6,4.7,3.9c0.3,0.2,0.5,0.4,0.8,0.6c0,0.1,0,0.1-0.1,0.2
		c-0.3,0-0.5,0-0.8-0.2c-2.2-1.2-4.3-2.4-6.2-4c-0.3-0.3-0.7-0.5-1.1-0.7c0.2,0.3,0.4,0.6,0.7,0.8c0,0,0,0,0,0
		c-1.4-1.1-2.8-2.2-4.2-3.3c-0.1,0.1-0.1,0.2-0.2,0.2c0.3,0.3,0.5,0.7,0.8,1c2,1.8,4,3.6,6.1,5.3c2.3,1.9,4.9,3.3,7.7,4.5
		c3,1.3,6,2.3,9.2,3c4.1,1,8.3,1.4,12.5,1.4c4.9,0,9.8-0.7,14.5-2c0.8-0.2,1.5-0.4,2.4-0.5c-0.2,0.1-0.4,0.2-0.6,0.4
		c0,0.1,0,0.1,0.1,0.2c1.2-0.4,2.4-0.8,3.6-1.2c0,0,0,0.1,0,0.1c-0.9,0.4-1.8,0.9-2.8,1.2c-1.8,0.6-3.6,1.1-5.5,1.5
		c-1.8,0.4-3.6,0.7-5.5,1c-4.4,0.7-8.7,0.5-13.1,0.3c-2.6-0.2-5.3-0.7-7.9-1c-0.5-0.1-1.1-0.1-1.6-0.1c0,0.1,0,0.2-0.1,0.2
		c1.3,0.4,2.6,0.8,3.9,1.1c1.3,0.3,2.6,0.6,3.9,1.1c-0.5,0-0.9-0.1-1.4-0.1c3.4,0.8,6.9,1.1,10.3,1.1c0,0.1,0,0.1,0,0.2
		c-0.2,0-0.5,0.2-0.7,0.1c-1.8-0.1-3.7-0.2-5.5-0.4c-2.1-0.2-4.2-0.4-6.3-0.9c-2.3-0.5-4.5-1.1-6.7-1.8c-1.8-0.6-3.4-1.3-5.2-2
		c-0.3-0.1-0.5-0.2-0.8-0.3c0,0.1-0.1,0.1-0.1,0.2c0.3,0.2,0.6,0.5,0.9,0.7c-0.5,0.1-1.1-0.2-2.4-1.1c-0.8-0.5-1.5-1-2.3-1.7
		c0.3,0.1,0.6,0.2,0.9,0.3c0,0,0-0.1,0.1-0.1c-0.1-0.1-0.2-0.2-0.3-0.3c-2.4-1.7-4.9-3.3-7.2-5.2c-2.6-2.1-5.1-4.4-7.1-7.1
		c-1.7-2.3-3.4-4.6-5.1-6.9c-1.1-1.6-1.9-3.4-3-5c-0.5-0.8-1-1.4-1.5-2.2c-0.1,0-0.1,0.1-0.2,0.1c0.7,2,1.5,4.1,2.2,6.2
		c-2.2-2.2-7.2-16.9-7.4-21.4c0.1,0.3,0.2,0.4,0.3,0.7c0-0.1,0.1-0.1,0.1-0.2c-0.1-1.3-0.3-2.6-0.4-3.9c-0.1-1.1-0.3-2.2-0.3-3.3
		c0-2.2-0.1-4.5,0.1-6.7c0.4-4.1,1-8.1,2.9-12c0,0.2,0.1,0.3,0,0.4c-0.9,2.4-1.3,5-1.6,7.5c-0.2,1.3-0.5,2.5-0.7,3.8
		c-0.2,1.2-0.3,2.4-0.3,3.6c0,2.2-0.1,4.5,0.1,6.7c0.4,3.6,1.2,7,2.3,10.5c0.1,0.2,0.1,0.3,0.2,0.5c0.1,0,0.2,0,0.2,0
		c0-0.7,0-1.5-0.2-2.2c-0.2-1.6-0.6-3.1-0.8-4.7c-0.4-2.9-0.7-5.9-0.4-8.8c0.2-2.2,0.4-4.5,0.7-6.7c0.4-2.5,0.9-4.9,1.5-7.4
		c0.4-1.8,1.1-3.5,1.7-5.3c1.7-5,4.2-9.6,7.2-13.9c2.2-3.3,4.8-6.3,7.7-9c2.5-2.3,5.1-4.4,7.9-6.4c3.8-2.7,8-4.7,12.3-6.6
		c1.2-0.5,2.4-0.9,3.6-1.3c0.1,0,0.3,0,0.4,0.1c-0.5,0.2-1.1,0.5-1.6,0.7C60,17.6,58.5,18.2,57,19c-1.4,0.7-2.8,1.5-4.2,2.3
		c-1.9,1.1-3.8,2.2-5.5,3.5c-3.7,2.7-7.2,5.6-10.2,9c-2.5,2.8-4.8,5.8-6.6,9.1c-0.6,1-1,2.1-1.5,3.2c-0.1,0.2-0.2,0.4-0.5,0.5
		c0.1-0.2,0.1-0.4,0.2-0.7c-0.1,0-0.1-0.1-0.2-0.1c-0.9,1.9-1.8,3.8-2.7,5.8c0.1,0,0.1,0.1,0.2,0.1c0.2-0.4,0.4-0.8,0.6-1.2
		c0,0,0.1,0,0.1,0.1c-0.2,0.4-0.4,0.8-0.5,1.2c-0.8,2.4-1.5,4.9-2.4,7.3c-1.2,3.3-1.7,6.7-1.9,10.2c-0.1,1.9-0.2,3.8-0.3,5.7
		c0,1.2,0.2,2.5,0.3,3.7c0,0.2,0.2,0.5,0.4,0.7c0,0,0,0,0,0c0.1,0.6,0.3,1.2,0.4,1.8c0.2,1,0.4,2,0.6,2.9c0.1,0,0.1,0,0.2,0
		c-0.1-0.7-0.2-1.5-0.3-2.2c-0.2-2.3-0.5-4.6-0.5-6.9c0-3.6,0.4-7.1,1.3-10.6c0.7-2.8,1.4-5.6,2.3-8.4c0.5-1.6,1.2-3.1,1.9-4.6
		c1.2-2.4,2.4-4.9,3.7-7.2c3.4-5.7,7.7-10.7,12.9-15c3.8-3.1,7.9-5.9,12.4-8c3.2-1.5,6.6-2.8,9.9-4c1.8-0.6,3.8-0.9,5.7-1.3
		c4.7-1.1,9.6-1.5,14.4-1.4c4.8,0.1,9.5,0.7,14.1,1.9c3,0.8,5.9,2,8.7,3.3c0.6,0.3,1.2,0.5,1.8,0.7c0.2,0.1,0.4,0.2,0.5,0.3
		c0,0.1-0.1,0.1-0.1,0.2c-0.3-0.1-0.6-0.2-0.9-0.3c-1.9-0.7-3.8-1.4-5.7-2.1c-2.9-1-5.9-1.6-8.9-2.1c-3.2-0.5-6.5-0.9-9.8-0.8
		c-2.2,0.1-4.5,0.1-6.7,0.3c-2.4,0.3-4.8,0.8-7.1,1.3c-0.9,0.2-1.8,0.4-2.7,0.6c-2.1,0.7-4.2,1.3-6.2,2.1c-2,0.8-3.9,1.6-5.8,2.5
		c-2.9,1.4-5.7,3.3-8.3,5.2c-2.3,1.7-4.5,3.6-6.5,5.7c-0.1,0.1-0.2,0.2-0.2,0.4c0.1-0.1,0.3-0.2,0.4-0.3c4.2-3.8,8.9-6.9,14.1-9.2
		c3.8-1.7,7.7-3.3,11.7-4.3c2.1-0.5,4.2-1.1,6.4-1.4c2.4-0.4,4.9-0.6,7.3-0.8c4.2-0.4,8.5-0.2,12.7,0.6c2.8,0.5,5.6,1.2,8.3,2
		c3.5,1,6.9,2.5,10.1,4.2c4.4,2.3,8.4,5.1,12,8.5c3.9,3.6,7.4,7.6,10.2,12.1c2.5,3.9,4.5,8.1,5.9,12.6c1,3.2,1.7,6.4,2.3,9.7
		c0.7,4.4,0.6,8.7,0.2,13c-0.4,3.8-1.1,7.6-2.1,11.3c-1.1,4-2.6,7.9-4.4,11.6c-1.8,3.8-3.9,7.3-6.5,10.6c-4,5.2-8.6,9.7-13.8,13.6
		c-0.6,0.4-1.1,1-1.7,1.6c0.3,0.1,0.5,0.1,0.9,0.1c-4,2.9-8.2,4.8-12.7,6.2c0.1-0.1,0.1-0.3,0.3-0.6c-1.6,0.4-3,0.8-4.4,1.2
		c-2,0.5-4,1.2-6.1,1.6c-4,0.7-8,1.3-11.9,1.8c-1.7,0.2-3.5,0.3-5.2,0.1c-2.9-0.3-5.7-0.9-8.5-1.5c-2.9-0.6-5.8-1.6-8.5-2.7
		c-2.5-1.1-5-2.1-7.4-3.4c-1.9-1-3.6-2.4-5.4-3.6c-0.6-0.4-1.1-0.8-1.6-1.2c0.3,0.1,0.5,0.2,0.9,0.4c-0.2-0.3-0.3-0.5-0.5-0.9
		c0.4,0.2,0.7,0.3,0.9,0.4c1,0.6,2,1.3,3,1.8c1.1,0.6,2.3,1,3.5,1.6c1.5,0.7,3,1.4,4.5,2.1c3.6,1.8,7.4,2.8,11.3,3.6
		c1.3,0.3,2.7,0.3,3.9,0.7c2.5,0.8,5.1,0.7,7.6,0.8c0.5,0,1-0.2,1.5-0.3c0-0.1,0-0.2,0-0.4c-4.9-0.3-9.7-1.2-14.4-2.4
		c0-0.1,0-0.1,0-0.2c0.2,0,0.5,0,0.7,0c2,0.3,4,0.6,6.1,0.8c2.5,0.2,5,0.2,7.6,0.1c3.1-0.1,6.2-0.4,9.2-0.7c1.5-0.2,2.9-0.7,4.4-1
		c0-0.1,0-0.1,0-0.2c-0.3-0.1-0.6-0.2-0.9-0.3c0-0.1,0-0.1,0-0.2c1.3-0.3,2.7-0.7,4-1c0.7-0.2,1.4-0.3,2-0.6
		c4.5-1.6,8.7-3.9,12.6-6.6c1.1-0.8,1.1-0.9,1.2-1.6c-0.6,0.4-1.2,0.8-1.8,1.1c-3.9,2.5-8,4.5-12.3,6.3c-3.6,1.5-7.3,2.7-11.1,3.5
		c-2.9,0.6-5.9,0.7-8.8,0.7c-0.1,0-0.2,0-0.3-0.1c6.4-1.1,12.8-1.9,18.8-4.4c0-0.1,0-0.2-0.1-0.2c-0.2,0-0.4,0-0.6,0.1
		c-2.3,0.5-4.5,1-6.8,1.4c-0.2,0-0.4,0.1-0.7,0c6.5-2.1,12.9-4.3,18.6-8.7c-0.4-0.1-0.6-0.2-0.9-0.3c0.8-0.7,1.6-1.3,2.3-1.8
		c3.3-2.6,6.4-5.5,8.9-8.9c1.1-1.5,2.1-3.1,3-4.8c0.8-1.4,1.4-3,2.1-4.5c0.1-0.2,0.1-0.5,0.3-0.9c-0.9,0.5-1.1,1.3-1.5,1.9
		c-1,1.8-1.9,3.6-3.5,5c0.2-0.3,0.3-0.5,0.5-0.8c0.2-0.3,0.4-0.6,0.5-0.9c0.6-1.1,1.1-2.1,1.6-3.2c0.3-0.7,0.7-1.4,1-2.1
		c0.9-2.7,1.7-5.5,2.5-8.3c0.3-0.9,0.4-1.8,0.5-2.8c0.1,0.2,0.2,0.3,0.2,0.4c0.1,0,0.1,0,0.2,0c1.2-6.2,1.2-12.5-0.2-18.8
		c0.1,0.1,0.2,0.3,0.4,0.4c-0.9-6.6-3.6-12.5-7-18.1c-3.4-5.6-8-10.2-13.3-14.1c0.1-0.1,0.1-0.1,0.2-0.2c0.6,0.4,1.2,0.7,1.8,1.1
		c0,0,0.1-0.1,0.1-0.1c-0.3-0.2-0.5-0.5-0.8-0.7c7.2,4.5,12.3,10.8,16.3,18.1c4,7.3,5.9,15.2,6.2,23.6c0.1,0,0.2,0,0.3,0
		c0-0.2,0-0.5,0-0.7c0.1-5-0.6-9.8-1.8-14.6c-0.3-1.3-0.5-2.6-1-3.8c-1.1-2.7-2.3-5.3-3.7-7.9c-2.4-4.6-5.8-8.5-9.7-11.9
		c-3.3-2.9-6.8-5.4-10.7-7.3c-3.3-1.6-6.8-2.7-10.4-3.6c-4.9-1.2-9.9-1.3-14.8-1c-3,0.2-5.9,0.8-8.8,1.5c-2.9,0.7-5.8,1.7-8.6,2.9
		c-1.4,0.6-2.7,1.2-4,1.8c-0.3,0.2-0.7,0.2-1.2,0.4c9.8-5.9,20.1-9.2,31.5-8c0-0.1,0-0.2,0-0.2c-0.5-0.1-0.9-0.1-1.4-0.2
		c-0.5-0.1-1-0.1-1.4-0.1c-0.5,0-1,0-1.5-0.1c5.4,0,10.6,0.8,15.8,2.3c0-0.1,0-0.1,0.1-0.2c-0.2-0.1-0.4-0.2-0.6-0.3
		c-2.6-0.7-5.2-1.4-7.8-2c-3.7-0.8-7.4-1.1-11.2-0.8c-2.7,0.2-5.4,0.7-8.1,1.4c-4.6,1.1-9,2.6-13.1,4.9c-2.6,1.5-5.1,3.3-7.6,5
		c-0.8,0.5-1.6,1.1-2.3,1.7c-0.3,0.3-0.6,0.7-0.9,1C47.7,43.3,46.8,44.2,46,45z M83.9,20.1c0,0.1,0,0.3,0,0.4c1.7,0,3.3,0,5,0
		c4.1,0.1,8.1,0.9,12,2.1c4,1.2,7.9,2.9,11.5,4.9c3.3,1.8,6.4,3.9,9.2,6.3c5.5,4.6,10,10,13.4,16.3c2.6,4.8,4.5,9.9,5.7,15.2
		c0.6,2.8,1.1,5.7,1.5,8.6c0.6,4,0.1,8-0.5,11.9c-0.2,1.2-0.4,2.3-0.7,3.4c0.2-0.2,0.3-0.4,0.4-0.6c0.5-2,1.1-3.9,1.4-5.9
		c0.4-2.9,0.8-5.9,0.8-8.8c0-3.7-0.5-7.3-1.4-10.9c-0.9-3.8-2.1-7.3-3.7-10.8c-1.7-3.7-3.8-7.2-6.4-10.5c-3.1-3.9-6.7-7.4-10.7-10.5
		c-2.6-1.9-5.4-3.6-8.2-5.1c-4.1-2.2-8.5-3.7-13-4.6c-3.2-0.6-6.5-1.1-9.8-1.4C88.3,20,86.1,20.1,83.9,20.1z M32.2,106.4
		c0.1-0.1,0.2-0.1,0.3-0.2c-1.1-1.8-2.2-3.6-3.2-5.5c-1-1.9-1.9-3.9-2.7-5.9c-0.8-2-1.5-4-2.2-6.1c-0.7-2-1.3-4-1.9-5.9
		c0.1,0.5,0.2,1.2,0.2,1.8c0.5,4.5,2.3,8.6,3.8,12.7c1,2.5,2.5,4.8,3.9,7.2C31,105.2,31.6,105.8,32.2,106.4z M133.8,103.9
		c0.1,0,0.1,0,0.2,0.1c0.1-0.1,0.1-0.2,0.2-0.3c3.1-5.7,5-11.8,6-18.1c0.1-0.7,0.2-1.5-0.4-2.1C138.8,90.6,136.9,97.4,133.8,103.9z
		 M66.8,136.9c0-0.1,0.1-0.2,0.1-0.3c-0.5-0.6-8.9-3.8-10.6-3.9c1.7,0.9,3.3,1.9,5,2.6C63,136,64.9,136.4,66.8,136.9z M94,19.5
		c-1.4-0.7-10.4-0.9-11.3,0C86.6,19.5,90.3,19.5,94,19.5z M128.5,90.7c0.6-1.6,1-9,0.6-9.8C128.9,84.1,128.7,87.4,128.5,90.7z
		 M83.8,136.1c0-0.1,0-0.1,0-0.2c-2.4,0-4.7,0-7.1,0c0,0.1,0,0.1,0,0.2C79,136.1,81.4,136.1,83.8,136.1z M138.5,94.8
		c-0.1,0-0.1-0.1-0.2-0.1c-0.8,2-1.6,4-2.4,5.9c0.1,0,0.1,0.1,0.2,0.1C136.9,98.8,137.7,96.8,138.5,94.8z M100.1,130.6
		c0,0.1,0.1,0.2,0.1,0.2c1.4-0.7,2.9-1.4,4.3-2.1c0-0.1-0.1-0.2-0.1-0.2c-1.2,0.6-2.5,1.2-3.7,1.8
		C100.5,130.4,100.3,130.5,100.1,130.6z"/>
	<path d="M51.4,84c0.6,0.3,1.2,0.4,1.6,0.7c0.4,0.3,0.5,0.9,0.8,1.3c0.9,1.4,1.9,2.8,2.8,4.2c0.3,0.4,0.6,0.4,0.9,0.1
		c1.4-1.4,2.9-2.7,4.3-4.2c0.3-0.3,0.4-0.9,0.4-1.3c0.3-3,0.5-6.1,0.7-9.1c0.2-2.3,0.3-4.5,0.4-6.8c0.1-0.9,0.3-1.7,0.5-2.6
		c0.6-2.1,2.3-2.9,4.2-3.6c1.7-0.6,3.5-1.2,5.1-2c2.4-1.2,3.5-3.6,3-6.3c0-0.2-0.2-0.4-0.2-0.6c-0.3-0.6-0.6-1.2-1-1.8
		c-0.2-0.3-0.4-0.6-0.7-0.8c-0.8-0.5-1-1.4-1.3-2.2c-0.1-0.4-0.2-0.9-0.1-1.3c0-0.3,0.3-0.7,0.5-0.8c0.6-0.1,0.5-0.5,0.5-0.9
		c0-1-0.1-2-0.1-3c0.2-2.3,1.5-3.7,3.6-4.5c2.3-0.9,4.5-0.4,6.4,1.2c0.9,0.8,1.4,1.8,1.5,3c0.1,1,0.1,2,0.1,3c0,0.4,0,0.7,0,1.1
		c1,0.3,1.2,0.5,1,1.5c-0.2,1.1-0.5,2.3-1.7,2.9c0,0-0.1,0-0.1,0.1c-0.6,1.5-1.9,2.7-1.7,4.5c0.1,1.8,0.9,3.2,2.3,4.3
		c1.5,1.1,3.3,1.8,5.1,2.2c3.5,0.8,5.6,3.3,5.8,6.9c0.1,1.3,0,2.5,0.1,3.8c0.1,1.3,0.2,2.7,0.3,4c0.2,2.5,0.4,5,0.5,7.5
		c0,0.8,0.3,1.5,0.9,2.1c1.7,1.5,3.3,3.1,5,4.6c0.8,0.8,1.5,1.7,2.4,2.4c0.8,0.7,1.6,1.3,2.5,1.8c0.3,0.2,0.9,0.2,1.3,0
		c1.2-0.4,2.4-0.9,3.6-1.3c0.7-0.2,1.5-0.3,2.3-0.4c0.2,0,0.6,0.3,0.8,0.5c0.5,0.6,0.8,1.4,0.7,2.2c0,0.3,0,0.7,0.2,1.1
		c0.3-0.3,0.5-0.6,0.8-0.8c0.3-0.2,0.6-0.3,0.9-0.5c0,0.3,0,0.7-0.1,1c-0.4,1.2-1.5,1.6-2.5,2.1c-1.4,0.7-3,1-4.6,0.6
		c-1-0.2-1.9-0.6-2.9-1.1c-1.8-0.9-3.6-1.8-5.3-2.7c-1.7-0.9-3.3-1.8-4.9-2.9c-1.4-0.9-2.8-2-4.1-3.1c-1-0.8-1.6-1.9-1.8-3.2
		c-0.3-2.3-0.8-4.6-1.1-6.9c-0.1-1.1,0-2.3,0.3-3.5c0.4-1.5,0.9-3,1.4-4.5c0-0.1,0.1-0.3,0.1-0.4c0-0.2-0.1-0.4-0.2-0.6
		c-0.2,0.1-0.5,0.2-0.5,0.3c-0.4,0.9-0.9,1.8-1.2,2.7c-0.9,2.8-1.8,5.7-2.4,8.6c-0.7,3.1-0.8,6.2,0.5,9.2c0.9,2,2.1,3.7,3.7,5.2
		c0.2,0.2,0.7,0.3,1.1,0.3c2.5,0.1,4.9-0.1,7.4,0.1c2.4,0.2,4.9,0.5,7.1,1.9c1.2,0.8,2.2,1.8,2.4,3.3c0.1,1.3-0.3,2.5-1.1,3.6
		c-0.9,1.3-2.2,2.1-3.7,2.6c-1.8,0.6-3.6,1.1-5.5,1c-1.6-0.1-3.3-0.4-4.9-0.7c-1.5-0.3-3-0.6-4.4-0.9c-3.1-0.8-6.1-1.6-9.2-2.4
		c-0.6-0.2-1.3-0.5-1.9-0.5c-0.5,0-1,0.1-1.5,0.3c-2.2,0.6-4.4,1.2-6.6,1.8c-3,0.7-6.1,1.5-9.1,2.1c-1.9,0.4-3.9,0.6-5.8,0.4
		c-2.8-0.4-5.4-1.3-7.3-3.5c-1.1-1.2-1.4-2.7-0.7-4.2c0.4-0.8,1.1-1.5,1.8-2c1-0.6,2.1-1.2,3.2-1.5c3.6-1,7.2-1.3,10.9-1.1
		c1.3,0.1,2.2-0.1,3-1.3c1.8-2.5,3.3-5.1,3.4-8.3c0.1-1.2,0-2.3-0.2-3.5c-0.4-2.1-0.8-4.1-1.3-6.2c-0.3-1.4-0.8-2.8-1.3-4.1
		c-0.3-0.8-0.6-1.6-1-2.4c-0.1-0.2-0.4-0.4-0.6-0.5c-0.1,0.3-0.3,0.6-0.2,0.8c0.5,1.8,1.2,3.5,1.7,5.3c0.2,1,0.2,2,0.1,3
		c-0.4,2.6-0.9,5.1-1.4,7.6c-0.3,1.4-1.4,2.3-2.5,3.2c-1.4,1-2.8,2.1-4.3,3.1c-1.5,0.9-3,1.7-4.5,2.6c-1.5,0.9-3.3,1.4-4.6,2.7
		c-0.3,0.3-0.8,0.4-1.2,0.5c-2.7,0.6-5.2,0-7.4-1.7c-0.5-0.4-0.6-1.1-0.9-1.7c0,0,0.3-0.3,0.4-0.3c0.3,0.1,0.5,0.4,0.7,0.5
		c0.4,0.3,0.7,0.6,1.1,1c0.1,0,0.1-0.1,0.2-0.1c-0.1-0.3-0.1-0.5-0.2-0.8c-0.4-1,0.1-2.4,0.9-3c0.1-0.1,0.3-0.1,0.4-0.1
		c1.7,0.2,3.4,0.6,5,1.4c0.4,0.2,0.9,0.3,1.3,0.4c0.2,0,0.6,0,0.8-0.1c1.6-0.9,2.9-2.2,4.2-3.5c0.4-0.4,0-0.8-0.3-1.1
		c-1.5-1.5-2.5-3.4-3.6-5.2C51.8,85.1,51.6,84.5,51.4,84z M46,97.7c0.9,0,1.4-0.4,1.3-1c-0.1-0.5-1.8-1.8-2.3-1.7c0,0-0.1,0-0.1,0
		c-0.4,0.2-0.8,1.1-0.6,1.5C44.6,97.2,45.3,97.7,46,97.7z M113.6,97.8c0.5-0.3,1.1-0.6,1.5-1c0.4-0.4,0.4-0.9,0-1.4
		c-0.3-0.4-0.8-0.6-1.3-0.3c-0.3,0.2-0.5,0.3-0.8,0.5c-0.5,0.3-0.8,0.7-0.7,1.3C112.4,97.6,113,97.6,113.6,97.8z"/>
	<path d="M129.1,24.1c-0.2-0.1-0.4-0.1-0.6-0.2c-3-2.1-5.9-4.2-8.9-6.2c-1.4-0.9-3-1.5-4.4-2.5c-0.8-0.6-1.6-1.3-2.5-1.6
		c-1.2-0.4-2.3-0.7-3.5-1.1c-1.1-0.4-2.2-0.8-3.3-1.1c-2.6-0.7-5.1-1.4-7.7-1.9c-3.1-0.6-6.3-1.1-9.5-1.3C85.6,7.9,82.5,8,79.4,8
		c-0.7,0-1.4,0.1-2.1,0.3c0.1,0,0.3,0.1,0.4,0.1c0.8,0.1,1.5,0.2,2.3,0.2c0.7,0,1.5-0.2,2.2-0.2c1.6,0,3.1,0.1,4.7,0.1
		c0.6,0,1.1,0.3,1.7,0.4c3.3,0.6,6.5,1.1,9.8,1.7c0.8,0.1,1.5,0.4,2.3,0.7c0,0.1,0,0.1,0,0.2c-0.4,0-0.7,0-1.1-0.1
		c-1.3-0.3-2.6-0.6-3.9-0.8c-1.9-0.3-3.8-0.6-5.7-0.8c-2.9-0.2-5.7-0.4-8.6-0.5c-1.9,0-3.9,0-5.8,0.4c-1.5,0.4-3,0.4-4.5,0.7
		c-1.2,0.2-2.3,0.5-3.5,0.8c-1.8,0.4-3.6,0.8-5.4,1.4c-2.2,0.7-4.4,1.6-6.5,2.4c-0.9,0.3-1.8,0.7-2.7,1c0.5-0.3,1.1-0.6,1.6-0.9
		c-1.2,0.3-2.4,0.8-3.5,1.3c-2,1-3.9,2-5.8,3l0,0c0.2-0.2,0.3-0.4,0.5-0.5c4.3-2.4,8.5-5,13.6-5.8c2.1-0.3,4.1-1.2,6.1-1.8
		c1.7-0.5,3.3-1,5-1.5c1-0.3,2-0.4,3-0.6c-0.2-0.1-0.3-0.1-0.5-0.1c-3.7,0.7-7.4,1.4-11,2.3c-2.8,0.7-5.7,1.6-8.4,2.6
		c-2.3,0.9-4.5,2.2-6.7,3.4c-4.9,2.8-9.3,6.1-13.4,10c-3.7,3.5-7,7.4-9.8,11.8c0,0,0,0,0-0.1c0,0,0,0,0-0.1
		c-0.1,0.1-0.3,0.1-0.4,0.3c-0.9,1.6-1.9,3.3-2.8,4.9c-0.1,0.1,0,0.3-0.1,0.4c-0.9,1.8-1.8,3.6-2.7,5.3c-0.4,0.9-0.7,1.9-1.1,2.8
		c0,0.1-0.1,0.1-0.1,0.2c-0.5,1.1-1,2.2-1.4,3.3c-1,2.6-1.9,5.2-2.3,8c-0.7,4-0.9,8.1-0.5,12.2c0.2,2.6,0.8,5.2,1.2,7.8
		c0.2,1.1,0.4,2.2,0.6,3.4c-0.1,0-0.1,0-0.2,0c-0.8-3.5-1.6-7-2.3-10.5c0,0-0.1,0-0.1,0c0.1,1.1,0.2,2.1,0.3,3.2
		c0.3,2.3,0.5,4.6,0.9,6.9c0.4,2.4,1,4.8,1.6,7.2c1,3.8,2.6,7.4,4.4,10.9c2.1,4,4.4,7.9,7.1,11.7c0.2,0.3,0.4,0.7,0.7,1
		c1.1,1.2,2.2,2.5,3.3,3.7c0,0,0.1,0,0.4,0.2c-2.4-4-4.7-7.8-7-11.7c0.1,0,0.1-0.1,0.2-0.1c0.6,0.9,1.2,1.7,1.8,2.6
		c1.8,2.8,3.6,5.7,5.5,8.4c2,2.8,4.2,5.4,6.9,7.6c1.5,1.3,2.8,2.7,4.3,4c1.2,1,2.5,1.8,3.7,2.8c0.7,0.6,1.4,1.2,2.1,2
		c-0.7-0.4-1.4-0.7-2-1.1c-3.2-1.9-5.9-4.4-8.8-6.7c-3.9-3.1-7.2-6.7-10.3-10.6c-2.6-3.3-4.7-6.9-6.6-10.7c-1-1.9-2.1-3.7-3-5.6
		c-1.1-2.4-2.1-4.7-3.1-7.2c-0.7-1.8-1.4-3.6-1.9-5.4c-0.7-2.6-1.1-5.3-1.6-7.9c-0.8-4.5-0.7-9-0.6-13.6c0.1-1.9,0-3.9,0.3-5.8
		c0.4-2.6,0.9-5.2,1.5-7.8c0.9-3.9,2.4-7.6,4-11.3c0.8-1.8,1.8-3.6,2.8-5.4c1.8-3.2,3.8-6.2,6-9.1c3.2-4.1,6.9-7.8,11-11.1
		c3-2.5,6.3-4.6,9.7-6.6c4.6-2.6,9.4-4.9,14.4-6.5c2.6-0.8,5.3-1.5,8-2.1c1.6-0.4,3.2-0.7,4.9-0.9C73.7,2.1,75,2,76.4,2
		c2.8-0.1,5.6-0.2,8.3-0.1c2.5,0.1,5,0.4,7.4,0.8C94.5,3,96.9,3.4,99.3,4c2.3,0.6,4.5,1.3,6.8,2.1c1.2,0.4,2.3,0.9,3.4,1.5
		c-22-8.3-43-5.8-63.3,5.3c0,0.1,0,0.2,0.1,0.3c0.2-0.1,0.4-0.2,0.6-0.3c6.6-3.5,13.6-5.9,20.9-7.4c3.9-0.8,7.8-1.1,11.8-1.3
		c3.9-0.2,7.8,0.1,11.6,0.5c4,0.4,7.9,1.3,11.8,2.5c3.4,1.1,6.8,2.4,10,3.9c4.2,2,8.2,4.3,12,7c4.2,3,7.9,6.4,11.2,10.4
		c0.3,0.3,0.5,0.6,0.7,1c0.2,0.3,0.2,0.6,0.3,1.1c-6-7.2-13.4-12.4-21.6-16.6c0.1,0.1,0.2,0.2,0.4,0.3c4.5,2.5,8.6,5.5,12.3,9.1
		C128.5,23.6,128.8,23.9,129.1,24.1L129.1,24.1z M17.7,47.6c-2,4.2-3.5,8.5-4.4,13C14.8,56.2,16.2,51.9,17.7,47.6z"/>
	<path d="M102.9,67.3c0.6,1.1,1.3,2.1,1.9,3.2c0.1,0,0.1,0,0.2,0c0-0.3,0.1-0.7,0-0.9c-0.4-1.5-1.1-2.7-2.1-3.9
		c-1.4-1.7-2.9-3.3-4.7-4.6c-0.1-0.1-0.2-0.2-0.3-0.3c0-0.1,0.1-0.1,0.1-0.2c0.5,0.2,1,0.4,1.5,0.6c0.5,0.3,0.9,0.6,1.4,1
		c-0.1-0.6-1.1-1.6-2.6-2.5c-1-0.7-2.1-1.3-3.2-1.9c-1.1-0.5-2.3-0.9-3.4-1.5c0.5,0.1,1.1,0.1,1.6,0.3c4.1,1.5,7.7,3.7,10.6,7.1
		c0.6,0.7,1,1.4,1.6,2.1c0.1,0.1,0.2,0.2,0.4,0.2c-0.2-0.5-0.4-1.1-0.6-1.6c-0.1-0.2,0-0.4,0-0.6c0.2,0.1,0.4,0.1,0.5,0.3
		c1.1,1.7,2,3.5,2.4,5.5c0.4,2.3,0.5,4.5,0.9,6.8c0.5,3.3-0.3,6.3-1.5,9.2c-0.6,1.4-1.2,2.1-2.2,2.8c0.3-0.7,0.6-1.1,0.8-1.7
		c0.5-1.4,1.1-2.8,1.4-4.3c0.2-0.8,0-1.6,0.1-2.4c0.4-2.5,0-4.9-0.3-7.3c0-0.1-0.1-0.3-0.2-0.5c-0.1,0.1-0.2,0.2-0.2,0.3
		c-0.2-0.4-0.3-0.8-0.5-1.2c-0.1-0.2-0.3-0.2-0.4-0.4c-0.1,0.2-0.3,0.4-0.3,0.6c0,1.1,0,2.2,0,3.3c0,0.6,0,1.1,0,1.7
		c0,0.8,0,1.7-0.1,2.5c-0.2,1.1-0.5,2.1-0.8,3.2c0.7-2.5,0.3-4.9,0-7.4c-0.3-2.5-1.4-4.7-2.2-7C102.7,67.4,102.8,67.3,102.9,67.3z"
		/>
	<path d="M16.6,53.1c0-0.1,0.1-0.1,0.1-0.2c0.4-0.9,0.7-1.9,1.1-2.8c0.9-1.8,1.8-3.6,2.7-5.3c1-1.6,1.9-3.2,2.9-4.8
		c0,0.1,0,0.2-0.1,0.4c0.1,0,0.1,0.1,0.2,0.1c0.4-0.4,0.9-0.8,1.3-1.3c0.7-0.9,1.3-1.9,2-2.8c4.5-5.7,9.5-10.7,15.6-14.6
		c3.2-2,6.5-4,10.1-5.4c-1,0.6-1.9,1.1-2.9,1.7c-1.4,0.8-2.9,1.5-4.3,2.4c-2.4,1.6-4.9,3.3-7.2,5.1c-3.7,2.9-6.8,6.4-9.7,10.1
		c-0.1,0.1-0.2,0.3-0.4,0.4c0.4-0.5,0.8-1.1,1.2-1.6c-0.8,0.3-4.5,5.6-6.3,8.7c-1.8,3.2-3.4,6.4-4.7,9.7c-1.3,3.4-2.4,6.8-3.1,10.5
		C15.1,63.1,15,63,15,62.9c0,0-0.1,0-0.1,0c-0.3,1.8-0.7,3.6-1,5.4c0.2-5.7,2-11.1,3.9-16.5c-0.1,0-0.2-0.1-0.3-0.1
		c-1.1,3.1-2.1,6.2-3.2,9.4c0.3-1,0.5-1.9,0.7-2.8c0.2-0.9,0.5-1.8,0.7-2.6C16,54.8,16.3,53.9,16.6,53.1z"/>
	<path d="M34.3,95.4c2.8,5.3,6.3,10.1,10.7,13.9c4.5,3.8,9.1,7.4,14.9,9.1c-0.2,0-0.4-0.1-0.6-0.1c-0.2,0-0.4,0-0.5,0
		c0,0.1,0,0.1-0.1,0.2c1.3,0.5,2.6,1,3.8,1.5c0,0-0.1,0-0.1,0c-0.1,0-0.2,0-0.3,0c-2.2-0.1-4.2-0.8-6.2-1.7
		c-3.7-1.7-7.2-3.8-10.3-6.4c-3.7-3.1-6.6-6.7-8.9-10.9c-0.8-1.5-1.5-3.1-2.2-4.6C34.4,96,34.4,95.7,34.3,95.4z"/>
	<path d="M58.9,58.2c0,0.2-0.1,0.4-0.1,0.7c2-1.3,3.9-2.4,6-3.1c-1.7,1.2-3.5,2.3-5.2,3.5c-0.9,0.7-1.8,1.5-2.6,2.4
		c-0.8,0.8-1.5,1.6-2.7,1.7C54.3,62.4,57.5,58.7,58.9,58.2z"/>
	<path d="M133.7,114.5c2.7-3.8,5-8,7.1-12.2c1.1-2.2,2-4.5,2.5-6.9c0-0.1,0.1-0.2,0.1-0.3c0,0,0.1,0,0.3-0.1
		c-0.2,0.8-0.2,1.6-0.5,2.2c-0.7,1.8-1.3,3.7-2.1,5.5c-1.8,4.1-4.1,8-7,11.5C134.1,114.4,133.8,114.4,133.7,114.5L133.7,114.5z"/>
	<path d="M34,112.5c3.2,2.7,6.5,5.3,9.7,8c0,0.1-0.1,0.1-0.1,0.2c-3.7-2.1-7.2-4.5-9.8-8C33.9,112.6,33.9,112.6,34,112.5z"/>
	<path d="M41.5,52.7c-1.1,2.5-2.3,5.1-3.4,7.8c-1,2.7-1.8,5.5-2.6,8.1C35.7,63.9,38.7,55.7,41.5,52.7z"/>
	<path d="M144.1,54.4c-1.4-3-2.8-5.9-4.1-8.9C141.8,48.3,143.2,51.3,144.1,54.4z"/>
	<path d="M68.3,53.4c-2.4,1-4.9,2.1-7.5,3.2c0-0.1,0-0.1-0.1-0.2C63.1,54.9,65.7,53.9,68.3,53.4z"/>
	<path d="M9.7,88.9c0.4,2,0.9,4,1.3,6c-0.1,0-0.2,0-0.3,0.1c-0.6-2-1.1-4-1.4-6C9.5,88.9,9.6,88.9,9.7,88.9z"/>
	<path d="M56.4,66.8c-0.8,1.7-1.6,3.3-2.3,4.9C53.6,70.8,55,67.8,56.4,66.8z"/>
	<path d="M50.7,60.3c-0.1,1-1.6,3.6-2.3,4.1C49,63,49.7,61.7,50.7,60.3z"/>
	<path d="M114.5,84.2c-0.2,1.5-1,2.9-2,4.1c0.6-1.4,1.2-2.8,1.8-4.2C114.4,84.2,114.5,84.2,114.5,84.2z"/>
	<path d="M15.6,107.9c0.4,0.6,0.9,1.3,1.2,1.9c0.7,1.2,1.4,2.4,2,3.6c0,0-0.1,0.1-0.1,0.1c-0.4-0.6-0.7-1.2-1.1-1.8
		c-0.6-1.1-1.3-2.2-1.9-3.3C15.7,108.3,15.7,108.1,15.6,107.9C15.6,107.8,15.6,107.9,15.6,107.9z"/>
	<path d="M32.1,85.2c0.2,1.3,0.4,2.6,0.6,3.9c-0.6-1.2-1-2.5-0.8-3.8C32,85.2,32,85.2,32.1,85.2z"/>
	<path d="M31.8,80.8c0,1.1,0,2.3,0,3.5C31.3,83.6,31.3,81.5,31.8,80.8z"/>
	<path d="M50.5,90.2c-0.6-0.9-1.2-1.8-1.7-2.8c0.7,0,1.6,1.4,1.9,2.6C50.6,90.1,50.6,90.1,50.5,90.2z"/>
	<path d="M46,45c0.9-0.9,1.7-1.7,2.6-2.6c0.1,0,0.1,0.1,0.2,0.1c-0.9,0.9-1.7,1.8-2.6,2.7C46.1,45.2,46,45.1,46,45z"/>
	<path d="M41.7,122.9c0.7,0.8,1.3,1.5,2,2.3c-1-0.4-1.5-1.4-2.1-2.1C41.6,123,41.6,123,41.7,122.9z"/>
	<path d="M21.7,116.7c-0.6-0.9-1.3-1.9-1.9-2.8c0.1,0,0.1-0.1,0.2-0.1c0.6,0.9,1.3,1.9,1.9,2.8C21.8,116.6,21.7,116.7,21.7,116.7z"
		/>
	<path d="M133.7,114.5c-0.3,0.4-0.5,0.9-0.8,1.3c-0.3,0.4-0.7,0.8-1,1.2c-0.1,0-0.1-0.1-0.2-0.1C132.3,116.1,133,115.3,133.7,114.5
		C133.7,114.5,133.7,114.5,133.7,114.5z"/>
	<path d="M9.2,86.3c0.1,0.6,0.1,1.3,0.2,1.9c-0.1,0-0.2,0-0.3,0c-0.1-0.6-0.1-1.3-0.2-1.9C9,86.3,9.1,86.3,9.2,86.3z"/>
	<path d="M15.6,107.8c-0.6-0.9-1.1-1.8-1.7-2.8c0.1,0,0.2-0.1,0.3-0.1C14.6,105.9,15.1,106.9,15.6,107.8
		C15.6,107.9,15.6,107.8,15.6,107.8z"/>
	<path d="M110.8,85c0.2-0.6,0.5-1.2,0.7-1.9c0.1,0,0.1,0,0.2,0.1c-0.2,0.6-0.4,1.3-0.7,1.9C111,85.1,110.9,85,110.8,85z"/>
	<path d="M115.5,78.3c0,0.7,0,1.4,0,2.1c-0.1,0-0.1,0-0.2,0c0-0.7,0-1.4,0-2.1C115.4,78.3,115.4,78.3,115.5,78.3z"/>
	<path d="M17.3,109.1c0.3,0.5,0.6,1,0.8,1.5c-0.1,0-0.1,0.1-0.2,0.1c-0.3-0.5-0.6-1-0.8-1.5C17.1,109.2,17.2,109.2,17.3,109.1z"/>
	<path d="M114.5,22c-0.3-0.1-0.5-0.2-0.8-0.4c-0.3-0.1-0.5-0.3-0.8-0.4c0-0.1,0-0.1,0.1-0.2c0.5,0.2,1.1,0.5,1.6,0.7
		C114.6,21.9,114.6,21.9,114.5,22z"/>
	<path d="M22.4,79.4c-0.1-1-0.1-2-0.2-3.1c0.1,0,0.1,0,0.2,0C22.4,77.4,22.4,78.4,22.4,79.4C22.4,79.4,22.4,79.4,22.4,79.4z"/>
	<path d="M129,24.1c0.3,0.3,0.7,0.6,1,0.9c-0.1,0.1-0.2,0.1-0.3,0.2C129.5,24.8,129.3,24.5,129,24.1C129.1,24.1,129,24.1,129,24.1z"
		/>
	<path d="M45.4,19.5c-0.9,0.6-1.9,1.2-2.8,1.8c0,0-0.1-0.1-0.1-0.1C43.4,20.6,44.4,20,45.4,19.5C45.4,19.5,45.4,19.5,45.4,19.5z"/>
</g>
</svg>
