<?xml version="1.0" encoding="utf-8"?>
<!-- Generator: Adobe Illustrator 26.0.3, SVG Export Plug-In . SVG Version: 6.00 Build 0)  -->
<!DOCTYPE svg PUBLIC "-//W3C//DTD SVG 1.1//EN" "http://www.w3.org/Graphics/SVG/1.1/DTD/svg11.dtd" [
	<!ENTITY ns_extend "http://ns.adobe.com/Extensibility/1.0/">
	<!ENTITY ns_ai "http://ns.adobe.com/AdobeIllustrator/10.0/">
	<!ENTITY ns_graphs "http://ns.adobe.com/Graphs/1.0/">
	<!ENTITY ns_vars "http://ns.adobe.com/Variables/1.0/">
	<!ENTITY ns_imrep "http://ns.adobe.com/ImageReplacement/1.0/">
	<!ENTITY ns_sfw "http://ns.adobe.com/SaveForWeb/1.0/">
	<!ENTITY ns_custom "http://ns.adobe.com/GenericCustomNamespace/1.0/">
	<!ENTITY ns_adobe_xpath "http://ns.adobe.com/XPath/1.0/">
]>
<svg version="1.1" id="Слой_1" xmlns:x="&ns_extend;" xmlns:i="&ns_ai;" xmlns:graph="&ns_graphs;"
	 xmlns="http://www.w3.org/2000/svg" xmlns:xlink="http://www.w3.org/1999/xlink" x="0px" y="0px" viewBox="0 0 152.2 141.7"
	 style="enable-background:new 0 0 152.2 141.7;" xml:space="preserve">
<style type="text/css">
	.st0{fill:#FFFFFF;}
	.st1{clip-path:url(#SVGID_00000060711994695017387970000009510696193657361580_);}
	.st2{clip-path:url(#SVGID_00000150100434331918314560000009989468524218696588_);}
	.st3{clip-path:url(#SVGID_00000067941557297958492430000017929323042617658812_);fill:#9432BF;}
	.st4{clip-path:url(#SVGID_00000067941557297958492430000017929323042617658812_);fill:#FFFEFF;}
</style>
<metadata>
	<sfw  xmlns="&ns_sfw;">
		<slices></slices>
		<sliceSourceBounds  bottomLeftOrigin="true" height="1040.5" width="1077.6" x="-949.1" y="-241.5"></sliceSourceBounds>
	</sfw>
</metadata>
<g>
	<path class="st0" d="M-949.1,248.8c0-37.2,0-74.4,0-111.6c82,0,164,0,246,0c0,82,0,164,0,246c-82,0-164,0-246,0
		c0-35.5,0-71,0-106.6c0.1,0.2,0.2,0.4,0.3,0.6c0.8,4.3,1.4,8.7,2.4,13c0.8,3.5,2,6.9,3.1,10.3c0.7,2.2,1.4,4.4,2.2,6.5
		c0.8,2.2,1.5,4.3,2.3,6.4c0.1,0,0.2-0.1,0.3-0.1c-0.3-0.8-0.6-1.6-0.9-2.4c-2.8-8.6-5.8-17.2-7.1-26.3c-0.5-3.5-1.2-6.9-1.6-10.4
		c-0.3-2.3-0.4-4.7-0.2-7.1c0.5-7.1,1-14.3,1.8-21.4c0.4-4,1.2-8.1,2.1-12c1.8-7.5,4.1-14.9,7.3-22c2.5-5.6,4.9-11.2,8.9-16
		c1.9-2.3,3.3-5.1,5.1-7.5c2-2.7,4-5.5,6.3-8c3.2-3.5,6.6-6.9,10.1-10.1c3.6-3.2,7.5-6.2,11.3-9.1c3-2.3,6.2-4.3,9.4-6.3
		c2.4-1.5,4.8-2.9,7.3-4.1c2.9-1.5,5.8-2.9,8.8-4.2c2.8-1.3,5.7-2.5,8.6-3.5c3.3-1.1,6.6-2,9.9-3.1c1-0.3,2-0.8,3-1.1
		c-0.5-0.1-1.1-0.2-1.5,0c-3.7,1-7.4,2.1-11,3.2c-8.1,2.5-15.7,5.9-23.1,10c-7.8,4.3-15,9.5-21.8,15.3c-7.4,6.3-13.9,13.4-19.6,21.3
		c-5.9,8.1-10.6,16.8-14.5,26.1c-3.7,9-6,18.4-7.9,27.9C-948.3,244.7-948.7,246.8-949.1,248.8z M-933.5,323.5
		c-0.8-1.7-1.7-3.4-2.5-5.1c-0.2,0.1-0.3,0.2-0.5,0.3C-935.5,320.3-934.5,321.9-933.5,323.5c0.1,0.3,0.2,0.8,0.3,1.1
		c1.1,1.9,2.2,3.8,3.3,5.7c0.6,1,1.2,2,1.8,3.1c0.1-0.1,0.2-0.1,0.3-0.2c-1.2-2.1-2.3-4.2-3.6-6.3
		C-932.1,325.7-932.8,324.6-933.5,323.5z M-727.7,335.1c0.3-0.2,0.7-0.3,0.9-0.5c4.9-6.2,8.9-12.9,12.1-20.1
		c1.4-3.1,2.5-6.3,3.7-9.6c0.4-1.2,0.5-2.5,0.8-3.9c-0.3,0.2-0.4,0.2-0.5,0.2c-0.1,0.2-0.2,0.4-0.2,0.6c-1,4.2-2.5,8.3-4.4,12.1
		C-719,321.2-722.9,328.5-727.7,335.1c-1.2,1.4-2.3,2.8-3.5,4.2c0.1,0.1,0.2,0.2,0.3,0.2c0.6-0.7,1.3-1.3,1.8-2.1
		C-728.6,336.7-728.2,335.9-727.7,335.1z M-869.1,163.8c0.3-0.1,0.7-0.3,1-0.4c1.6-0.6,3.1-1.1,4.7-1.7c3.8-1.4,7.6-3,11.4-4.3
		c3.1-1,6.2-1.7,9.4-2.4c2-0.5,4-1,6.1-1.4c2.6-0.5,5.3-0.6,7.9-1.2c3.4-0.8,6.7-0.8,10.1-0.8c5,0.1,10,0.4,14.9,0.9
		c3.3,0.3,6.6,0.8,9.9,1.4c2.3,0.4,4.5,1,6.8,1.4c0.6,0.1,1.3,0.1,1.9,0.2c0-0.1,0-0.2,0-0.3c-1.3-0.4-2.6-0.9-4-1.1
		c-5.7-1-11.4-1.9-17.1-2.9c-1-0.2-2-0.6-3-0.6c-2.7-0.2-5.4-0.2-8.1-0.3c-1.3,0-2.6,0.3-3.9,0.3c-1.3,0-2.7-0.3-4-0.4
		c-0.2,0-0.5-0.1-0.7-0.2c1.2-0.4,2.4-0.6,3.6-0.6c5.4,0,10.7-0.1,16,0.3c5.6,0.5,11.1,1.3,16.6,2.3c4.5,0.8,9,2.1,13.5,3.3
		c2,0.5,3.8,1.3,5.8,1.9c2,0.7,4.1,1.2,6.1,1.9c1.7,0.6,3,1.8,4.4,2.8c2.4,1.6,5.2,2.7,7.6,4.3c5.2,3.5,10.3,7.2,15.5,10.8
		c0.3,0.2,0.7,0.3,1.1,0.4c0.4,0.7,0.9,1.3,1.3,2c0.1-0.1,0.3-0.3,0.4-0.4c-0.6-0.5-1.2-1-1.8-1.5c-0.5-0.4-0.9-0.9-1.4-1.3
		c-6.5-6.1-13.7-11.4-21.5-15.8c-0.2-0.1-0.4-0.3-0.6-0.5c14.3,7.2,27.2,16.3,37.6,28.9c-0.2-0.8-0.3-1.4-0.6-2
		c-0.3-0.6-0.8-1.2-1.2-1.7c-5.6-7-12.2-13-19.5-18.2c-6.6-4.7-13.6-8.8-20.9-12.2c-5.7-2.6-11.5-4.9-17.5-6.7
		c-6.7-2.1-13.6-3.6-20.6-4.4c-6.7-0.7-13.4-1.2-20.2-0.9c-6.9,0.3-13.8,1-20.6,2.3c-12.8,2.5-25,6.7-36.4,12.9
		c-0.3,0.2-0.6,0.3-1,0.4c0-0.2-0.1-0.4-0.1-0.6c35.3-19.3,72-23.7,110.3-9.2c-2-1-3.9-1.9-6-2.5c-3.9-1.3-7.8-2.6-11.8-3.6
		c-4.1-1-8.3-1.8-12.4-2.4c-4.3-0.6-8.6-1.2-13-1.3c-4.8-0.2-9.7,0.1-14.5,0.2c-2.3,0.1-4.7,0.2-7,0.5c-2.8,0.4-5.7,0.9-8.5,1.6
		c-4.7,1.1-9.3,2.3-13.9,3.7c-8.8,2.7-17.2,6.7-25.2,11.3c-5.9,3.4-11.6,7.1-16.8,11.4c-7,5.8-13.5,12.2-19.1,19.4
		c-3.9,5-7.4,10.3-10.5,15.8c-1.7,3.1-3.4,6.2-4.8,9.4c-2.8,6.4-5.5,12.9-7,19.7c-1,4.5-1.9,9.1-2.5,13.6c-0.5,3.4-0.4,6.8-0.5,10.2
		c-0.2,7.9-0.4,15.8,1,23.7c0.8,4.6,1.7,9.3,2.8,13.8c0.8,3.2,2,6.4,3.3,9.5c1.7,4.2,3.5,8.4,5.4,12.5c1.6,3.3,3.5,6.6,5.2,9.8
		c3.4,6.5,7,12.8,11.5,18.6c5.4,6.8,11.1,13.1,18,18.5c5.1,4,9.8,8.3,15.4,11.6c1.2,0.7,2.4,1.3,3.6,2c-1.1-1.3-2.3-2.4-3.6-3.4
		c-2.1-1.6-4.4-3.1-6.4-4.8c-2.6-2.2-4.9-4.8-7.6-7c-4.6-3.9-8.6-8.4-12-13.3c-3.4-4.8-6.4-9.8-9.6-14.7c-1-1.6-2.1-3.1-3.2-4.6
		c-0.1,0.1-0.2,0.1-0.3,0.2c4,6.7,8.1,13.4,12.3,20.3c-0.4-0.2-0.6-0.2-0.6-0.3c-1.9-2.1-3.9-4.3-5.8-6.5c-0.5-0.5-0.8-1.2-1.2-1.7
		c-4.6-6.5-8.6-13.3-12.3-20.4c-3.2-6.1-5.9-12.4-7.7-19c-1.1-4.1-2-8.3-2.8-12.6c-0.7-4-1.1-8.1-1.7-12.1c-0.2-1.8-0.4-3.7-0.6-5.5
		c0.1,0,0.1,0,0.2,0c1.4,6.1,2.7,12.2,4.1,18.3c0.1,0,0.2,0,0.3-0.1c-0.3-2-0.7-3.9-1-5.9c-0.7-4.5-1.8-9-2.2-13.6
		c-0.7-7.1-0.2-14.2,0.9-21.3c0.8-4.8,2.3-9.4,4.1-14c0.7-1.9,1.6-3.8,2.4-5.7c-0.5,1.5-1.1,3.1-1.6,4.6c-0.5,1.5-0.9,3.1-1.3,4.6
		c-0.4,1.5-0.8,3-1.3,4.8c1.9-5.6,3.7-11,5.6-16.4c0.2,0.1,0.3,0.1,0.5,0.2c-3.3,9.3-6.4,18.7-6.8,28.7c0.6-3.1,1.2-6.2,1.8-9.3
		c0.1,0,0.2,0,0.3,0c0.1,0.2,0.1,0.3,0.3,0.6c1.2-6.4,3.1-12.4,5.4-18.2c2.3-5.9,5.1-11.5,8.2-17c3.1-5.5,9.6-14.6,11-15.2
		c-0.7,1-1.4,1.9-2.1,2.9c0.3-0.1,0.5-0.4,0.7-0.6c5.1-6.4,10.4-12.6,17-17.7c4.1-3.1,8.3-6.1,12.5-9c2.4-1.6,4.9-2.8,7.4-4.2
		C-872.5,165.8-870.8,164.8-869.1,163.8z M-921.7,274c-0.2-0.4-0.6-0.8-0.6-1.3c-0.2-2.1-0.5-4.3-0.5-6.4c0-3.3,0.2-6.6,0.4-9.9
		c0.4-6,1.3-12,3.4-17.7c1.5-4.2,2.8-8.5,4.2-12.7c0.2-0.7,0.6-1.4,1-2.1c-0.1,0-0.1-0.1-0.2-0.1c-0.4,0.7-0.7,1.4-1.1,2
		c-0.1-0.1-0.3-0.1-0.4-0.2c1.5-3.3,3.1-6.7,4.6-10c0.1,0.1,0.3,0.1,0.4,0.2c-0.1,0.4-0.2,0.8-0.3,1.1c0.4-0.3,0.6-0.6,0.8-1
		c0.8-1.8,1.5-3.8,2.5-5.5c3.2-5.7,7.2-10.9,11.6-15.8c5.3-5.9,11.3-11.1,17.8-15.8c3.1-2.2,6.4-4.2,9.6-6.1c2.4-1.4,4.8-2.8,7.3-4
		c2.5-1.3,5.1-2.4,7.6-3.6c0.9-0.4,1.9-0.8,2.8-1.3c-0.3-0.2-0.6-0.2-0.8-0.1c-2.1,0.7-4.3,1.4-6.3,2.3c-7.4,3.3-14.7,6.9-21.4,11.5
		c-4.9,3.4-9.5,7.1-13.8,11.1c-5,4.8-9.6,10-13.5,15.7c-5.2,7.6-9.6,15.6-12.5,24.3c-1,3.1-2.2,6.1-3,9.2c-1,4.2-1.9,8.5-2.6,12.9
		c-0.6,3.9-0.9,7.8-1.2,11.7c-0.4,5.2,0.1,10.3,0.8,15.4c0.3,2.7,1,5.4,1.4,8.1c0.2,1.3,0.2,2.6,0.3,3.9c-0.1,0-0.3,0-0.4,0
		c-0.1-0.3-0.3-0.6-0.3-0.9c-1.8-6-3.4-12-4-18.2c-0.4-3.8-0.2-7.7-0.2-11.6c0-2.1,0.2-4.2,0.5-6.3c0.3-2.2,0.9-4.4,1.2-6.6
		c0.7-4.4,1.4-8.8,2.9-13.1c0.1-0.2,0-0.4,0-0.7c-3.3,6.7-4.3,13.8-5,20.9c-0.4,3.9-0.3,7.8-0.2,11.7c0,1.9,0.4,3.8,0.6,5.7
		c0.3,2.3,0.5,4.5,0.8,6.8c0,0.1-0.1,0.2-0.2,0.3c-0.2-0.4-0.3-0.7-0.5-1.1c0.3,7.9,9,33.5,12.9,37.3c-1.4-3.7-2.6-7.3-3.9-10.8
		c0.1,0,0.2-0.1,0.3-0.1c0.9,1.3,1.9,2.5,2.6,3.8c1.7,2.9,3.2,6,5.1,8.8c2.8,4.1,5.8,8.1,8.8,12.1c3.5,4.7,7.9,8.6,12.3,12.4
		c4,3.3,8.4,6.1,12.6,9.1c0.2,0.1,0.4,0.3,0.5,0.5c0,0.1-0.1,0.1-0.1,0.2c-0.5-0.2-1-0.3-1.6-0.5c1.3,1.1,2.7,1.9,4,2.9
		c2.3,1.6,3.4,2.2,4.2,1.9c-0.5-0.4-1-0.8-1.5-1.2c0.1-0.1,0.1-0.2,0.2-0.3c0.5,0.2,1,0.3,1.4,0.5c3,1.2,5.9,2.5,9,3.5
		c3.8,1.2,7.7,2.3,11.6,3.2c3.6,0.8,7.3,1.1,11,1.5c3.2,0.3,6.4,0.5,9.5,0.7c0.4,0,0.8-0.2,1.2-0.2c0-0.1,0-0.2,0-0.3
		c-6.1,0-12.1-0.6-18-2c0.8,0.1,1.6,0.1,2.4,0.2c-2.3-0.8-4.5-1.3-6.8-1.9c-2.3-0.6-4.5-1.3-6.8-2c0-0.1,0.1-0.3,0.1-0.4
		c0.9,0,1.9,0,2.8,0.1c4.6,0.6,9.1,1.5,13.7,1.8c7.6,0.5,15.3,0.7,22.9-0.5c3.2-0.5,6.4-1.1,9.5-1.8c3.2-0.7,6.4-1.6,9.6-2.6
		c1.7-0.5,3.2-1.4,4.8-2.1c0-0.1-0.1-0.1-0.1-0.2c-2.1,0.7-4.2,1.4-6.3,2.1c0-0.1-0.1-0.2-0.1-0.3c0.4-0.2,0.7-0.4,1.1-0.6
		c-1.4,0.2-2.8,0.6-4.1,0.9c-8.3,2.3-16.7,3.5-25.3,3.4c-7.4,0-14.6-0.8-21.9-2.5c-5.5-1.3-10.8-3-16-5.3c-4.7-2.1-9.3-4.6-13.3-7.9
		c-3.6-3-7.1-6.1-10.6-9.2c-0.5-0.5-0.9-1.1-1.3-1.7c0.1-0.1,0.3-0.3,0.4-0.4c2.4,1.9,4.8,3.9,7.2,5.8c0,0,0.1-0.1,0.1-0.1
		c-0.4-0.5-0.8-1-1.2-1.5c0.8,0.3,1.4,0.7,1.9,1.2c3.3,2.8,7.1,4.9,10.9,7c0.4,0.2,0.9,0.2,1.3,0.3c0-0.1,0.1-0.2,0.1-0.4
		c-0.5-0.4-0.9-0.7-1.4-1.1c-2.7-2.2-5.5-4.4-8.2-6.7c-8.9-7.9-16.1-17.2-21.3-27.9c-0.8-1.6-1.7-3.2-2-5c-0.2-1.4-0.7-2.7-1.2-4
		c-0.7-1.9-1.4-3.8-1.7-5.7c-0.6-3.1-1.1-6.3-1.4-9.4c-0.3-2.7-0.3-5.5-0.3-8.2c0-1.4,0.3-2.8,0.3-4.2c-0.1-4.6,0.8-9.1,1.8-13.6
		c0.9-4.2,2.1-8.4,3.3-12.6c0.6-2,1.2-4,2.1-5.8c1.4-3,2.9-6,4.5-9c4.8-8.8,11.1-16.4,18.7-22.9c0.3-0.2,0.6-0.4,0.9-0.7
		c0,0-0.1,0-0.1,0c-2.5,2.6-5,5.2-7.5,7.7c0,0,0.1,0.1,0.1,0.1c1.6-1.5,3.1-2.9,4.7-4.4c0.1,0.1,0.1,0.2,0.2,0.2
		c-0.2,0.2-0.4,0.5-0.6,0.7c-5.4,4.8-9.1,11-13.5,16.6c-0.9,1.1-1.4,2.5-2.1,3.8c-1.2,2.3-2.3,4.6-3.4,7c-0.9,2.1-1.8,4.3-2.6,6.4
		c-0.8,2-1.7,4.1-2.1,6.2c-0.6,3.2-0.8,6.5-1.2,9.7c-0.1,0.6-0.2,1.2-0.2,1.8c-0.2,2.3-0.5,4.6-0.7,6.9c-0.1,1,0.2,1.9,0.3,2.9
		c0.8-9,2.3-18.1,3.5-20.4c-0.4,2.1-0.7,3.8-0.9,5.5c0.7-2,1.3-3.9,1.9-5.9c0.9-2.5,1.9-5,2.7-7.5c1.4-4.2,3.3-8.2,5.7-11.9
		c1.1-1.6,2.4-3.1,3.6-4.6c1.8-2.3,3.5-4.6,5.3-6.9c1-1.3,2.1-2.5,3.1-3.7c0.1,0.1,0.2,0.2,0.2,0.3c1.5-1.5,3-3.1,4.6-4.6
		c-0.1-0.1-0.2-0.1-0.3-0.2c0.5-0.6,1-1.3,1.6-1.8c1.3-1.1,2.6-2.1,4-3c4.4-3,8.7-6.1,13.3-8.8c7.1-4.1,14.8-6.7,22.8-8.6
		c4.7-1.1,9.4-2,14.1-2.4c6.6-0.5,13.1,0,19.5,1.3c4.6,1,9,2.3,13.5,3.5c0.4,0.1,0.7,0.3,1.1,0.5c0,0.1-0.1,0.2-0.1,0.3
		c-9-2.6-18.1-4.1-27.5-4c0.8,0.2,1.7,0.1,2.6,0.2c0.8,0,1.7,0.1,2.5,0.2c0.8,0.1,1.6,0.2,2.4,0.4c0,0.1,0,0.3,0,0.4
		c-19.9-2.1-37.9,3.6-55,14c0.9-0.3,1.6-0.5,2.2-0.7c2.3-1,4.6-2.2,7-3.1c4.9-2,9.8-3.8,14.9-5c5.1-1.2,10.1-2.3,15.3-2.6
		c8.7-0.5,17.3-0.2,25.9,1.8c6.3,1.5,12.4,3.4,18.2,6.2c6.9,3.3,13,7.7,18.7,12.7c6.8,6,12.6,12.8,16.9,20.8
		c2.4,4.5,4.5,9.1,6.4,13.8c0.9,2.1,1.1,4.4,1.7,6.6c2.2,8.4,3.3,16.8,3.1,25.5c0,0.4,0,0.8-0.1,1.2c-0.2,0-0.3,0-0.5,0.1
		c-0.4-14.6-3.8-28.3-10.7-41.1c-7-12.8-15.9-23.7-28.4-31.5c0.5,0.4,0.9,0.8,1.4,1.2c-0.1,0.1-0.1,0.1-0.2,0.2
		c-1-0.6-2-1.3-3.1-1.9c-0.1,0.1-0.2,0.2-0.3,0.3c9.2,6.8,17.2,14.8,23.1,24.6c6,9.7,10.6,20,12.2,31.5c-0.2-0.2-0.4-0.5-0.6-0.7
		c2.4,10.9,2.4,21.8,0.3,32.7c-0.1,0-0.2,0-0.3,0c-0.1-0.2-0.2-0.3-0.4-0.6c-0.3,1.7-0.5,3.3-1,4.9c-1.4,4.8-2.8,9.6-4.4,14.4
		c-0.4,1.3-1.1,2.5-1.7,3.7c-0.9,1.9-1.9,3.8-2.8,5.6c-0.3,0.5-0.6,1-0.9,1.6c-0.3,0.5-0.5,1-0.8,1.4c2.9-2.4,4.4-5.5,6.1-8.6
		c0.6-1.1,1-2.5,2.5-3.4c-0.2,0.8-0.3,1.2-0.5,1.6c-1.2,2.6-2.2,5.3-3.6,7.8c-1.6,2.9-3.2,5.7-5.2,8.3c-4.4,5.9-9.6,11-15.5,15.5
		c-1.3,1-2.6,2-4.1,3.2c0.6,0.2,0.9,0.3,1.6,0.5c-9.8,7.6-21.1,11.5-32.4,15.2c0.4,0.1,0.8,0.1,1.2,0c3.9-0.8,7.9-1.7,11.8-2.5
		c0.3-0.1,0.7-0.1,1-0.1c0,0.1,0.1,0.3,0.1,0.4c-10.5,4.4-21.7,5.8-32.8,7.7c0.2,0.1,0.4,0.2,0.6,0.2c5.2-0.1,10.3-0.2,15.4-1.3
		c6.6-1.4,13.1-3.4,19.4-6c7.4-3.2,14.7-6.5,21.4-10.9c1-0.6,2-1.3,3.1-2c-0.2,1.3-0.2,1.5-2.2,2.8c-6.9,4.7-14.2,8.7-22,11.5
		c-1.2,0.4-2.4,0.7-3.6,1c-2.3,0.6-4.7,1.2-7,1.8c0,0.1,0.1,0.2,0.1,0.3c0.6,0.2,1.1,0.4,1.7,0.5c0,0.1,0,0.2,0,0.3
		c-2.5,0.6-5.1,1.5-7.6,1.8c-5.3,0.6-10.7,1-16.1,1.2c-4.4,0.2-8.8,0.1-13.2-0.2c-3.5-0.2-7-0.9-10.5-1.4c-0.4-0.1-0.8,0-1.2,0
		c0,0.1,0,0.2,0,0.3c8.2,2.1,16.5,3.6,25,4.2c0,0.2,0,0.4,0,0.6c-0.9,0.2-1.8,0.6-2.7,0.6c-4.5-0.2-8.9-0.1-13.3-1.4
		c-2.2-0.7-4.6-0.7-6.8-1.2c-6.8-1.4-13.4-3.2-19.7-6.3c-2.6-1.3-5.2-2.5-7.8-3.7c-2-0.9-4.1-1.7-6.1-2.7c-1.8-0.9-3.5-2.1-5.2-3.2
		c-0.4-0.2-0.9-0.4-1.6-0.8c0.4,0.7,0.6,1,0.9,1.5c-0.7-0.3-1.1-0.4-1.6-0.6c0.9,0.8,1.9,1.5,2.8,2.1c3.1,2.1,6.1,4.5,9.3,6.2
		c4.2,2.2,8.6,4,13,5.8c4.8,2,9.8,3.7,14.9,4.8c4.9,1,9.8,2,14.8,2.6c3,0.4,6.1,0.3,9.1-0.1c7-0.9,13.9-1.9,20.8-3.2
		c3.6-0.6,7.1-1.8,10.7-2.7c2.4-0.7,4.9-1.4,7.7-2.1c-0.3,0.6-0.4,0.9-0.6,1.1c7.9-2.5,15.3-5.8,22.2-10.8c-0.6-0.1-0.9-0.1-1.5-0.2
		c1.1-1,2-1.9,3-2.7c9-6.9,17.1-14.8,24-23.8c4.4-5.8,8.2-12,11.3-18.6c3.1-6.5,5.7-13.3,7.6-20.2c1.8-6.4,3.1-13,3.7-19.6
		c0.7-7.6,0.9-15.1-0.3-22.7c-0.9-5.8-2.2-11.4-3.9-17c-2.4-7.8-6-15-10.3-21.9c-4.9-7.9-10.8-14.9-17.7-21.1
		c-6.4-5.8-13.4-10.7-21-14.8c-5.7-3-11.5-5.5-17.7-7.3c-4.8-1.4-9.7-2.5-14.5-3.4c-7.3-1.4-14.7-1.7-22.1-1
		c-4.2,0.4-8.5,0.8-12.7,1.4c-3.7,0.6-7.4,1.6-11.1,2.5c-7.1,1.7-13.8,4.4-20.5,7.4c-9,4.1-17.2,9.5-24.6,16.1
		c-0.2,0.2-0.5,0.4-0.7,0.5c0-0.4,0.1-0.6,0.3-0.7c3.4-3.7,7.3-7,11.3-10c4.6-3.4,9.3-6.6,14.5-9.1c3.3-1.6,6.7-3.1,10.2-4.4
		c3.6-1.4,7.2-2.5,10.9-3.6c1.5-0.5,3.1-0.8,4.6-1.1c4.1-0.8,8.3-1.7,12.4-2.2c3.8-0.5,7.7-0.4,11.6-0.6c5.7-0.3,11.4,0.4,17,1.3
		c5.3,0.8,10.5,1.8,15.6,3.6c3.3,1.2,6.6,2.4,9.9,3.6c0.5,0.2,1.1,0.3,1.6,0.5c0-0.1,0.1-0.2,0.1-0.3c-0.3-0.2-0.6-0.4-0.9-0.5
		c-1-0.4-2.1-0.8-3.1-1.3c-4.9-2.2-9.9-4.4-15.2-5.7c-8.1-2.1-16.3-3.1-24.7-3.4c-8.4-0.2-16.8,0.6-25.1,2.4
		c-3.3,0.8-6.8,1.2-10,2.3c-5.9,2.1-11.7,4.3-17.3,6.9c-7.8,3.7-14.9,8.5-21.5,14c-9,7.4-16.5,16.1-22.5,26.1
		c-2.4,4-4.4,8.3-6.5,12.5c-1.3,2.6-2.5,5.3-3.4,8c-1.5,4.8-2.7,9.7-4,14.6c-1.5,6.1-2.2,12.3-2.2,18.5c0,4,0.5,8,0.8,12.1
		c0.1,1.3,0.3,2.5,0.5,3.8c-0.1,0-0.2,0-0.3,0c-0.3-1.7-0.7-3.4-1-5.1C-921.1,276.1-921.4,275-921.7,274c0-1.8,0-3.6,0-5.3
		c-0.1,0-0.2,0-0.4,0C-921.9,270.4-921.8,272.2-921.7,274z M-871.1,281.9c0.4,0.9,0.6,2,1.2,3c1.8,3.2,3.6,6.5,6.2,9.1
		c0.4,0.4,1.2,1.1,0.5,1.9c-2.2,2.4-4.5,4.5-7.3,6.2c-0.4,0.2-0.9,0.3-1.4,0.2c-0.8-0.2-1.5-0.4-2.3-0.7c-2.8-1.3-5.6-2.1-8.6-2.4
		c-0.2,0-0.5,0-0.7,0.2c-1.5,1-2.2,3.5-1.6,5.2c0.2,0.4,0.2,0.9,0.3,1.3c-0.1,0.1-0.2,0.2-0.3,0.2c-0.6-0.6-1.2-1.1-1.9-1.7
		c-0.4-0.3-0.8-0.7-1.2-0.9c-0.1-0.1-0.7,0.4-0.7,0.5c0.5,1,0.7,2.4,1.6,3c3.8,3,8.2,4.1,13,3c0.7-0.2,1.5-0.5,2-0.9
		c2.4-2.1,5.4-3.1,8.1-4.6c2.6-1.5,5.3-2.9,7.9-4.5c2.6-1.7,5-3.5,7.5-5.4c1.9-1.4,3.8-3,4.3-5.5c0.9-4.4,1.8-8.8,2.5-13.3
		c0.3-1.7,0.3-3.6-0.1-5.2c-0.8-3.1-1.9-6.2-2.9-9.2c-0.1-0.4,0.2-0.9,0.3-1.4c0.4,0.3,0.9,0.5,1.1,0.9c0.6,1.4,1.2,2.8,1.7,4.2
		c0.8,2.4,1.7,4.7,2.3,7.2c0.9,3.6,1.6,7.2,2.2,10.8c0.3,2,0.5,4.1,0.4,6.1c-0.2,5.5-2.8,10.1-6,14.5c-1.4,2-3.1,2.4-5.3,2.2
		c-6.4-0.3-12.8,0.1-19,1.9c-2,0.6-3.9,1.5-5.6,2.6c-1.3,0.9-2.5,2.1-3.1,3.5c-1.2,2.6-0.6,5.2,1.3,7.4c3.3,3.9,7.9,5.5,12.8,6.2
		c3.4,0.5,6.8,0.1,10.1-0.6c5.3-1.2,10.6-2.4,15.9-3.7c3.9-1,7.7-2.1,11.6-3.1c0.9-0.2,1.8-0.6,2.7-0.5c1.1,0.1,2.2,0.6,3.3,0.9
		c5.3,1.4,10.6,2.9,16,4.2c2.5,0.6,5.1,1.2,7.7,1.6c2.8,0.5,5.7,1,8.5,1.2c3.3,0.3,6.5-0.6,9.6-1.7c2.6-0.9,4.8-2.3,6.5-4.5
		c1.4-1.8,2.2-4,1.9-6.3c-0.3-2.6-2-4.4-4.1-5.7c-3.8-2.3-8.1-2.9-12.4-3.3c-4.2-0.4-8.6-0.1-12.8-0.2c-0.6,0-1.4-0.2-1.9-0.6
		c-2.7-2.6-4.9-5.7-6.4-9.1c-2.3-5.2-2-10.7-0.8-16c1.1-5.1,2.7-10,4.3-15c0.5-1.6,1.3-3.2,2.1-4.7c0.1-0.3,0.6-0.4,0.9-0.5
		c0.1,0.3,0.3,0.7,0.3,1c0,0.2-0.1,0.5-0.2,0.7c-0.9,2.6-1.9,5.2-2.5,7.9c-0.5,1.9-0.7,4.1-0.5,6c0.4,4,1.3,8,1.9,12
		c0.3,2.3,1.4,4.2,3.2,5.6c2.3,1.9,4.7,3.7,7.2,5.4c2.8,1.8,5.7,3.4,8.6,5c3,1.7,6.1,3.3,9.2,4.8c1.6,0.8,3.3,1.5,5,1.9
		c2.7,0.6,5.5,0.1,7.9-1.1c1.7-0.8,3.6-1.6,4.3-3.7c0.2-0.6,0.2-1.2,0.2-1.8c-0.6,0.3-1.2,0.5-1.7,0.9c-0.5,0.4-1,0.9-1.5,1.4
		c-0.3-0.8-0.3-1.3-0.3-1.9c0.1-1.5-0.4-2.8-1.3-3.9c-0.3-0.4-0.9-0.9-1.3-0.9c-1.3,0.1-2.7,0.3-3.9,0.7c-2.1,0.7-4.2,1.6-6.3,2.3
		c-0.7,0.2-1.7,0.3-2.3,0c-1.5-0.9-3-1.9-4.4-3.1c-1.5-1.3-2.7-2.9-4.2-4.2c-2.9-2.7-5.8-5.4-8.6-8.1c-1-1-1.5-2.2-1.5-3.6
		c-0.2-4.4-0.5-8.8-0.8-13.2c-0.2-2.3-0.4-4.7-0.5-7c-0.1-2.2,0-4.4-0.1-6.6c-0.3-6.3-3.9-10.6-10.1-12c-3.2-0.8-6.2-1.8-8.8-3.8
		c-2.5-1.9-3.8-4.3-4-7.4c-0.2-3.1,1.9-5.2,3-7.8c0-0.1,0.1-0.1,0.2-0.1c2.1-1.1,2.5-3.1,2.9-5.1c0.3-1.7-0.1-2.1-1.7-2.6
		c0-0.6,0-1.2,0-1.9c0-1.8,0.1-3.5-0.1-5.3c-0.2-2-1.1-3.8-2.7-5.2c-3.3-2.9-7-3.7-11.1-2.1c-3.6,1.4-6,3.9-6.3,7.9
		c-0.1,1.7,0,3.5,0.1,5.3c0,0.7,0.2,1.4-0.9,1.6c-0.4,0.1-0.8,0.8-0.9,1.3c-0.1,0.7,0,1.5,0.2,2.2c0.5,1.4,0.8,2.9,2.3,3.8
		c0.5,0.3,0.9,0.8,1.3,1.3c0.6,1,1.2,2.1,1.7,3.1c0.2,0.3,0.4,0.6,0.4,1c0.9,4.6-1,8.9-5.2,10.9c-2.9,1.4-5.9,2.4-8.9,3.5
		c-3.2,1.2-6.2,2.7-7.3,6.3c-0.4,1.4-0.8,2.9-0.9,4.4c-0.3,3.9-0.5,7.9-0.8,11.8c-0.4,5.3-0.8,10.6-1.2,15.9
		c-0.1,0.8-0.2,1.8-0.7,2.3c-2.4,2.5-5,4.9-7.5,7.3c-0.5,0.5-1.1,0.6-1.6-0.1c-1.6-2.4-3.3-4.9-4.9-7.3c-0.5-0.7-0.7-1.7-1.3-2.2
		C-869,282.6-870,282.3-871.1,281.9z M-781.4,252.8c-0.2,0.1-0.3,0.1-0.5,0.2c1.5,4,3.4,7.8,3.9,12.2c0.5,4.3,1.2,8.6,0,12.9
		c0.6-1.8,1.2-3.7,1.5-5.5c0.2-1.4,0.1-2.9,0.2-4.3c0-1-0.1-1.9-0.1-2.9c0-1.9,0-3.8,0-5.8c0-0.3,0.3-0.6,0.5-1
		c0.3,0.2,0.6,0.4,0.8,0.6c0.4,0.7,0.6,1.5,0.9,2.1c0,0,0.1-0.2,0.3-0.5c0.1,0.3,0.3,0.6,0.3,0.8c0.5,4.2,1.1,8.5,0.5,12.7
		c-0.2,1.4,0.2,2.9-0.1,4.3c-0.6,2.5-1.6,5-2.5,7.5c-0.3,0.9-0.8,1.7-1.3,2.9c1.8-1.2,2.8-2.4,3.8-4.9c2.1-5.2,3.5-10.4,2.6-16.1
		c-0.7-3.9-1-7.9-1.6-11.8c-0.6-3.5-2.2-6.6-4.1-9.6c-0.1-0.2-0.6-0.3-0.8-0.4c0,0.3-0.1,0.7,0,1c0.3,1,0.7,1.9,1,2.9
		c-0.4,0-0.6-0.1-0.7-0.3c-0.9-1.2-1.8-2.5-2.7-3.6c-5-5.9-11.3-9.7-18.5-12.4c-0.9-0.3-1.9-0.3-2.8-0.4c2,1,4,1.7,5.9,2.6
		c1.9,1,3.7,2.1,5.6,3.3c2.6,1.6,4.3,3.3,4.5,4.4c-0.8-0.6-1.6-1.2-2.4-1.7c-0.8-0.5-1.7-0.7-2.6-1.1c-0.1,0.1-0.1,0.2-0.2,0.3
		c0.2,0.2,0.3,0.4,0.5,0.6c3.2,2.2,5.7,5.1,8.2,8c1.7,2,2.9,4.3,3.7,6.8c0.1,0.5,0,1.1,0,1.7c-0.1,0-0.2,0-0.3,0.1
		C-779.2,256.5-780.3,254.6-781.4,252.8z M-900.9,301.8c0.1,0.5,0.2,1.1,0.4,1.5c1.3,2.7,2.4,5.5,3.9,8.1c4,7.3,9.1,13.7,15.5,19
		c5.4,4.5,11.4,8.3,17.9,11.1c3.5,1.5,7,2.7,10.9,2.9c0.2,0,0.3,0,0.5,0c0.2,0,0.3,0,0.2,0c-2.1-0.8-4.4-1.7-6.6-2.5
		c0-0.1,0.1-0.2,0.1-0.4c0.3,0,0.6,0,0.9,0c0.3,0,0.7,0.1,1,0.2c-10.1-2.9-18.2-9.2-26-15.8C-890,319.4-896.1,311.1-900.9,301.8z
		 M-858,236.9c-2.3,0.9-7.9,7.4-8,9.1c2.1-0.2,3.4-1.6,4.8-3c1.4-1.4,2.9-2.9,4.5-4.1c2.9-2.1,6-4.1,9-6.2c-3.6,1.3-7,3.2-10.5,5.4
		C-858.2,237.5-858.1,237.2-858,236.9z M-901.4,331.6c-0.1,0.1-0.2,0.3-0.4,0.4c4.5,6.1,10.5,10.2,17,13.9c0.1-0.1,0.2-0.2,0.2-0.3
		C-890.2,340.9-895.8,336.3-901.4,331.6z M-888.4,227.4c-4.8,5.1-10.1,19.4-10.4,27.8c1.4-4.5,2.7-9.4,4.5-14.2
		C-892.5,236.3-890.3,231.7-888.4,227.4z M-709.4,230.4c-1.7-5.5-4-10.7-7.2-15.6C-714.2,220-711.8,225.2-709.4,230.4z
		 M-841.7,228.6c-4.5,0.9-9,2.5-13.2,5.3c0,0.1,0.1,0.2,0.1,0.3C-850.3,232.2-845.8,230.4-841.7,228.6z M-943.8,290.4
		c-0.2,0-0.4,0.1-0.5,0.1c0.4,3.6,1.4,7,2.4,10.5c0.2,0,0.3-0.1,0.5-0.1C-942.3,297.4-943.1,293.9-943.8,290.4z M-862.4,252
		c-2.4,1.7-4.8,7-4.1,8.5C-865.2,257.7-863.8,255-862.4,252z M-872.2,240.6c-1.8,2.3-3,4.7-4,7.1
		C-875,246.9-872.4,242.4-872.2,240.6z M-761.1,282.3c-0.1,0-0.2-0.1-0.4-0.1c-1,2.4-2.1,4.8-3.1,7.3
		C-762.7,287.3-761.5,285-761.1,282.3z M-904.8,283.9c-0.1,0-0.2,0-0.3,0.1c-0.3,2.4,0.4,4.6,1.5,6.7
		C-904,288.4-904.4,286.2-904.8,283.9z M-905.3,276.3c-0.8,1.3-0.8,5,0,6.1C-905.3,280.3-905.3,278.3-905.3,276.3z M-872.7,292.7
		c0.1-0.1,0.2-0.1,0.3-0.2c-0.6-2.1-2.2-4.6-3.3-4.6C-874.7,289.5-873.7,291.1-872.7,292.7z M-888,349.8c-0.1,0.1-0.2,0.2-0.3,0.3
		c1.1,1.4,1.9,3,3.7,3.7C-885.8,352.4-886.9,351.1-888,349.8z M-923,339c0.1-0.1,0.2-0.2,0.3-0.2c-1.1-1.6-2.2-3.3-3.3-4.9
		c-0.1,0.1-0.2,0.1-0.3,0.2C-925.2,335.7-924.1,337.3-923,339z M-944.7,285.9c-0.2,0-0.4,0-0.6,0c0.1,1.1,0.2,2.2,0.3,3.4
		c0.2,0,0.3,0,0.5,0C-944.5,288.1-944.6,287-944.7,285.9z M-867.3,254.8c0.2,0,0.4-0.1,0.5-0.1c-0.2-0.8-0.5-1.5-0.8-2.5
		C-868.7,253.5-867.8,254.1-867.3,254.8z M-767.5,283.7c0.2,0,0.3,0.1,0.5,0.1c0.4-1.1,0.8-2.2,1.1-3.3c-0.1,0-0.2-0.1-0.4-0.1
		C-766.7,281.5-767.1,282.6-767.5,283.7z M-759.4,272.1c-0.1,0-0.2,0-0.3,0c0,1.2,0,2.5,0,3.7c0.1,0,0.2,0,0.3,0
		C-759.4,274.6-759.4,273.3-759.4,272.1z M-930.6,325.7c-0.1,0.1-0.2,0.1-0.4,0.2c0.5,0.9,1,1.7,1.5,2.6c0.1-0.1,0.2-0.1,0.4-0.2
		C-929.6,327.5-930.1,326.6-930.6,325.7z M-868.5,256.6c0.1,0,0.3-0.1,0.4-0.1c-0.1-0.6-0.3-1.1-0.4-1.7c-0.1,0-0.3,0.1-0.4,0.1
		C-869.3,255.5-869.4,256.1-868.5,256.6z M-761,173.9c0-0.1,0.1-0.3,0.1-0.4c-0.9-0.4-1.9-0.8-2.8-1.2c0,0.1-0.1,0.2-0.1,0.3
		c0.4,0.2,0.9,0.5,1.3,0.7C-762,173.5-761.5,173.7-761,173.9z M-781.5,270.9c0,0-0.1,0-0.1,0c0,1.1,0,2.1,0,3.2c0,0,0.1,0,0.1,0
		C-781.5,273-781.5,271.9-781.5,270.9z M-781.7,269.5c0,0,0.1,0,0.1,0c0-0.7,0-1.5,0-2.2c0,0-0.1,0-0.1,0
		C-781.7,268-781.7,268.8-781.7,269.5z"/>
	<path d="M-239.8,96.3c0.2-1.2,0.5-2.4,0.7-3.6c1.1-5.5,2.4-10.8,4.5-16c2.2-5.3,4.9-10.3,8.3-15c3.3-4.5,7-8.6,11.3-12.2
		c3.9-3.3,8-6.3,12.5-8.8c4.2-2.3,8.6-4.3,13.3-5.7c2.1-0.6,4.2-1.2,6.3-1.8c0.3-0.1,0.6-0.1,0.9,0c-0.6,0.2-1.1,0.5-1.7,0.6
		c-1.9,0.6-3.8,1.1-5.7,1.8c-1.7,0.6-3.3,1.3-4.9,2c-1.7,0.8-3.4,1.6-5.1,2.4c-1.4,0.7-2.8,1.5-4.2,2.4c-1.8,1.2-3.7,2.3-5.4,3.6
		c-2.2,1.7-4.4,3.4-6.5,5.2c-2,1.8-4,3.8-5.8,5.8c-1.3,1.4-2.5,3-3.6,4.6c-1,1.4-1.8,3-2.9,4.3c-2.3,2.7-3.6,6-5.1,9.2
		c-1.8,4.1-3.1,8.3-4.2,12.6c-0.5,2.3-1,4.6-1.2,6.9c-0.4,4.1-0.7,8.2-1,12.3c-0.1,1.3,0,2.7,0.1,4.1c0.2,2,0.6,4,0.9,6
		c0.7,5.2,2.4,10.1,4.1,15.1c0.2,0.5,0.3,0.9,0.5,1.4c-0.1,0-0.1,0-0.2,0.1c-0.4-1.2-0.9-2.5-1.3-3.7c-0.4-1.2-0.9-2.5-1.3-3.8
		c-0.6-2-1.3-3.9-1.8-5.9c-0.6-2.5-0.9-5-1.4-7.5c0-0.1-0.1-0.2-0.2-0.4C-239.8,106.9-239.8,101.6-239.8,96.3z"/>
	<path d="M-200.5,76.3c-0.6,0.7-1.2,1.4-1.8,2.1c-1,1.3-2,2.6-3.1,4c-0.7,0.9-1.4,1.7-2,2.6c-1.4,2.1-2.5,4.4-3.3,6.8
		c-0.5,1.5-1.1,2.9-1.5,4.3c-0.4,1.1-0.7,2.3-1.1,3.4c0.2-1,0.3-2,0.5-3.2c-0.7,1.3-1.5,6.6-2,11.7c-0.1-0.6-0.2-1.1-0.2-1.7
		c0.1-1.3,0.2-2.6,0.4-3.9c0-0.3,0.1-0.7,0.1-1c0.2-1.9,0.4-3.7,0.7-5.6c0.2-1.2,0.7-2.4,1.2-3.6c0.5-1.2,0.9-2.5,1.5-3.7
		c0.6-1.3,1.3-2.7,2-4c0.4-0.7,0.7-1.5,1.2-2.2c2.5-3.2,4.7-6.8,7.8-9.5c0.1-0.1,0.2-0.3,0.4-0.4c0,0-0.1-0.1-0.1-0.1
		c-0.9,0.8-1.8,1.7-2.7,2.5c0,0,0,0-0.1-0.1c1.4-1.5,2.9-3,4.3-4.4c0,0,0,0,0,0c-0.2,0.1-0.4,0.2-0.5,0.4
		c-4.3,3.8-7.9,8.1-10.7,13.2c-0.9,1.7-1.8,3.4-2.6,5.1c-0.5,1.1-0.9,2.2-1.2,3.4c-0.7,2.4-1.3,4.8-1.9,7.2c-0.6,2.6-1.1,5.2-1,7.8
		c0,0.8-0.2,1.6-0.1,2.4c0,1.6,0,3.2,0.2,4.7c0.2,1.8,0.4,3.6,0.8,5.4c0.2,1.1,0.6,2.2,1,3.3c0.3,0.7,0.5,1.5,0.7,2.3
		c0.2,1,0.7,1.9,1.2,2.8c3,6.2,7.1,11.5,12.2,16c1.5,1.3,3.1,2.6,4.7,3.9c0.3,0.2,0.5,0.4,0.8,0.6c0,0.1,0,0.1-0.1,0.2
		c-0.3,0-0.5,0-0.8-0.2c-2.2-1.2-4.3-2.4-6.2-4c-0.3-0.3-0.7-0.5-1.1-0.7c0.2,0.3,0.4,0.6,0.7,0.8c0,0,0,0,0,0
		c-1.4-1.1-2.8-2.2-4.2-3.3c-0.1,0.1-0.1,0.2-0.2,0.2c0.3,0.3,0.5,0.7,0.8,1c2,1.8,4,3.6,6.1,5.3c2.3,1.9,4.9,3.3,7.7,4.5
		c3,1.3,6,2.3,9.2,3c4.1,1,8.3,1.4,12.5,1.4c4.9,0,9.8-0.7,14.5-2c0.8-0.2,1.5-0.4,2.4-0.5c-0.2,0.1-0.4,0.2-0.6,0.4
		c0,0.1,0,0.1,0.1,0.2c1.2-0.4,2.4-0.8,3.6-1.2c0,0,0,0.1,0,0.1c-0.9,0.4-1.8,0.9-2.8,1.2c-1.8,0.6-3.6,1.1-5.5,1.5
		c-1.8,0.4-3.6,0.7-5.5,1c-4.4,0.7-8.7,0.5-13.1,0.3c-2.6-0.2-5.3-0.7-7.9-1c-0.5-0.1-1.1-0.1-1.6-0.1c0,0.1,0,0.2-0.1,0.2
		c1.3,0.4,2.6,0.8,3.9,1.1c1.3,0.3,2.6,0.6,3.9,1.1c-0.5,0-0.9-0.1-1.4-0.1c3.4,0.8,6.9,1.1,10.3,1.1c0,0.1,0,0.1,0,0.2
		c-0.2,0-0.5,0.2-0.7,0.1c-1.8-0.1-3.7-0.2-5.5-0.4c-2.1-0.2-4.2-0.4-6.3-0.9c-2.3-0.5-4.5-1.1-6.7-1.8c-1.8-0.6-3.4-1.3-5.2-2
		c-0.3-0.1-0.5-0.2-0.8-0.3c0,0.1-0.1,0.1-0.1,0.2c0.3,0.2,0.6,0.5,0.9,0.7c-0.5,0.1-1.1-0.2-2.4-1.1c-0.8-0.5-1.5-1-2.3-1.7
		c0.3,0.1,0.6,0.2,0.9,0.3c0,0,0-0.1,0.1-0.1c-0.1-0.1-0.2-0.2-0.3-0.3c-2.4-1.7-4.9-3.3-7.2-5.2c-2.6-2.1-5.1-4.4-7.1-7.1
		c-1.7-2.3-3.4-4.6-5.1-6.9c-1.1-1.6-1.9-3.4-3-5c-0.5-0.8-1-1.4-1.5-2.2c-0.1,0-0.1,0.1-0.2,0.1c0.7,2,1.5,4.1,2.2,6.2
		c-2.2-2.2-7.2-16.9-7.4-21.4c0.1,0.3,0.2,0.4,0.3,0.7c0-0.1,0.1-0.1,0.1-0.2c-0.1-1.3-0.3-2.6-0.4-3.9c-0.1-1.1-0.3-2.2-0.3-3.3
		c0-2.2-0.1-4.5,0.1-6.7c0.4-4.1,1-8.1,2.9-12c0,0.2,0.1,0.3,0,0.4c-0.9,2.4-1.3,5-1.6,7.5c-0.2,1.3-0.5,2.5-0.7,3.8
		c-0.2,1.2-0.3,2.4-0.3,3.6c0,2.2-0.1,4.5,0.1,6.7c0.4,3.6,1.2,7,2.3,10.5c0.1,0.2,0.1,0.3,0.2,0.5c0.1,0,0.2,0,0.2,0
		c0-0.7,0-1.5-0.2-2.2c-0.2-1.6-0.6-3.1-0.8-4.7c-0.4-2.9-0.7-5.9-0.4-8.8c0.2-2.2,0.4-4.5,0.7-6.7c0.4-2.5,0.9-4.9,1.5-7.4
		c0.4-1.8,1.1-3.5,1.7-5.3c1.7-5,4.2-9.6,7.2-13.9c2.2-3.3,4.8-6.3,7.7-9c2.5-2.3,5.1-4.4,7.9-6.4c3.8-2.7,8-4.7,12.3-6.6
		c1.2-0.5,2.4-0.9,3.6-1.3c0.1,0,0.3,0,0.4,0.1c-0.5,0.2-1.1,0.5-1.6,0.7c-1.5,0.7-2.9,1.3-4.4,2.1c-1.4,0.7-2.8,1.5-4.2,2.3
		c-1.9,1.1-3.8,2.2-5.5,3.5c-3.7,2.7-7.2,5.6-10.2,9c-2.5,2.8-4.8,5.8-6.6,9.1c-0.6,1-1,2.1-1.5,3.2c-0.1,0.2-0.2,0.4-0.5,0.5
		c0.1-0.2,0.1-0.4,0.2-0.7c-0.1,0-0.1-0.1-0.2-0.1c-0.9,1.9-1.8,3.8-2.7,5.8c0.1,0,0.1,0.1,0.2,0.1c0.2-0.4,0.4-0.8,0.6-1.2
		c0,0,0.1,0,0.1,0.1c-0.2,0.4-0.4,0.8-0.5,1.2c-0.8,2.4-1.5,4.9-2.4,7.3c-1.2,3.3-1.7,6.7-1.9,10.2c-0.1,1.9-0.2,3.8-0.3,5.7
		c0,1.2,0.2,2.5,0.3,3.7c0,0.2,0.2,0.5,0.4,0.7c0,0,0,0,0,0c0.1,0.6,0.3,1.2,0.4,1.8c0.2,1,0.4,2,0.6,2.9c0.1,0,0.1,0,0.2,0
		c-0.1-0.7-0.2-1.5-0.3-2.2c-0.2-2.3-0.5-4.6-0.5-6.9c0-3.6,0.4-7.1,1.3-10.6c0.7-2.8,1.4-5.6,2.3-8.4c0.5-1.6,1.2-3.1,1.9-4.6
		c1.2-2.4,2.4-4.9,3.7-7.2c3.4-5.7,7.7-10.7,12.9-15c3.8-3.1,7.9-5.9,12.4-8c3.2-1.5,6.6-2.8,9.9-4c1.8-0.6,3.8-0.9,5.7-1.3
		c4.7-1.1,9.6-1.5,14.4-1.4c4.8,0.1,9.5,0.7,14.1,1.9c3,0.8,5.9,2,8.7,3.3c0.6,0.3,1.2,0.5,1.8,0.7c0.2,0.1,0.4,0.2,0.5,0.3
		c0,0.1-0.1,0.1-0.1,0.2c-0.3-0.1-0.6-0.2-0.9-0.3c-1.9-0.7-3.8-1.4-5.7-2.1c-2.9-1-5.9-1.6-8.9-2.1c-3.2-0.5-6.5-0.9-9.8-0.8
		c-2.2,0.1-4.5,0.1-6.7,0.3c-2.4,0.3-4.8,0.8-7.1,1.3c-0.9,0.2-1.8,0.4-2.7,0.6c-2.1,0.7-4.2,1.3-6.2,2.1c-2,0.8-3.9,1.6-5.8,2.5
		c-2.9,1.4-5.7,3.3-8.3,5.2c-2.3,1.7-4.5,3.6-6.5,5.7c-0.1,0.1-0.2,0.2-0.2,0.4c0.1-0.1,0.3-0.2,0.4-0.3c4.2-3.8,8.9-6.9,14.1-9.2
		c3.8-1.7,7.7-3.3,11.7-4.3c2.1-0.5,4.2-1.1,6.4-1.4c2.4-0.4,4.9-0.6,7.3-0.8c4.2-0.4,8.5-0.2,12.7,0.6c2.8,0.5,5.6,1.2,8.3,2
		c3.5,1,6.9,2.5,10.1,4.2c4.4,2.3,8.4,5.1,12,8.5c3.9,3.6,7.4,7.6,10.2,12.1c2.5,3.9,4.5,8.1,5.9,12.6c1,3.2,1.7,6.4,2.3,9.7
		c0.7,4.4,0.6,8.7,0.2,13c-0.4,3.8-1.1,7.6-2.1,11.3c-1.1,4-2.6,7.9-4.4,11.6c-1.8,3.8-3.9,7.3-6.5,10.6c-4,5.2-8.6,9.7-13.8,13.6
		c-0.6,0.4-1.1,1-1.7,1.6c0.3,0.1,0.5,0.1,0.9,0.1c-4,2.9-8.2,4.8-12.7,6.2c0.1-0.1,0.1-0.3,0.3-0.6c-1.6,0.4-3,0.8-4.4,1.2
		c-2,0.5-4,1.2-6.1,1.6c-4,0.7-8,1.3-11.9,1.8c-1.7,0.2-3.5,0.3-5.2,0.1c-2.9-0.3-5.7-0.9-8.5-1.5c-2.9-0.6-5.8-1.6-8.5-2.7
		c-2.5-1.1-5-2.1-7.4-3.4c-1.9-1-3.6-2.4-5.4-3.6c-0.6-0.4-1.1-0.8-1.6-1.2c0.3,0.1,0.5,0.2,0.9,0.4c-0.2-0.3-0.3-0.5-0.5-0.9
		c0.4,0.2,0.7,0.3,0.9,0.4c1,0.6,2,1.3,3,1.8c1.1,0.6,2.3,1,3.5,1.6c1.5,0.7,3,1.4,4.5,2.1c3.6,1.8,7.4,2.8,11.3,3.6
		c1.3,0.3,2.7,0.3,3.9,0.7c2.5,0.8,5.1,0.7,7.6,0.8c0.5,0,1-0.2,1.5-0.3c0-0.1,0-0.2,0-0.4c-4.9-0.3-9.7-1.2-14.4-2.4
		c0-0.1,0-0.1,0-0.2c0.2,0,0.5,0,0.7,0c2,0.3,4,0.6,6.1,0.8c2.5,0.2,5,0.2,7.6,0.1c3.1-0.1,6.2-0.4,9.2-0.7c1.5-0.2,2.9-0.7,4.4-1
		c0-0.1,0-0.1,0-0.2c-0.3-0.1-0.6-0.2-0.9-0.3c0-0.1,0-0.1,0-0.2c1.3-0.3,2.7-0.7,4-1c0.7-0.2,1.4-0.3,2-0.6
		c4.5-1.6,8.7-3.9,12.6-6.6c1.1-0.8,1.1-0.9,1.2-1.6c-0.6,0.4-1.2,0.8-1.8,1.1c-3.9,2.5-8,4.5-12.3,6.3c-3.6,1.5-7.3,2.7-11.1,3.5
		c-2.9,0.6-5.9,0.7-8.8,0.7c-0.1,0-0.2,0-0.3-0.1c6.4-1.1,12.8-1.9,18.8-4.4c0-0.1,0-0.2-0.1-0.2c-0.2,0-0.4,0-0.6,0.1
		c-2.3,0.5-4.5,1-6.8,1.4c-0.2,0-0.4,0.1-0.7,0c6.5-2.1,12.9-4.3,18.6-8.7c-0.4-0.1-0.6-0.2-0.9-0.3c0.8-0.7,1.6-1.3,2.3-1.8
		c3.3-2.6,6.4-5.5,8.9-8.9c1.1-1.5,2.1-3.1,3-4.8c0.8-1.4,1.4-3,2.1-4.5c0.1-0.2,0.1-0.5,0.3-0.9c-0.9,0.5-1.1,1.3-1.5,1.9
		c-1,1.8-1.9,3.6-3.5,5c0.2-0.3,0.3-0.5,0.5-0.8c0.2-0.3,0.4-0.6,0.5-0.9c0.6-1.1,1.1-2.1,1.6-3.2c0.3-0.7,0.7-1.4,1-2.1
		c0.9-2.7,1.7-5.5,2.5-8.3c0.3-0.9,0.4-1.8,0.5-2.8c0.1,0.2,0.2,0.3,0.2,0.4c0.1,0,0.1,0,0.2,0c1.2-6.2,1.2-12.5-0.2-18.8
		c0.1,0.1,0.2,0.3,0.4,0.4c-0.9-6.6-3.6-12.5-7-18.1c-3.4-5.6-8-10.2-13.3-14.1c0.1-0.1,0.1-0.1,0.2-0.2c0.6,0.4,1.2,0.7,1.8,1.1
		c0,0,0.1-0.1,0.1-0.1c-0.3-0.2-0.5-0.5-0.8-0.7c7.2,4.5,12.3,10.8,16.3,18.1c4,7.3,5.9,15.2,6.2,23.6c0.1,0,0.2,0,0.3,0
		c0-0.2,0-0.5,0-0.7c0.1-5-0.6-9.8-1.8-14.6c-0.3-1.3-0.5-2.6-1-3.8c-1.1-2.7-2.3-5.3-3.7-7.9c-2.4-4.6-5.8-8.5-9.7-11.9
		c-3.3-2.9-6.8-5.4-10.7-7.3c-3.3-1.6-6.8-2.7-10.4-3.6c-4.9-1.2-9.9-1.3-14.8-1c-3,0.2-5.9,0.8-8.8,1.5c-2.9,0.7-5.8,1.7-8.6,2.9
		c-1.4,0.6-2.7,1.2-4,1.8c-0.3,0.2-0.7,0.2-1.2,0.4c9.8-5.9,20.1-9.2,31.5-8c0-0.1,0-0.2,0-0.2c-0.5-0.1-0.9-0.1-1.4-0.2
		c-0.5-0.1-1-0.1-1.4-0.1c-0.5,0-1,0-1.5-0.1c5.4,0,10.6,0.8,15.8,2.3c0-0.1,0-0.1,0.1-0.2c-0.2-0.1-0.4-0.2-0.6-0.3
		c-2.6-0.7-5.2-1.4-7.8-2c-3.7-0.8-7.4-1.1-11.2-0.8c-2.7,0.2-5.4,0.7-8.1,1.4c-4.6,1.1-9,2.6-13.1,4.9c-2.6,1.5-5.1,3.3-7.6,5
		c-0.8,0.5-1.6,1.1-2.3,1.7c-0.3,0.3-0.6,0.7-0.9,1C-198.8,74.6-199.6,75.4-200.5,76.3z M-162.6,51.4c0,0.1,0,0.3,0,0.4
		c1.7,0,3.3,0,5,0c4.1,0.1,8.1,0.9,12,2.1c4,1.2,7.9,2.9,11.5,4.9c3.3,1.8,6.4,3.9,9.2,6.3c5.5,4.6,10,10,13.4,16.3
		c2.6,4.8,4.5,9.9,5.7,15.2c0.6,2.8,1.1,5.7,1.5,8.6c0.6,4,0.1,8-0.5,11.9c-0.2,1.2-0.4,2.3-0.7,3.4c0.2-0.2,0.3-0.4,0.4-0.6
		c0.5-2,1.1-3.9,1.4-5.9c0.4-2.9,0.8-5.9,0.8-8.8c0-3.7-0.5-7.3-1.4-10.9c-0.9-3.8-2.1-7.3-3.7-10.8c-1.7-3.7-3.8-7.2-6.4-10.5
		c-3.1-3.9-6.7-7.4-10.7-10.5c-2.6-1.9-5.4-3.6-8.2-5.1c-4.1-2.2-8.5-3.7-13-4.6c-3.2-0.6-6.5-1.1-9.8-1.4
		C-158.1,51.2-160.3,51.4-162.6,51.4z M-214.2,137.7c0.1-0.1,0.2-0.1,0.3-0.2c-1.1-1.8-2.2-3.6-3.2-5.5c-1-1.9-1.9-3.9-2.7-5.9
		c-0.8-2-1.5-4-2.2-6.1c-0.7-2-1.3-4-1.9-5.9c0.1,0.5,0.2,1.2,0.2,1.8c0.5,4.5,2.3,8.6,3.8,12.7c1,2.5,2.5,4.8,3.9,7.2
		C-215.5,136.5-214.8,137.1-214.2,137.7z M-112.6,135.2c0.1,0,0.1,0,0.2,0.1c0.1-0.1,0.1-0.2,0.2-0.3c3.1-5.7,5-11.8,6-18.1
		c0.1-0.7,0.2-1.5-0.4-2.1C-107.7,121.8-109.6,128.7-112.6,135.2z M-179.7,168.2c0-0.1,0.1-0.2,0.1-0.3c-0.5-0.6-8.9-3.8-10.6-3.9
		c1.7,0.9,3.3,1.9,5,2.6C-183.4,167.3-181.5,167.7-179.7,168.2z M-152.5,50.8c-1.4-0.7-10.4-0.9-11.3,0
		C-159.9,50.8-156.1,50.8-152.5,50.8z M-117.9,122c0.6-1.6,1-9,0.6-9.8C-117.5,115.4-117.7,118.7-117.9,122z M-162.7,167.4
		c0-0.1,0-0.1,0-0.2c-2.4,0-4.7,0-7.1,0c0,0.1,0,0.1,0,0.2C-167.4,167.4-165.1,167.4-162.7,167.4z M-107.9,126.1
		c-0.1,0-0.1-0.1-0.2-0.1c-0.8,2-1.6,4-2.4,5.9c0.1,0,0.1,0.1,0.2,0.1C-109.5,130.1-108.7,128.1-107.9,126.1z M-146.4,161.9
		c0,0.1,0.1,0.2,0.1,0.2c1.4-0.7,2.9-1.4,4.3-2.1c0-0.1-0.1-0.2-0.1-0.2c-1.2,0.6-2.5,1.2-3.7,1.8
		C-146,161.6-146.2,161.8-146.4,161.9z"/>
	<path d="M-195,115.3c0.6,0.3,1.2,0.4,1.6,0.7c0.4,0.3,0.5,0.9,0.8,1.3c0.9,1.4,1.9,2.8,2.8,4.2c0.3,0.4,0.6,0.4,0.9,0.1
		c1.4-1.4,2.9-2.7,4.3-4.2c0.3-0.3,0.4-0.9,0.4-1.3c0.3-3,0.5-6.1,0.7-9.1c0.2-2.3,0.3-4.5,0.4-6.8c0.1-0.9,0.3-1.7,0.5-2.6
		c0.6-2.1,2.3-2.9,4.2-3.6c1.7-0.6,3.5-1.2,5.1-2c2.4-1.2,3.5-3.6,3-6.3c0-0.2-0.2-0.4-0.2-0.6c-0.3-0.6-0.6-1.2-1-1.8
		c-0.2-0.3-0.4-0.6-0.7-0.8c-0.8-0.5-1-1.4-1.3-2.2c-0.1-0.4-0.2-0.9-0.1-1.3c0-0.3,0.3-0.7,0.5-0.8c0.6-0.1,0.5-0.5,0.5-0.9
		c0-1-0.1-2-0.1-3c0.2-2.3,1.5-3.7,3.6-4.5c2.3-0.9,4.5-0.4,6.4,1.2c0.9,0.8,1.4,1.8,1.5,3c0.1,1,0.1,2,0.1,3c0,0.4,0,0.7,0,1.1
		c1,0.3,1.2,0.5,1,1.5c-0.2,1.1-0.5,2.3-1.7,2.9c0,0-0.1,0-0.1,0.1c-0.6,1.5-1.9,2.7-1.7,4.5c0.1,1.8,0.9,3.2,2.3,4.3
		c1.5,1.1,3.3,1.8,5.1,2.2c3.5,0.8,5.6,3.3,5.8,6.9c0.1,1.3,0,2.5,0.1,3.8c0.1,1.3,0.2,2.7,0.3,4c0.2,2.5,0.4,5,0.5,7.5
		c0,0.8,0.3,1.5,0.9,2.1c1.7,1.5,3.3,3.1,5,4.6c0.8,0.8,1.5,1.7,2.4,2.4c0.8,0.7,1.6,1.3,2.5,1.8c0.3,0.2,0.9,0.2,1.3,0
		c1.2-0.4,2.4-0.9,3.6-1.3c0.7-0.2,1.5-0.3,2.3-0.4c0.2,0,0.6,0.3,0.8,0.5c0.5,0.6,0.8,1.4,0.7,2.2c0,0.3,0,0.7,0.2,1.1
		c0.3-0.3,0.5-0.6,0.8-0.8c0.3-0.2,0.6-0.3,0.9-0.5c0,0.3,0,0.7-0.1,1c-0.4,1.2-1.5,1.6-2.5,2.1c-1.4,0.7-3,1-4.6,0.6
		c-1-0.2-1.9-0.6-2.9-1.1c-1.8-0.9-3.6-1.8-5.3-2.7c-1.7-0.9-3.3-1.8-4.9-2.9c-1.4-0.9-2.8-2-4.1-3.1c-1-0.8-1.6-1.9-1.8-3.2
		c-0.3-2.3-0.8-4.6-1.1-6.9c-0.1-1.1,0-2.3,0.3-3.5c0.4-1.5,0.9-3,1.4-4.5c0-0.1,0.1-0.3,0.1-0.4c0-0.2-0.1-0.4-0.2-0.6
		c-0.2,0.1-0.5,0.2-0.5,0.3c-0.4,0.9-0.9,1.8-1.2,2.7c-0.9,2.8-1.8,5.7-2.4,8.6c-0.7,3.1-0.8,6.2,0.5,9.2c0.9,2,2.1,3.7,3.7,5.2
		c0.2,0.2,0.7,0.3,1.1,0.3c2.5,0.1,4.9-0.1,7.4,0.1c2.4,0.2,4.9,0.5,7.1,1.9c1.2,0.8,2.2,1.8,2.4,3.3c0.1,1.3-0.3,2.5-1.1,3.6
		c-0.9,1.3-2.2,2.1-3.7,2.6c-1.8,0.6-3.6,1.1-5.5,1c-1.6-0.1-3.3-0.4-4.9-0.7c-1.5-0.3-3-0.6-4.4-0.9c-3.1-0.8-6.1-1.6-9.2-2.4
		c-0.6-0.2-1.3-0.5-1.9-0.5c-0.5,0-1,0.1-1.5,0.3c-2.2,0.6-4.4,1.2-6.6,1.8c-3,0.7-6.1,1.5-9.1,2.1c-1.9,0.4-3.9,0.6-5.8,0.4
		c-2.8-0.4-5.4-1.3-7.3-3.5c-1.1-1.2-1.4-2.7-0.7-4.2c0.4-0.8,1.1-1.5,1.8-2c1-0.6,2.1-1.2,3.2-1.5c3.6-1,7.2-1.3,10.9-1.1
		c1.3,0.1,2.2-0.1,3-1.3c1.8-2.5,3.3-5.1,3.4-8.3c0.1-1.2,0-2.3-0.2-3.5c-0.4-2.1-0.8-4.1-1.3-6.2c-0.3-1.4-0.8-2.8-1.3-4.1
		c-0.3-0.8-0.6-1.6-1-2.4c-0.1-0.2-0.4-0.4-0.6-0.5c-0.1,0.3-0.3,0.6-0.2,0.8c0.5,1.8,1.2,3.5,1.7,5.3c0.2,1,0.2,2,0.1,3
		c-0.4,2.6-0.9,5.1-1.4,7.6c-0.3,1.4-1.4,2.3-2.5,3.2c-1.4,1-2.8,2.1-4.3,3.1c-1.5,0.9-3,1.7-4.5,2.6c-1.5,0.9-3.3,1.4-4.6,2.7
		c-0.3,0.3-0.8,0.4-1.2,0.5c-2.7,0.6-5.2,0-7.4-1.7c-0.5-0.4-0.6-1.1-0.9-1.7c0,0,0.3-0.3,0.4-0.3c0.3,0.1,0.5,0.4,0.7,0.5
		c0.4,0.3,0.7,0.6,1.1,1c0.1,0,0.1-0.1,0.2-0.1c-0.1-0.3-0.1-0.5-0.2-0.8c-0.4-1,0.1-2.4,0.9-3c0.1-0.1,0.3-0.1,0.4-0.1
		c1.7,0.2,3.4,0.6,5,1.4c0.4,0.2,0.9,0.3,1.3,0.4c0.2,0,0.6,0,0.8-0.1c1.6-0.9,2.9-2.2,4.2-3.5c0.4-0.4,0-0.8-0.3-1.1
		c-1.5-1.5-2.5-3.4-3.6-5.2C-194.7,116.4-194.8,115.8-195,115.3z M-200.4,129c0.9,0,1.4-0.4,1.3-1c-0.1-0.5-1.8-1.8-2.3-1.7
		c0,0-0.1,0-0.1,0c-0.4,0.2-0.8,1.1-0.6,1.5C-201.9,128.5-201.2,129-200.4,129z M-132.9,129.1c0.5-0.3,1.1-0.6,1.5-1
		c0.4-0.4,0.4-0.9,0-1.4c-0.3-0.4-0.8-0.6-1.3-0.3c-0.3,0.2-0.5,0.3-0.8,0.5c-0.5,0.3-0.8,0.7-0.7,1.3
		C-134,128.9-133.5,128.9-132.9,129.1z"/>
	<path d="M-117.4,55.4c-0.2-0.1-0.4-0.1-0.6-0.2c-3-2.1-5.9-4.2-8.9-6.2c-1.4-0.9-3-1.5-4.4-2.5c-0.8-0.6-1.6-1.3-2.5-1.6
		c-1.2-0.4-2.3-0.7-3.5-1.1c-1.1-0.4-2.2-0.8-3.3-1.1c-2.6-0.7-5.1-1.4-7.7-1.9c-3.1-0.6-6.3-1.1-9.5-1.3c-3.1-0.3-6.1-0.2-9.2-0.2
		c-0.7,0-1.4,0.1-2.1,0.3c0.1,0,0.3,0.1,0.4,0.1c0.8,0.1,1.5,0.2,2.3,0.2c0.7,0,1.5-0.2,2.2-0.2c1.6,0,3.1,0.1,4.7,0.1
		c0.6,0,1.1,0.3,1.7,0.4c3.3,0.6,6.5,1.1,9.8,1.7c0.8,0.1,1.5,0.4,2.3,0.7c0,0.1,0,0.1,0,0.2c-0.4,0-0.7,0-1.1-0.1
		c-1.3-0.3-2.6-0.6-3.9-0.8c-1.9-0.3-3.8-0.6-5.7-0.8c-2.9-0.2-5.7-0.4-8.6-0.5c-1.9,0-3.9,0-5.8,0.4c-1.5,0.4-3,0.4-4.5,0.7
		c-1.2,0.2-2.3,0.5-3.5,0.8c-1.8,0.4-3.6,0.8-5.4,1.4c-2.2,0.7-4.4,1.6-6.5,2.4c-0.9,0.3-1.8,0.7-2.7,1c0.5-0.3,1.1-0.6,1.6-0.9
		c-1.2,0.3-2.4,0.8-3.5,1.3c-2,1-3.9,2-5.8,3l0,0c0.2-0.2,0.3-0.4,0.5-0.5c4.3-2.4,8.5-5,13.6-5.8c2.1-0.3,4.1-1.2,6.1-1.8
		c1.7-0.5,3.3-1,5-1.5c1-0.3,2-0.4,3-0.6c-0.2-0.1-0.3-0.1-0.5-0.1c-3.7,0.7-7.4,1.4-11,2.3c-2.8,0.7-5.7,1.6-8.4,2.6
		c-2.3,0.9-4.5,2.2-6.7,3.4c-4.9,2.8-9.3,6.1-13.4,10c-3.7,3.5-7,7.4-9.8,11.8c0,0,0,0,0-0.1c0,0,0,0,0-0.1
		c-0.1,0.1-0.3,0.1-0.4,0.3c-0.9,1.6-1.9,3.3-2.8,4.9c-0.1,0.1,0,0.3-0.1,0.4c-0.9,1.8-1.8,3.6-2.7,5.3c-0.4,0.9-0.7,1.9-1.1,2.8
		c0,0.1-0.1,0.1-0.1,0.2c-0.5,1.1-1,2.2-1.4,3.3c-1,2.6-1.9,5.2-2.3,8c-0.7,4-0.9,8.1-0.5,12.2c0.2,2.6,0.8,5.2,1.2,7.8
		c0.2,1.1,0.4,2.2,0.6,3.4c-0.1,0-0.1,0-0.2,0c-0.8-3.5-1.6-7-2.3-10.5c0,0-0.1,0-0.1,0c0.1,1.1,0.2,2.1,0.3,3.2
		c0.3,2.3,0.5,4.6,0.9,6.9c0.4,2.4,1,4.8,1.6,7.2c1,3.8,2.6,7.4,4.4,10.9c2.1,4,4.4,7.9,7.1,11.7c0.2,0.3,0.4,0.7,0.7,1
		c1.1,1.2,2.2,2.5,3.3,3.7c0,0,0.1,0,0.4,0.2c-2.4-4-4.7-7.8-7-11.7c0.1,0,0.1-0.1,0.2-0.1c0.6,0.9,1.2,1.7,1.8,2.6
		c1.8,2.8,3.6,5.7,5.5,8.4c2,2.8,4.2,5.4,6.9,7.6c1.5,1.3,2.8,2.7,4.3,4c1.2,1,2.5,1.8,3.7,2.8c0.7,0.6,1.4,1.2,2.1,2
		c-0.7-0.4-1.4-0.7-2-1.1c-3.2-1.9-5.9-4.4-8.8-6.7c-3.9-3.1-7.2-6.7-10.3-10.6c-2.6-3.3-4.7-6.9-6.6-10.7c-1-1.9-2.1-3.7-3-5.6
		c-1.1-2.4-2.1-4.7-3.1-7.2c-0.7-1.8-1.4-3.6-1.9-5.4c-0.7-2.6-1.1-5.3-1.6-7.9c-0.8-4.5-0.7-9-0.6-13.6c0.1-1.9,0-3.9,0.3-5.8
		c0.4-2.6,0.9-5.2,1.5-7.8c0.9-3.9,2.4-7.6,4-11.3c0.8-1.8,1.8-3.6,2.8-5.4c1.8-3.2,3.8-6.2,6-9.1c3.2-4.1,6.9-7.8,11-11.1
		c3-2.5,6.3-4.6,9.7-6.6c4.6-2.6,9.4-4.9,14.4-6.5c2.6-0.8,5.3-1.5,8-2.1c1.6-0.4,3.2-0.7,4.9-0.9c1.3-0.2,2.7-0.2,4-0.3
		c2.8-0.1,5.6-0.2,8.3-0.1c2.5,0.1,5,0.4,7.4,0.8c2.4,0.3,4.8,0.8,7.1,1.4c2.3,0.6,4.5,1.3,6.8,2.1c1.2,0.4,2.3,0.9,3.4,1.5
		c-22-8.3-43-5.8-63.3,5.3c0,0.1,0,0.2,0.1,0.3c0.2-0.1,0.4-0.2,0.6-0.3c6.6-3.5,13.6-5.9,20.9-7.4c3.9-0.8,7.8-1.1,11.8-1.3
		c3.9-0.2,7.8,0.1,11.6,0.5c4,0.4,7.9,1.3,11.8,2.5c3.4,1.1,6.8,2.4,10,3.9c4.2,2,8.2,4.3,12,7c4.2,3,7.9,6.4,11.2,10.4
		c0.3,0.3,0.5,0.6,0.7,1c0.2,0.3,0.2,0.6,0.3,1.1c-6-7.2-13.4-12.4-21.6-16.6c0.1,0.1,0.2,0.2,0.4,0.3c4.5,2.5,8.6,5.5,12.3,9.1
		C-117.9,54.9-117.7,55.1-117.4,55.4L-117.4,55.4z M-228.7,78.9c-2,4.2-3.5,8.5-4.4,13C-231.7,87.5-230.2,83.2-228.7,78.9z"/>
	<path d="M-143.6,98.5c0.6,1.1,1.3,2.1,1.9,3.2c0.1,0,0.1,0,0.2,0c0-0.3,0.1-0.7,0-0.9c-0.4-1.5-1.1-2.7-2.1-3.9
		c-1.4-1.7-2.9-3.3-4.7-4.6c-0.1-0.1-0.2-0.2-0.3-0.3c0-0.1,0.1-0.1,0.1-0.2c0.5,0.2,1,0.4,1.5,0.6c0.5,0.3,0.9,0.6,1.4,1
		c-0.1-0.6-1.1-1.6-2.6-2.5c-1-0.7-2.1-1.3-3.2-1.9c-1.1-0.5-2.3-0.9-3.4-1.5c0.5,0.1,1.1,0.1,1.6,0.3c4.1,1.5,7.7,3.7,10.6,7.1
		c0.6,0.7,1,1.4,1.6,2.1c0.1,0.1,0.2,0.2,0.4,0.2c-0.2-0.5-0.4-1.1-0.6-1.6c-0.1-0.2,0-0.4,0-0.6c0.2,0.1,0.4,0.1,0.5,0.3
		c1.1,1.7,2,3.5,2.4,5.5c0.4,2.3,0.5,4.5,0.9,6.8c0.5,3.3-0.3,6.3-1.5,9.2c-0.6,1.4-1.2,2.1-2.2,2.8c0.3-0.7,0.6-1.1,0.8-1.7
		c0.5-1.4,1.1-2.8,1.4-4.3c0.2-0.8,0-1.6,0.1-2.4c0.4-2.5,0-4.9-0.3-7.3c0-0.1-0.1-0.3-0.2-0.5c-0.1,0.1-0.2,0.2-0.2,0.3
		c-0.2-0.4-0.3-0.8-0.5-1.2c-0.1-0.2-0.3-0.2-0.4-0.4c-0.1,0.2-0.3,0.4-0.3,0.6c0,1.1,0,2.2,0,3.3c0,0.6,0,1.1,0,1.7
		c0,0.8,0,1.7-0.1,2.5c-0.2,1.1-0.5,2.1-0.8,3.2c0.7-2.5,0.3-4.9,0-7.4c-0.3-2.5-1.4-4.7-2.2-7C-143.8,98.6-143.7,98.6-143.6,98.5z"
		/>
	<path d="M-229.8,84.3c0-0.1,0.1-0.1,0.1-0.2c0.4-0.9,0.7-1.9,1.1-2.8c0.9-1.8,1.8-3.6,2.7-5.3c1-1.6,1.9-3.2,2.9-4.8
		c0,0.1,0,0.2-0.1,0.4c0.1,0,0.1,0.1,0.2,0.1c0.4-0.4,0.9-0.8,1.3-1.3c0.7-0.9,1.3-1.9,2-2.8c4.5-5.7,9.5-10.7,15.6-14.6
		c3.2-2,6.5-4,10.1-5.4c-1,0.6-1.9,1.1-2.9,1.7c-1.4,0.8-2.9,1.5-4.3,2.4c-2.4,1.6-4.9,3.3-7.2,5.1c-3.7,2.9-6.8,6.4-9.7,10.1
		c-0.1,0.1-0.2,0.3-0.4,0.4c0.4-0.5,0.8-1.1,1.2-1.6c-0.8,0.3-4.5,5.6-6.3,8.7c-1.8,3.2-3.4,6.4-4.7,9.7c-1.3,3.4-2.4,6.8-3.1,10.5
		c-0.1-0.2-0.1-0.3-0.2-0.4c0,0-0.1,0-0.1,0c-0.3,1.8-0.7,3.6-1,5.4c0.2-5.7,2-11.1,3.9-16.5c-0.1,0-0.2-0.1-0.3-0.1
		c-1.1,3.1-2.1,6.2-3.2,9.4c0.3-1,0.5-1.9,0.7-2.8c0.2-0.9,0.5-1.8,0.7-2.6C-230.5,86.1-230.1,85.2-229.8,84.3z"/>
	<path d="M-212.2,126.7c2.8,5.3,6.3,10.1,10.7,13.9c4.5,3.8,9.1,7.4,14.9,9.1c-0.2,0-0.4-0.1-0.6-0.1c-0.2,0-0.4,0-0.5,0
		c0,0.1,0,0.1-0.1,0.2c1.3,0.5,2.6,1,3.8,1.5c0,0-0.1,0-0.1,0c-0.1,0-0.2,0-0.3,0c-2.2-0.1-4.2-0.8-6.2-1.7
		c-3.7-1.7-7.2-3.8-10.3-6.4c-3.7-3.1-6.6-6.7-8.9-10.9c-0.8-1.5-1.5-3.1-2.2-4.6C-212.1,127.3-212.1,127-212.2,126.7z"/>
	<path d="M-187.5,89.5c0,0.2-0.1,0.4-0.1,0.7c2-1.3,3.9-2.4,6-3.1c-1.7,1.2-3.5,2.3-5.2,3.5c-0.9,0.7-1.8,1.5-2.6,2.4
		c-0.8,0.8-1.5,1.6-2.7,1.7C-192.1,93.7-188.9,90-187.5,89.5z"/>
	<path d="M-112.7,145.8c2.7-3.8,5-8,7.1-12.2c1.1-2.2,2-4.5,2.5-6.9c0-0.1,0.1-0.2,0.1-0.3c0,0,0.1,0,0.3-0.1
		c-0.2,0.8-0.2,1.6-0.5,2.2c-0.7,1.8-1.3,3.7-2.1,5.5c-1.8,4.1-4.1,8-7,11.5C-112.4,145.6-112.6,145.7-112.7,145.8L-112.7,145.8z"/>
	<path d="M-212.4,143.8c3.2,2.7,6.5,5.3,9.7,8c0,0.1-0.1,0.1-0.1,0.2c-3.7-2.1-7.2-4.5-9.8-8C-212.6,143.9-212.5,143.8-212.4,143.8z
		"/>
	<path d="M-205,84c-1.1,2.5-2.3,5.1-3.4,7.8c-1,2.7-1.8,5.5-2.6,8.1C-210.8,95.1-207.7,86.9-205,84z"/>
	<path d="M-102.3,85.7c-1.4-3-2.8-5.9-4.1-8.9C-104.6,79.6-103.2,82.5-102.3,85.7z"/>
	<path d="M-178.1,84.7c-2.4,1-4.9,2.1-7.5,3.2c0-0.1,0-0.1-0.1-0.2C-183.3,86.1-180.7,85.2-178.1,84.7z"/>
	<path d="M-236.8,120.2c0.4,2,0.9,4,1.3,6c-0.1,0-0.2,0-0.3,0.1c-0.6-2-1.1-4-1.4-6C-237,120.2-236.9,120.2-236.8,120.2z"/>
	<path d="M-190.1,98.1c-0.8,1.7-1.6,3.3-2.3,4.9C-192.8,102.1-191.4,99.1-190.1,98.1z"/>
	<path d="M-195.7,91.6c-0.1,1-1.6,3.6-2.3,4.1C-197.4,94.3-196.7,92.9-195.7,91.6z"/>
	<path d="M-131.9,115.5c-0.2,1.5-1,2.9-2,4.1c0.6-1.4,1.2-2.8,1.8-4.2C-132.1,115.4-132,115.5-131.9,115.5z"/>
	<path d="M-230.9,139.1c0.4,0.6,0.9,1.3,1.2,1.9c0.7,1.2,1.4,2.4,2,3.6c0,0-0.1,0.1-0.1,0.1c-0.4-0.6-0.7-1.2-1.1-1.8
		c-0.6-1.1-1.3-2.2-1.9-3.3C-230.8,139.6-230.8,139.3-230.9,139.1C-230.8,139.1-230.9,139.1-230.9,139.1z"/>
	<path d="M-214.3,116.4c0.2,1.3,0.4,2.6,0.6,3.9c-0.6-1.2-1-2.5-0.8-3.8C-214.5,116.5-214.4,116.4-214.3,116.4z"/>
	<path d="M-214.7,112.1c0,1.1,0,2.3,0,3.5C-215.1,114.9-215.2,112.8-214.7,112.1z"/>
	<path d="M-195.9,121.4c-0.6-0.9-1.2-1.8-1.7-2.8c0.7,0,1.6,1.4,1.9,2.6C-195.8,121.4-195.9,121.4-195.9,121.4z"/>
	<path d="M-200.5,76.3c0.9-0.9,1.7-1.7,2.6-2.6c0.1,0,0.1,0.1,0.2,0.1c-0.9,0.9-1.7,1.8-2.6,2.7C-200.4,76.4-200.4,76.4-200.5,76.3z
		"/>
	<path d="M-204.8,154.2c0.7,0.8,1.3,1.5,2,2.3c-1-0.4-1.5-1.4-2.1-2.1C-204.9,154.3-204.8,154.2-204.8,154.2z"/>
	<path d="M-224.8,148c-0.6-0.9-1.3-1.9-1.9-2.8c0.1,0,0.1-0.1,0.2-0.1c0.6,0.9,1.3,1.9,1.9,2.8C-224.7,147.9-224.7,147.9-224.8,148z
		"/>
	<path d="M-112.8,145.8c-0.3,0.4-0.5,0.9-0.8,1.3c-0.3,0.4-0.7,0.8-1,1.2c-0.1,0-0.1-0.1-0.2-0.1
		C-114.1,147.4-113.4,146.6-112.8,145.8C-112.7,145.8-112.8,145.8-112.8,145.8z"/>
	<path d="M-237.2,117.5c0.1,0.6,0.1,1.3,0.2,1.9c-0.1,0-0.2,0-0.3,0c-0.1-0.6-0.1-1.3-0.2-1.9C-237.5,117.6-237.3,117.6-237.2,117.5
		z"/>
	<path d="M-230.8,139.1c-0.6-0.9-1.1-1.8-1.7-2.8c0.1,0,0.2-0.1,0.3-0.1C-231.8,137.2-231.3,138.2-230.8,139.1
		C-230.9,139.1-230.8,139.1-230.8,139.1z"/>
	<path d="M-135.6,116.3c0.2-0.6,0.5-1.2,0.7-1.9c0.1,0,0.1,0,0.2,0.1c-0.2,0.6-0.4,1.3-0.7,1.9
		C-135.4,116.3-135.5,116.3-135.6,116.3z"/>
	<path d="M-131,109.6c0,0.7,0,1.4,0,2.1c-0.1,0-0.1,0-0.2,0c0-0.7,0-1.4,0-2.1C-131.1,109.6-131,109.6-131,109.6z"/>
	<path d="M-229.2,140.4c0.3,0.5,0.6,1,0.8,1.5c-0.1,0-0.1,0.1-0.2,0.1c-0.3-0.5-0.6-1-0.8-1.5C-229.3,140.5-229.3,140.4-229.2,140.4
		z"/>
	<path d="M-131.9,53.3c-0.3-0.1-0.5-0.2-0.8-0.4c-0.3-0.1-0.5-0.3-0.8-0.4c0-0.1,0-0.1,0.1-0.2c0.5,0.2,1.1,0.5,1.6,0.7
		C-131.8,53.1-131.9,53.2-131.9,53.3z"/>
	<path d="M-224,110.7c-0.1-1-0.1-2-0.2-3.1c0.1,0,0.1,0,0.2,0C-224,108.7-224,109.7-224,110.7C-224,110.7-224,110.7-224,110.7z"/>
	<path d="M-117.4,55.4c0.3,0.3,0.7,0.6,1,0.9c-0.1,0.1-0.2,0.1-0.3,0.2C-116.9,56.1-117.1,55.7-117.4,55.4
		C-117.4,55.4-117.4,55.4-117.4,55.4z"/>
	<path d="M-201.1,50.7c-0.9,0.6-1.9,1.2-2.8,1.8c0,0-0.1-0.1-0.1-0.1C-203,51.9-202,51.3-201.1,50.7
		C-201.1,50.8-201.1,50.7-201.1,50.7z"/>
</g>
<g>
	<path d="M-247,247.1c8.9-8.5,17.5-16.6,26.3-24.9c2.2,1.4,3.8,3.6,5.8,5.4c1.9,1.7,3.6,3.6,5.8,5.8c0-6.6,0-12.7,0-19.4
		c12.8,1.4,25.1,2.5,37.8-0.1c0,7,0,13.6,0,20.5c4.4-4.4,8.3-8.3,12-12c0.7,0,0.9,0,1.1,0c0.2,0,0.4,0,0.5,0.1
		c8.4,8.4,16.9,16.9,25.5,25.5c-1.4,2.5-3.7,4.1-5.5,6c-1.7,1.9-3.6,3.6-5.7,5.7c2.9,0.6,5.6,0.2,8.2,0.3c2.7,0.1,5.4,0,8.3,0
		c0,12.9,0,25.6,0,38.5c-5.7,1.9-11.4-2.1-17.2-0.5c4,3.8,8,7.7,12.1,11.7c-2.6,4.3-6.1,6.8-9,9.9c-3,3.1-14.6,15.6-18.5,17.4
		c-3.4-5-7.7-8.2-11.6-12.7c-0.8,7-0.1,13.5-0.5,20.3c-5.6-0.9-15.4-1.1-18.7-1c-3.1,0.1-15.3,0.6-18.7,1.4c0-6.4,0-12.6,0-19.7
		c-4.3,4.3-7.9,7.9-11.2,11.2c-8.8-8.8-17.3-17.3-26.4-26.4c1.5-4.5,6.7-7.4,10.4-12c-5.9-1.7-11.5,2.1-17.4,0.4
		c0-12.6,0-25.4,0-38.5c5.7,0,11.4,0,16.8,0c0.3-0.3,0.6-0.5,0.6-0.6c0-0.1-0.2-0.3-0.4-0.4c-2.9-2.9-5.9-5.8-8.7-8.8
		C-245.9,249.3-246.4,248.1-247,247.1z M-152.4,318.8c0.4-0.4,0.8-0.8,1.2-1.2c3-1.8,5-4.6,7.6-7.1c-4-4-7.7-7.7-11.6-11.6
		c2.9-3.5,5.5-6.6,8-9.6c4.8,0,9.1,0,13.5,0c0-6.7,0-13.2,0-20c-4.7,0-9.1,0-13.8,0c-2.5-3.1-4.9-6.2-7.2-9
		c3.9-3.9,7.4-7.4,11.2-11.2c-5.8-4.7-8.8-11.3-14.9-15.3c-3.8,3.8-7.5,7.5-11.4,11.4c-3.4-2.8-6.6-5.4-9.5-7.8c0-2.8,0-4.9,0-7.1
		c0-2.3-0.1-4.6-0.1-6.6c-7.3,0-14.1,0-21.1,0c0,4.7,0,9.1,0,12c-3.5,3.5-6.1,6.1-8.8,8.8c-4.8-1.9-7.5-6.8-10.7-10.2
		c-4.9,4.9-9.6,9.6-14.5,14.5c1.6,1.6,3.5,3.5,5.4,5.4c1.8,1.9,4.1,3.5,5.3,5.7c-3.3,3.3-6.3,6.3-9.8,9.8c-3.4,0-7.5,0-11.4,0
		c0,6.7,0,13.1,0,19.7c4.2,0,8.3,0,10.7,0c3.9,3.9,6.9,6.9,10.1,10.1c-3.1,3.7-7.5,6.9-10.6,11.1c4.8,4.8,9.3,9.3,13.9,13.9
		c3-3,6-6.1,9.1-9c0.9-0.8,2.4-2.4,3-1.7c3,3.3,5.7,5.1,8.6,6.8c0,4.9,0,9.7,0,14.5c7,0,13.9,0,20.9,0c0-5,0-9.8,0-14.6
		c2.8-1.1,8.6-6.3,10.7-7.1c3.7,3.7,7.3,7.3,11.2,11.2c1.1-1.3,2.6-3,4-4.7C-153.2,319.6-152.8,319.2-152.4,318.8z"/>
	<path d="M-173.1,315.3c-10.9,0-21.2,0-32,0c-1-6,3.9-9.8,5.3-15.1c-3-3-6.1-6.1-9.6-9.6c-5.5-0.6-9.6,4.7-15.4,4.7
		c-0.4-0.5-0.9-1.1-1.7-2c0-7.4-0.1-15.2,0.1-23c0.1-2.3,1-4.6,1.5-7c5.2,2.3,10,4.4,14.3,6.2c3.8-3.8,7.2-7.2,10.9-10.9
		c-1.8-4.2-3.9-9.2-6.2-14.7c1.6-0.1,2.7-0.2,3.8-0.3c4.7-0.4,9.6-1.6,14.2-0.9c4.7,0.7,9.4,0.7,14.4,1c-0.7,5.7-4.5,10-5.8,14.6
		c3.7,3.7,7.2,7.2,11,11c4.1-1.7,9.1-3.8,14-5.8c0.3,0.2,0.5,0.3,0.6,0.4c0.1,0.1,0.3,0.3,0.3,0.5c0,10.2,0,20.3,0,30.4
		c-2.4,1.7-4.5,0-6.4-0.7c-3.4-1.2-6.5-3.2-9.8-3.7c-3.4,3.4-6.4,6.4-9.9,9.9c1.3,2.7,2.9,5.9,4.4,9.2
		C-174.5,311.3-173.9,313.2-173.1,315.3z M-185.2,250.8c-3.4,0-6.4,0-9.6,0c1.6,3.7,3.1,7.1,4.8,10.9c-2.9,2.9-5.6,6.4-9,8.8
		c-3.4,2.4-5.5,6-8.5,8.7c-3.6-1.4-7-2.7-10.6-4.1c0,3.5,0,6.5,0,10c3.6-1.8,6.8-3.3,9.8-4.8c6.1,5.7,12.2,11.3,18.2,17
		c-1.5,3.6-3,7.1-4.5,11c3.3-0.2,6.3,0.2,9.6-0.3c-1.7-4.4-4.4-7.9-3.8-12.5c6.9-3.9,11.1-10.6,16.8-15.1c3.8,1.5,7.2,3,11.1,4.6
		c0-3.7,0-7.1,0-10.5c-3.7,1.6-7.3,3.1-10.6,4.5c-6.1-5.3-10.7-11.8-17.3-15.8C-189.4,258.5-186.6,255-185.2,250.8z"/>
</g>
<text transform="matrix(1 0 0 1 -192.0181 286.5946)" style="stroke:#000000;stroke-width:2;stroke-miterlimit:10; font-family:'Zpix'; font-size:21.2606px;">1</text>
<text transform="matrix(-0.6931 0.7208 -0.7208 -0.6931 -160.9125 300.4423)" style="stroke:#000000;stroke-width:2;stroke-miterlimit:10; font-family:'Zpix'; font-size:21.2606px;">0</text>
<text transform="matrix(-0.6931 0.7208 -0.7208 -0.6931 -219.9762 243.6497)" style="stroke:#000000;stroke-width:2;stroke-miterlimit:10; font-family:'Zpix'; font-size:21.2606px;">0</text>
<text transform="matrix(-0.7208 -0.6931 0.6931 -0.7208 -210.7141 306.7305)" style="stroke:#000000;stroke-width:2;stroke-miterlimit:10; font-family:'Zpix'; font-size:21.2606px;">0</text>
<text transform="matrix(-0.7208 -0.6931 0.6931 -0.7208 -153.6158 248.9677)" style="stroke:#000000;stroke-width:2;stroke-miterlimit:10; font-family:'Zpix'; font-size:21.2606px;">0</text>
<text transform="matrix(-0.9996 2.773516e-02 -2.773516e-02 -0.9996 -138.9782 272.4193)" style="stroke:#000000;stroke-width:2;stroke-miterlimit:10; font-family:'Zpix'; font-size:21.2606px;">-</text>
<text transform="matrix(-0.9996 2.773516e-02 -2.773516e-02 -0.9996 -231.1987 272.4195)" style="stroke:#000000;stroke-width:2;stroke-miterlimit:10; font-family:'Zpix'; font-size:21.2606px;">-</text>
<text transform="matrix(2.773521e-02 0.9996 -0.9996 2.773521e-02 -195.6786 321.9842)" style="stroke:#000000;stroke-width:2;stroke-miterlimit:10; font-family:'Zpix'; font-size:21.2606px;">-</text>
<text transform="matrix(2.773521e-02 0.9996 -0.9996 2.773521e-02 -196.8168 229.3444)" style="stroke:#000000;stroke-width:2;stroke-miterlimit:10; font-family:'Zpix'; font-size:21.2606px;">-</text>
<g>
	<path d="M38.8,238.8c-2.1-0.3-4.1-0.6-6.1-0.9c-1.4-0.2-1.6-0.3-2-1.7c-0.8-3.3-2.1-6.4-3.7-9.4c-1.8-3.3-4.2-6.2-7.1-8.4
		c-4.2-3.2-8.9-5-14.3-4.2c-3.2,0.5-6,1.9-8.6,3.7c-2.7,2-5,4.3-6.8,7.2c-1.8,2.8-3.2,5.7-4.1,8.9c-0.7,2.5-1.4,5-2,7.5
		c-0.5,2.5-0.8,5.1-1.3,7.6c-0.4,2.3-0.9,4.7-1.6,7c-0.9,3.3-2.1,6.5-3.9,9.4c-1.9,3.2-4,6.2-6.1,9.3c-3.1,4.5-6.3,8.9-8.3,14
		c-1.5,3.7-2.4,7.5-2.3,11.6c0.2,8.4,5.6,15.6,13.2,18.2c1.3,0.4,2.7,0.6,4.1,0.8c1.1,0.1,1.7,0.5,2.3,1.4c1.2,2,2.5,4,3.8,6
		c0,0.1,0.1,0.1,0.1,0.3c-0.6,0-1.1,0.1-1.6,0.1c-6.7,0.3-13-1.2-18.5-5.2c-3.6-2.7-6.4-6.1-8.3-10.2c-1.2-2.5-1.9-5.1-2.3-7.8
		c-0.4-3-0.4-6,0.2-8.9c0.4-2.2,1-4.4,1.7-6.5c1.7-5.7,4.9-10.6,8.4-15.4c2.3-3.2,4.5-6.6,6.7-9.9c2-3,3.1-6.5,4.1-9.9
		c0.8-2.8,1.3-5.6,1.7-8.4c0.6-3.7,1.3-7.4,2.2-11c1.7-7.1,5.1-13.3,10.3-18.5c2.8-2.8,5.9-5.1,9.5-6.6c5-2.2,10.1-2.7,15.4-1.4
		c6,1.5,10.7,5,14.8,9.4c3.2,3.3,5.4,7.3,7.2,11.4c1.1,2.6,1.8,5.4,2.6,8.1c0.2,0.7,0.3,1.5,0.5,2.3
		C38.9,238.5,38.8,238.7,38.8,238.8z"/>
	<path d="M8.4,247.3c3.7,0,7.3,0.7,10.6,2.5c4.5,2.5,8.2,5.8,10.2,10.6c1.7,4.2,1,8.6-2.3,12.1c-1.4,1.5-2.9,2.8-4.3,4.4
		c-1.5,1.8-2.5,3.9-2.6,6.3c-0.2,1.9,0.4,3.7,1.4,5.4c0.6,1.1,1.2,2.2,1.7,3.4c0.6,1.5-0.6,3.2-2.3,3.3c-1.2,0.1-2.1-0.4-2.8-1.4
		c-0.9-1.4-1.7-2.8-2.6-4.3c-0.2-0.3-0.3-0.6-0.5-0.8c-0.5-0.9-1.3-1.3-2-1.1c-0.8,0.2-1.5,1-1.6,1.9c-0.3,2.2-0.6,4.4-0.9,6.5
		c-0.3,1.8-1.7,2.8-3.4,2.4c-1-0.3-1.7-1-1.8-2.1c-0.1-2.1-0.2-4.2-0.3-6.3c0-0.9-0.3-1.7-1.1-2.2c-0.8-0.5-1.4-0.6-2,0.2
		c-0.8,0.9-1.4,2-2,3c-0.6,0.9-1.1,1.8-1.7,2.7c-1.3,2-3.8,2-4.9,0c-0.5-0.9-0.3-1.9,0.2-2.8c0.6-1.2,1.3-2.4,1.9-3.6
		c1.2-2.6,0.9-5.2-0.2-7.8c-1-2.2-2.5-4-4.2-5.6c-1.6-1.5-3.1-3-4-5.1c-1.2-2.9-1.2-5.8,0.2-8.6c2.5-5.4,6.8-8.9,12.1-11.2
		C2.1,247.7,5.2,247.3,8.4,247.3z M8.1,273.2c5.2,0.1,8.7-4.2,8.6-8.6c-0.1-4.9-3.8-8.7-9.3-8.5c-4.5,0.2-8.2,4-8.1,8.9
		C-0.6,269.3,3.3,273.5,8.1,273.2z"/>
	<path d="M-22.8,305.7c0.9,0.1,1.7,0.3,2.5,0.4c1.4,0.2,2.9,0.4,4.3,0.7c1,0.2,1.3,0.5,1.5,1.8c0.7,3.5,2,6.8,3.9,9.9
		c1.4,2.2,2.9,4.3,4.9,6.1c3.6,3.2,7.5,5.7,12.4,6.2c2.6,0.3,5.2-0.2,7.6-1.2c3.4-1.3,6.3-3.4,8.7-6.1c3.3-3.7,5.9-7.8,7.2-12.6
		c0.7-2.5,1.2-5,1.6-7.5c0.6-3.1,0.9-6.3,1.7-9.4c0.7-3.1,1.7-6.1,2.6-9.2c1.2-3.8,3-7.3,5.1-10.7c0.1-0.1,0.2-0.3,0.4-0.5
		c0.8,1.2,1.6,2.3,2.4,3.5c0.6,0.9,1.2,1.8,1.9,2.6c0.3,0.4,0.3,0.8,0,1.2c-1.9,2.8-3.1,6-4,9.3c-0.8,2.7-1.2,5.5-1.7,8.3
		c-0.5,2.6-0.9,5.3-1.5,7.9c-0.6,2.7-1.2,5.3-2,7.9c-0.6,2-1.4,3.9-2.4,5.7c-1.3,2.3-2.7,4.6-4.3,6.7c-3.9,5-8.8,8.7-14.9,10.6
		c-6.9,2.1-13.4,1.1-19.6-2.6c-2.8-1.7-5.1-3.9-7.3-6.2c-4.1-4.2-6.9-9.1-8.7-14.6c-0.8-2.4-1.4-4.8-2.1-7.2
		C-22.9,306.4-22.8,306.1-22.8,305.7z"/>
	<path d="M32.1,326.9c0.9-1.4,1.8-2.7,2.6-4.1c0.5-0.8,1-1.7,1.4-2.5c0.3-0.5,0.6-0.8,1.2-0.8c1.4-0.2,2.8-0.3,4.2-0.7
		c4.2-1.1,7.4-3.6,9.9-7.1c2.4-3.4,3.6-7.2,4-11.4c0.3-3.9-0.7-7.5-2.1-11.1c-1.8-4.6-4.5-8.7-7.3-12.6c-3.3-4.5-6.4-9.1-8.8-14.1
		c-1.7-3.6-2.9-7.3-3.8-11.1c-0.2-0.8-0.4-1.5-0.6-2.4c0.3,0,0.5,0,0.7,0.1c2,0.3,4,0.7,6,1c0.8,0.1,1.1,0.4,1.3,1.1
		c1,2.9,1.8,5.8,3.1,8.5c1.4,2.9,3.2,5.6,4.9,8.4c2.7,4.1,5.5,8.1,8.1,12.2c1.9,2.9,3.2,6.1,4.2,9.5c1.3,4.3,1.9,8.6,1.5,13.1
		c-0.4,4.7-2.1,8.9-4.7,12.9c-3.5,5.3-8.4,8.7-14.4,10.4c-3.7,1.1-7.5,1.2-11.3,1C32.2,327,32.2,326.9,32.1,326.9z"/>
	<path d="M-9,227.2c1.4-2.1,2.7-4,4.4-5.6c0.4-0.3,0.8-0.4,1.3-0.2c3.3,1.3,6.2,3.2,9,5.2c4.2,2.9,8.2,6.1,12.7,8.6
		c2.4,1.3,4.9,2.3,7.5,3.1c3.5,1.1,7.1,1.4,10.7,2c4.9,0.9,9.8,1.9,14.4,3.8c0.3,0.1,0.6,0.3,0.9,0.4c1.7,0.8,1.8,1,1.5,2.8
		c-0.3,1.7-0.8,3.4-1.2,5.2c0,0.1-0.1,0.2-0.2,0.4c-0.9-0.5-1.8-1-2.8-1.4c-3.6-1.7-7.3-2.9-11.3-3.5c-4.3-0.7-8.5-1.4-12.7-2.3
		c-4.5-0.9-8.6-2.9-12.4-5.3c-3.8-2.4-7.5-5.1-11.2-7.7c-3.2-2.3-6.6-4.1-10.4-5.2C-8.6,227.4-8.7,227.3-9,227.2z"/>
	<path d="M25.3,317.6c-1.5,1.8-3,3.6-4.6,5.4c-0.2,0.2-1,0.2-1.4,0c-2.8-1.4-5.6-2.8-8.3-4.5c-4-2.5-7.7-5.3-11.7-7.9
		c-2.8-1.8-5.8-3.4-9-4.2c-3.2-0.8-6.4-1.4-9.7-2c-5.7-1.1-11.5-2.1-16.9-4.5c-0.8-0.4-1.3-0.8-1.1-1.7c0.4-1.9,0.7-3.8,1-5.8
		c0.1-0.5,0.4-0.6,0.9-0.4c2.6,1.1,5.1,2.2,7.8,3.1c1.6,0.6,3.3,0.9,5,1.2c3.2,0.6,6.5,1.1,9.6,1.8c2.8,0.6,5.6,1.4,8.3,2.3
		c3.5,1.2,6.7,3,9.8,5.1c2.5,1.7,4.9,3.5,7.3,5.2c3.7,2.6,7.5,4.8,11.8,6.1c0.3,0.1,0.7,0.2,1,0.3C25.2,317.4,25.2,317.5,25.3,317.6
		z"/>
	<path d="M31.8,217.7c0.8-0.1,1.4-0.1,2-0.2c5.2-0.2,10.2,0.7,14.8,3.2c3.7,2,6.9,4.7,9.3,8.2c1.5,2.3,2.8,4.7,3.7,7.4
		c1.1,3.2,1.2,6.6,1.2,10c-0.1,3.7-1.2,7.2-2.3,10.7c-1.5,4.8-4,9.1-6.8,13.3c-0.5,0.8-0.7,0.8-1.2,0c-1.1-1.6-2.2-3.3-3.3-5
		c-0.4-0.6-0.4-1.1,0-1.7c1.2-2.3,2.5-4.6,3.6-7c1.6-3.6,2.7-7.3,2.6-11.3c-0.1-4-0.8-7.8-3.1-11.2c-3-4.6-7.1-7.7-12.6-8.7
		c-0.8-0.1-1.6-0.3-2.4-0.3c-0.7,0-1-0.4-1.4-0.9c-1.1-1.9-2.2-3.7-3.4-5.6C32.4,218.4,32.2,218.2,31.8,217.7z"/>
	<path d="M-25,241.6c-0.2,1.1-0.4,2.1-0.5,3.2c-0.2,1.2-0.4,2.4-0.6,3.7c-0.1,0.5-0.2,0.8-0.8,1c-4.2,1.1-8.1,2.6-11.8,4.8
		c-3.9,2.3-7,5.4-9.3,9.3c-1.3,2.2-2.1,4.5-2.5,7c-0.3,1.8-0.1,3.6,0.3,5.4c0.7,2.8,2.1,5.3,3.6,7.7c0,0,0,0,0,0.1
		c1.2,1,0.8,2.1,0.4,3.3c-0.6,1.9-1,3.8-1.5,5.7c0,0.1-0.1,0.3-0.2,0.6c-0.7-0.6-1.3-1.2-1.9-1.8c-2.3-2.6-4.4-5.3-5.9-8.5
		c-1-2.1-1.8-4.4-2.1-6.7c-0.2-1.5-0.3-3-0.3-4.6c-0.1-2.1,0.5-4.2,1.1-6.2c2.1-6.8,6.6-11.9,12.3-16c3.5-2.5,7.3-4.5,11.5-5.7
		c2.5-0.7,5-1.4,7.5-2.2C-25.5,241.6-25.3,241.6-25,241.6z"/>
	<path d="M-16,217.9c-0.5,0.7-1,1.3-1.4,2c-0.9,1.5-1.7,3-2.5,4.5c-0.3,0.5-0.5,0.8-1.1,0.8c-2.6,0.3-5.2,0.7-7.6,2
		c-4.5,2.4-7.5,6.1-9.3,10.8c-0.6,1.7-0.9,3.5-1.2,5.3c-0.1,0.7-0.5,1-1.1,1.3c-2.1,1-4.2,2-6,3.6c-0.1,0.1-0.2,0.1-0.5,0.2
		c-0.2-2.5-0.3-4.9,0.1-7.3c0.9-6.6,3.8-12.3,8.8-16.8C-32.2,219.4-19.8,215.7-16,217.9z"/>
	<path d="M64,252.1c0.7,0.6,1.3,1.2,2,1.9c1.9,2.1,3.8,4.3,5.1,6.8c1.5,2.8,2.5,5.7,3,8.9c0.3,2.5,0.2,5-0.3,7.4
		c-0.8,3.6-2.2,7-4.4,9.9c-1.5,1.9-3.1,3.6-4.7,5.4c-0.2,0.2-0.4,0.4-0.7,0.6c-0.4-1.5-0.8-2.9-1.2-4.3c-0.3-0.9-0.6-1.8-0.9-2.7
		c-0.3-0.7-0.2-1.2,0.2-1.8c2.2-2.7,3.8-5.6,4.4-9c0.3-1.8,0.3-3.7,0-5.4c-0.6-3.6-2.4-6.7-4.6-9.5c-0.2-0.2-0.3-0.6-0.2-0.8
		C62.3,257,63.1,254.6,64,252.1z"/>
	<path d="M-25.7,273.8c4.5,6.8,7.3,14.1,9.4,21.9c-2.3-0.4-4.4-0.7-6.5-1c-0.3-0.1-0.7,0-0.9-0.2c-0.3-0.2-0.8-0.4-0.9-0.7
		c-1.1-4.6-2.8-8.9-5.2-12.9c-0.1-0.2-0.2-0.6,0-0.7C-28.6,278-27.2,276-25.7,273.8z"/>
	<path d="M6.7,238.4c-7.1,5.4-17.6,8.2-21.6,8.5c0.2-1,0.3-1.9,0.5-2.8c0.3-1.3,0.6-2.7,0.8-4c0.1-0.5,0.4-0.8,0.9-0.9
		c4.3-0.9,8.4-2.5,12.2-4.9c0.5-0.3,1.1-0.5,1.6,0c1.8,1.3,3.6,2.6,5.4,3.9C6.6,238.2,6.6,238.3,6.7,238.4z"/>
	<path d="M30.9,297.7c-0.3,2.1-0.8,4-0.9,5.9c-0.1,1.6-0.9,2-2.3,2.3c-4,1-7.8,2.5-11.3,4.8c-0.5,0.3-0.9,0.3-1.4-0.1
		c-1.6-1.2-3.3-2.4-5-3.5c-0.7-0.5-0.2-0.8,0.2-1c1.5-1,2.9-2,4.4-2.8c2.7-1.3,5.3-2.6,8.1-3.6c2.1-0.8,4.4-1.1,6.6-1.7
		C29.8,297.9,30.3,297.8,30.9,297.7z"/>
	<path d="M52.3,291.8c0.4,1.5,0.7,2.7,1,4c0.2,1,0.3,2,0.3,2.9c0,0.3-0.2,0.7-0.5,0.8c-2.7,0.9-5.4,1.8-8.1,2.7
		c-1,0.3-2.1,0.5-3.2,0.8c-0.2,0-0.4,0.1-0.7,0.1c0.1-0.8,0.2-1.4,0.3-2.1c0.3-1.5,0.6-3,0.9-4.6c0.1-0.5,0.3-0.9,0.8-1.1
		c2.3-0.8,4.6-1.7,6.8-2.5C50.7,292.6,51.4,292.3,52.3,291.8z"/>
	<path d="M-37.1,255.3c0.4,1,0.6,1.9,1,2.7c1,2,2.1,3.9,3,5.9c0.2,0.3,0.2,0.9,0,1.2c-1.2,1.9-2.6,3.8-4,5.8
		c-0.3-0.4-0.7-0.8-0.9-1.2c-1.7-3.1-3.4-6.2-5.1-9.3c-0.1-0.2,0-0.8,0.2-1C-41.2,257.9-39.2,256.6-37.1,255.3z"/>
	<path d="M25.3,227c-3.1,1.5-5.9,3-8.7,4.4c-0.2,0.1-0.7,0.2-0.9,0c-2-1.3-4-2.6-5.9-4c-0.1,0-0.1-0.1-0.2-0.3
		c1.1-0.7,2.1-1.4,3.2-1.9c2.2-1.2,4.4-2.3,6.6-3.4c0.7-0.4,1.3-0.4,1.9,0.3C22.6,223.7,23.9,225.4,25.3,227z"/>
	<path d="M-4.1,323.3c-0.2-0.1-0.5-0.2-0.6-0.4c-1.3-1.6-2.6-3.1-3.9-4.7c-0.6-0.8-0.5-0.9,0.5-1.4c2.5-1,5-2.1,7.4-3.2
		c0.5-0.2,1-0.3,1.5,0.1c1.6,1.1,3.2,2.2,4.8,3.4c0.7,0.5,0.7,0.7,0,1.1c-2.9,1.7-5.9,3.3-8.9,4.9C-3.5,323.2-3.7,323.2-4.1,323.3z"
		/>
</g>
<g>
	<g>
		<defs>
			<rect id="SVGID_1_" x="-204.6" y="-312.5" width="246" height="246"/>
		</defs>
		<clipPath id="SVGID_00000070089348410167242870000005630916322755997583_">
			<use xlink:href="#SVGID_1_"  style="overflow:visible;"/>
		</clipPath>
		<g style="clip-path:url(#SVGID_00000070089348410167242870000005630916322755997583_);">
			<defs>
				<rect id="SVGID_00000072987952465109448430000013354194926536647068_" x="-204.6" y="-312.5" width="246" height="246"/>
			</defs>
			<clipPath id="SVGID_00000081617396522595374450000005002020505519894948_">
				<use xlink:href="#SVGID_00000072987952465109448430000013354194926536647068_"  style="overflow:visible;"/>
			</clipPath>
			<g transform="matrix(1 0 0 1 0 0)" style="clip-path:url(#SVGID_00000081617396522595374450000005002020505519894948_);">
				
					<image style="overflow:visible;" width="1024" height="1024" xlink:href="3984E99C.png"  transform="matrix(0.2402 0 0 0.2402 -204.6383 -312.5443)">
				</image>
			</g>
		</g>
	</g>
</g>
<g>
	<g>
		<defs>
			<rect id="SVGID_00000137130357214640284980000006939776830324040064_" x="-535.1" y="-657.2" width="246" height="246"/>
		</defs>
		<clipPath id="SVGID_00000073693696414667347230000009606390607783534215_">
			<use xlink:href="#SVGID_00000137130357214640284980000006939776830324040064_"  style="overflow:visible;"/>
		</clipPath>
		<g style="clip-path:url(#SVGID_00000073693696414667347230000009606390607783534215_);">
			<defs>
				<rect id="SVGID_00000069358569442731225940000013274284541388218018_" x="-535.1" y="-657.2" width="246" height="246"/>
			</defs>
			<clipPath id="SVGID_00000045581326667687562180000008601590020898398605_">
				<use xlink:href="#SVGID_00000069358569442731225940000013274284541388218018_"  style="overflow:visible;"/>
			</clipPath>
			<path style="clip-path:url(#SVGID_00000045581326667687562180000008601590020898398605_);fill:#9432BF;" d="M-479.3-595.5
				c1.9-0.1,3.9,0.6,4.3,2.7c0.4,2.4-1.6,4-3,5.6c-2.2,2.4-5.1,4.6-7,7.2c1.1,1.4,3.3,3.3,4.6,4.7c3.2,3.3,6.6,6.5,9.8,9.9
				c2.1,2.3,5,4.5,6.7,7.1c1.2,1.9-1,5.4-3,5.9c-2.6,0.6-5.5,0.3-8.2,0.3c-4,0-8,0-12.1,0c-1.2,0-6-0.3-7.2,0.4
				c-0.6,0.7-0.3,2.9-0.4,3.6c-0.2,2.8,0.4,6.8-0.2,9.4c-0.9,2.6-3.5,3.6-5.8,1.8c-0.9-0.7-1.6-2.2-1.6-3.3c0-2,0-4,0-6
				c0.1-4-0.7-7.8,2.3-11c1.2-1.2,2.7-2.1,4.4-2.5c1.9-0.5,5.4-0.3,7.5-0.3c4,0,8,0.1,12,0c-0.8-0.9-1.7-1.7-2.5-2.5
				c-3.9-4-8-7.8-11.8-11.9c-2.1-2.3-2.3-6.5-0.7-9.2c0.3-0.6,0.7-1.1,1.1-1.6c0.4-0.5,1-1.1,1.5-1.5c2.6-2.5,4.9-5.2,7.6-7.6
				C-480.6-595.1-480-595.3-479.3-595.5z"/>
			<path style="clip-path:url(#SVGID_00000045581326667687562180000008601590020898398605_);fill:#9432BF;" d="M-326.6-531.8
				c1.5-0.1,2.3-0.1,3.5,0.8c0.9,0.7,1.5,2.5,1.5,3.5c0,2.9,0.4,10.6-0.3,13c-0.3,1.3-1,2.5-1.9,3.5c-2.9,3.3-6,2.9-10,2.9
				c-2.9,0-5.9,0-8.8-0.1c-1.7,0-3.8-0.1-5.5,0l-0.2,0c0.9,1.1,2.7,2.8,3.7,3.8l7.5,7.6c1.3,1.3,2.8,2.7,3.9,4.2
				c1.7,2.2,1.8,6.8,0.1,9c-1.4,1.9-3.8,4.1-5.5,5.8c-2.5,2.4-5.4,6.9-9.3,4.1c-1.1-1.3-1.5-3.5-0.4-4.8c2.8-3.3,6.4-6.2,9.2-9.5
				c-1.5-1.6-3.4-3.4-4.9-4.9l-11-11c-1.5-1.5-3.9-3.7-5-5.4c-1.3-1.9,0.6-5.7,2.5-6.2c3.3-0.9,7.9-0.5,11.4-0.5l12.5,0
				c1.2,0,4.2,0.6,4.3-1.1c0.2-3.4-0.1-6.9,0-10.4C-329-529.6-328.6-530.9-326.6-531.8z"/>
			<path style="clip-path:url(#SVGID_00000045581326667687562180000008601590020898398605_);fill:#9432BF;" d="M-346.2-595.1
				c3.5-0.5,6.2,3.4,8.5,5.6c2.6,2.6,6,5.1,6,9c0,1.4-0.1,3-0.9,4.3c-1.8,2.9-4.6,5.4-7,7.8c-2.7,2.7-5.3,5.4-8,8.2l12.1,0
				c2,0,4,0,6,0c4.7,0.2,8.1,4.3,8.1,8.9c0,3,0,5.9,0,8.9c0.1,2.5-0.1,5.6-3.1,6.2c-1.5,0.3-2.6-0.2-3.6-1.2
				c-1.8-2.7-0.6-9.6-0.9-12.9c-0.1-1.2-0.2-1.7-1.5-1.8c-2,0-4,0-6,0c-4.2,0-8.4-0.1-12.7,0c-1.9,0-3.8,0.1-5.6,0.1
				c-1.4,0-2.8-0.2-3.9-1.2c-1-1-1.5-2.1-1.5-3.4c-0.1-2.1,1.4-3,2.7-4.3c1.2-1.3,2.5-2.5,3.7-3.8L-339-580c-1.6-1.7-3.2-3.4-4.9-5
				c-1.3-1.2-2.7-2.5-3.8-3.8C-349.5-591.2-349.2-594.1-346.2-595.1z"/>
			<path style="clip-path:url(#SVGID_00000045581326667687562180000008601590020898398605_);fill:#9432BF;" d="M-499.5-531.8
				c6.7-0.4,4.3,7,4.7,11.3c0.1,1.6-0.6,3.9,0.8,4.6c0.5,0.2,4.5,0.2,5.2,0.1l13.4-0.1c2.4,0,4.9-0.1,7.3,0.1c2,0.2,4.3,1.7,4.6,3.9
				c0.3,2.5-1.4,3.6-3,5.3c-0.7,0.7-1.5,1.5-2.2,2.2l-10.5,10.7c-1.6,1.6-4.2,4.1-5.6,5.8l-0.1,0.1c2.1,2.4,4.8,4.6,6.9,7
				c1.8,2.1,3.4,2.8,2.8,5.8c-1.2,3.3-5,2.8-6.8,0.7c-2.4-2.8-7.3-6.5-9.1-9.5c-0.7-1.1-1.1-2.4-1.1-3.7c-0.1-1.5,0.5-3.6,1.3-4.9
				c1.5-2.3,4.2-4.6,6.1-6.6c2.9-3,5.9-6,8.8-9.1c-4.2-0.2-8.6,0-12.8-0.1c-1.8,0-4.4,0.1-6.2-0.1c-0.7-0.1-1.5-0.3-2.2-0.5
				c-2-0.8-3.7-2.3-4.5-4.3c-0.3-0.8-0.6-1.7-0.7-2.6c-0.2-1.9-0.1-4.9,0-6.9C-502.3-526.1-503.5-530.2-499.5-531.8z"/>
			<path style="clip-path:url(#SVGID_00000045581326667687562180000008601590020898398605_);fill:#9432BF;" d="M-388.5-481.8
				c0.9,0,1.6,0.1,2.4,0.7c2.1,1.7,3.8,3.7,5.7,5.6c4.9,4.8,10,9.6,14.7,14.6c2.4-2.2,4.7-4.6,7-6.9c0.6-0.6,1.3-1.4,2-1.9
				c0.6-0.4,1.3-0.7,2.1-0.8c2.2-0.3,3.9,1,3.8,3.3c0,1.8-0.7,2.8-1.9,4c-2.5,2.5-4.9,5-7.4,7.4c-1.7,1.6-3.3,2-5.6,2.1
				c-4.1,0.1-5.8-2.3-8.4-4.8l-4.9-4.9c-1.6-1.7-4.4-4.4-6.2-6c-0.2,4.1,0,8.5-0.1,12.6c0,2.1,0.2,5-0.1,7c-0.2,1.2-0.6,2.3-1.2,3.3
				c-1.4,2.3-4.7,4.1-7.4,3.9c-3-0.3-11.6,0.7-13.8-0.8c-0.8-0.5-1.4-1.4-1.5-2.3c-0.2-1.1,0.1-2.3,0.8-3.2c0.5-0.6,1.1-1.1,1.8-1.3
				c1.8-0.6,7.4-0.3,9.6-0.2c0.9,0,2,0.1,2.9-0.1c0.4-0.1,1-0.3,1.2-0.7c0.5-1,0.2-18.6,0.2-20.9c0-1.6-0.2-3.4,0-5
				c0.1-0.9,0.5-1.7,1-2.5C-391-481.1-390-481.5-388.5-481.8z"/>
			<path style="clip-path:url(#SVGID_00000045581326667687562180000008601590020898398605_);fill:#9432BF;" d="M-436.8-481.8
				c6.5-0.3,5.7,5.7,5.7,10.1l0,13.5c0,2-0.2,4.2,0.1,6.2c0,0.3,0.1,0.8,0.4,1c1.1,1,10.8,0,13.1,0.5c0.7,0.1,1.3,0.4,1.8,0.8
				c0.8,0.7,1.2,1.6,1.3,2.7c0.1,1-0.2,2-0.9,2.8c-1,1.2-2.3,1.5-3.8,1.6c-2,0.1-3.9,0-5.9,0c-3.9,0-7.7,0.4-10.8-2.5
				c-1.3-1.2-2.1-2.8-2.5-4.5c-0.5-2.3-0.3-4.8-0.3-7.2c0-4.3,0.1-8.5-0.1-12.8c-1.1,0.9-4.2,4.2-5.3,5.3c-1.5,1.5-3.1,3.1-4.6,4.6
				c-1.5,1.5-3.4,3.7-5.3,4.8c-2.5,1.5-7.2,1.3-9.3-0.7c-2.5-2.3-4.8-4.8-7.3-7.2c-1.8-1.7-3.5-3.5-2.2-6.1c1-2,3.8-2.5,5.4-1.2
				c3.3,2.6,6.1,6.2,9.2,8.9c6.7-6.5,13.1-13.4,19.7-20C-437.9-481.4-437.4-481.6-436.8-481.8z"/>
			<path style="clip-path:url(#SVGID_00000045581326667687562180000008601590020898398605_);fill:#9432BF;" d="M-429.2-625.2l6.8,0
				c1.5,0,3.1-0.1,4.5,0.1c0.7,0.1,1.3,0.4,1.9,0.8c0.8,0.6,1.4,1.7,1.4,2.7c0.1,1.1-0.3,2.3-1,3.1c-0.5,0.6-1.3,0.9-2.1,1.1
				c-1.4,0.3-2.9,0.1-4.3,0.1c-2.3,0-4.6-0.1-6.8,0c-0.8,0-1.8,0.1-2.2,0.9c-0.3,0.6-0.1,17-0.1,19.3c0,2.2,0.3,4.8-0.2,6.9
				c-0.2,0.8-0.6,1.6-1.2,2.2c-1.6,1.6-4,2-5.8,0.5c-1.1-0.9-2.2-2-3.2-3c-1.8-1.8-3.6-3.6-5.3-5.4c-3.7-3.8-7.6-7.5-11.2-11.3
				c-0.9,0.8-1.9,1.8-2.7,2.7c-1.4,1.5-2.9,2.9-4.3,4.4c-1.7,1.8-4.4,4.2-6.8,2c-2-1.7-1.2-4.9,0.6-6.4c4-3.4,7.4-9.7,13.2-9.8
				c4.9-0.1,6.9,3.2,10,6.2c3.3,3.1,6.3,6.3,9.5,9.3c-0.1-3.5,0.1-7.3,0-10.9c0-1.8-0.1-7.2,0.2-8.7c0.3-1.5,1-2.8,2.1-4
				C-434.3-624.5-432-625.1-429.2-625.2z"/>
			<path style="clip-path:url(#SVGID_00000045581326667687562180000008601590020898398605_);fill:#9432BF;" d="M-402.8-625.2
				c3.2,0,6.4-0.1,9.5,0c1.8,0.1,3.2,0.7,4.6,1.7c3.6,2.8,3.3,6.3,3.3,10.4l0.1,8.7c0,1.4,0,3.8,0.1,5.2l0,0.2
				c1.4-1.1,3.1-2.9,4.5-4.2l5.9-5.9c2.6-2.6,4.5-5,8.6-5.1c5.5-0.1,8.4,5.2,12.2,8.4c1.6,1.3,3.2,3.1,3.1,5.2
				c0,1.9-1.4,3.5-3.4,3.5c-2,0-3.7-2.2-5-3.5c-2-1.9-4.7-4.9-6.7-6.6c-0.6,0.5-1.5,1.6-2.1,2.2l-4,4c-3.8,4-7.8,7.8-11.6,11.7
				c-1.2,1.1-2.2,2.9-4.1,2.9c-4.1,0-5.3-3.5-5-7c0.1-1.1,0-2.7,0-3.8l0-11.8c0-2.1,0.1-4.2,0-6.3c0-0.5,0-1-0.4-1.4
				c-1.8-1.6-12.4,1-15.1-1.5c-0.7-0.7-1.1-1.6-1.2-2.6c0-1.1,0.4-2.3,1.2-3.1C-406.9-625.5-404.7-625.2-402.8-625.2z"/>
			<path style="clip-path:url(#SVGID_00000045581326667687562180000008601590020898398605_);fill:#9432BF;" d="M-425-532.2
				c1.7-0.1,3.8,0.8,4.9,2.1c2.9,3.3,8.5,6.6,5.5,11.7c-0.6,1.1-2.7,2.9-3.6,3.9l-6.4,6.4c0.4,0.7,0.8,1.6,0.2,2.4
				c-1.1,0.8-2.6-0.5-3.3-1.3c-1.6-1.6-5-4.5-0.5-5c0.6-0.1,5.5-5.2,6.3-5.9c3.4-3.4,4-3.6,0.3-7.2c-0.9-0.8-1.9-2.5-3.2-1.4
				c-2.8,2.4-5.5,5.4-8.1,8c-2.7,3.6-1.8,3.1-4.9,1.1c-3.7-2.4-2.4-6.9,0-4l0.1,0.1c2.5-2,4.9-4.9,7.2-7.1
				C-428.5-530.3-428-531.6-425-532.2z"/>
			<path style="clip-path:url(#SVGID_00000045581326667687562180000008601590020898398605_);fill:#9432BF;" d="M-399.1-562.5
				c0.2,0,0.2,0,0.4,0c0.7,0.1,4.2,3.3,4.8,4.1c0.3,0.4,0.4,0.9,0.3,1.4c-0.4,1.5-1.4,0.6-2.3,1.1c-1,0.6-8.7,8.3-8.8,9.1
				c-0.1,0.8,0.4,1.7,0.9,2.3c0.8,0.9,2.9,3.3,4.1,3.2c0.4,0,0.9-0.4,1.2-0.7c1.2-1,2.3-2.3,3.4-3.4c1.4-1.4,3-2.8,4.4-4.2
				c0.7-0.8,1.2-1.7,2-2.4c1.5-0.1,3.6,2.4,4.6,3.4c0.8,0.8,1,1.7,0,2.4c-1,0-1.2-0.2-2.1-0.7c-3.7,3.2-6.8,7.5-10.7,10.4
				c-2.4,1.6-5.3,0.4-7.2-1.5c-0.8-0.7-1.4-1.5-2.1-2.1c-2.5-2.2-5.3-5.6-3.3-9.1c1.2-2,4-4.1,5.6-5.8c1.6-1.7,3.3-3.4,5-5.1
				C-399.7-561.1-400-561.6-399.1-562.5z"/>
			<path style="clip-path:url(#SVGID_00000045581326667687562180000008601590020898398605_);fill:#9432BF;" d="M-400.2-531.9
				c3.7-0.2,5,2,7.4,4.3c2.1,2,4.1,4.2,6.2,6.3c0.9-0.7,2.7-0.7,3-0.1c0.6,1.7-2.9,4.3-4.1,5.2c-2,1.1-2-0.9-2.5-1.5
				c-1.5-1.7-7.9-8.5-9.6-8.9c-0.7,0.1-1.2,0.5-1.7,0.9c-4.1,4-4.9,3.8-0.7,7.9c1.9,1.9,4.3,4.5,6.2,6.2c0.7-0.3,1.6-0.6,2.4-0.2
				c1.3,1.7-4.2,6.6-5.4,6.7c-1.4-0.7-0.8-1.9-0.2-2.8c-2.1-1.9-4.1-4-6.1-6c-1.4-1.4-3-2.8-4.2-4.3c-1.4-1.8-1.1-4.7,0.3-6.4
				c0.9-1.2,2-2.2,3-3.2C-404.2-529.8-402.9-531.5-400.2-531.9z"/>
			<path style="clip-path:url(#SVGID_00000045581326667687562180000008601590020898398605_);fill:#9432BF;" d="M-425.6-562.6
				c2-0.1,1.5,1.4,0.7,2.5c2.5,3,9.9,8.9,11,12c0.5,1.3,0.2,2.7-0.4,3.9c-1.1,2.2-6.4,7.6-8.8,8.3c-0.8,0.3-1.8,0.4-2.6,0.1
				c-2.3-0.8-7.9-7.1-9.9-9.1c-0.6-0.6-1.3-1.5-2.1-1.8c-0.2-0.1-0.3,0-0.5,0.1c-1.8,1-2.5-0.5-1.6-1.5c0.9-1.1,3-3.6,4.4-3.8
				c0.9,0.3,1.8,1.9,2.5,2.6c1.3,1.4,2.7,2.8,4.1,4.2c1.1,1.1,2.2,2.5,3.5,3.4c0.3,0.2,0.7,0.4,1.1,0.4c0.7,0,1.3-0.3,1.9-0.8
				c0.9-0.9,3.2-3,3.2-4.2c0-1.1-7.3-8.1-8.7-9.4c-0.5-0.5-0.7-0.1-1.3-0.2c-0.3,0-0.5-0.2-0.7-0.4c-0.2-0.4-0.4-1-0.3-1.4
				C-429.7-559.3-426.8-561.8-425.6-562.6z"/>
			<path style="clip-path:url(#SVGID_00000045581326667687562180000008601590020898398605_);fill:#9432BF;" d="M-375.6-487.2
				c0.5,0,1,0,1.4,0.4c0.3,0.3,0.5,0.8,0.7,1.2c0.6,1.1,6.3,6.9,7.3,7.2c0.5,0.1,0.9,0.1,1.3-0.2c1-0.5,1.9-2,3.2-1.7
				c0.6,0.1,1.2,0.6,1.5,1.1c0.3,0.4,0.3,0.9,0.2,1.4c-0.4,1.6-3.2,4.1-4.6,4.9c-0.9,0.5-2,0.7-3,0.4c-0.7-0.2-1.4-0.7-1.9-1.2
				c-1.6-1.3-7.6-7.2-8.5-8.9c0.2-1.1,0.3-1.7,0.7-2.7C-377-485.6-375.6-487.1-375.6-487.2z"/>
			<path style="clip-path:url(#SVGID_00000045581326667687562180000008601590020898398605_);fill:#9432BF;" d="M-448.1-487.2
				c0.5,0,0.6,0,1.1,0.1c0.4,0.4,0.1,0.9,0.3,1.4c0.8,2.2,1.5,2.8-0.4,4.7c-1.7,1.7-3.5,3.6-5.2,5.3c-1.4,1.3-2.9,3.3-5,3.4
				c-1.8,0-3.2-1.8-4.4-2.9c-1.4-1.2-3.5-2.7-1.6-4.7c1.8-2,3.6,2.1,5.6,1.9c2.2-1.3,5.2-5.2,7.1-7.1c0.6-0.6,0.2-2.1,2.4-1.9
				L-448.1-487.2z"/>
			<path style="clip-path:url(#SVGID_00000045581326667687562180000008601590020898398605_);fill:#9432BF;" d="M-352.9-545.7
				c1.5-0.1,3.3,0,4.7,0c5.1,0,10.3-0.8,10.5,6c0.1,2.8,0.9,5.5-3.2,4.9c-0.2,0-0.2-0.1-0.4-0.1c-1.8-0.7-0.9-3.5-1.4-4.8
				c-0.4-1-3.6-0.9-4.6-0.9c-1.1,0-2.5,0-3.6,0.1c-1.1,0.1-2.7,1.1-3.7,0.6c-1.2-0.5-0.9-3.2-0.4-4.1
				C-354.4-545.1-354-545.4-352.9-545.7z"/>
			<path style="clip-path:url(#SVGID_00000045581326667687562180000008601590020898398605_);fill:#9432BF;" d="M-407.2-609.6
				c4.7-0.1,8.2,0.8,8.1,6.4c0,2.6,0.1,5.5-0.1,8.1c-0.1,2.1-1.5,3-3.4,3.3c-0.5,0-1.3,0.2-1.8,0c-0.4-0.2-0.6-0.4-0.8-0.8
				c-0.2-0.6,0.1-1.2,0.3-1.7c0.5-1.3,0.4-7.3,0.2-8.9c-0.5-3-3.4-1.6-4.9-2.8c-0.4-0.3-0.6-0.8-0.6-1.3c0-0.5-0.1-1.3,0.4-1.7
				C-409.3-609.7-408-609.6-407.2-609.6z"/>
			<path style="clip-path:url(#SVGID_00000045581326667687562180000008601590020898398605_);fill:#9432BF;" d="M-459.8-500
				c0.3-0.3,0.6,0.3,0.7,0.6c0,0.5,0,0.9,0,1.3c0.2,0.8,1.1,1.6,0.3,2.1c-3.2,2-5.8,4.4-8.1,7.4c-1.6,2.5,4.3,4.5-1.1,6.3
				c-1.4,0.4-5.2-4.1-5.1-5.6c0.1-3.5,3.8-5.7,5.9-8.2c1.1-1.2,2.7-2.9,4.1-3.7c0.6-0.3,1.8,0.3,2.4,0.2
				C-460.3-499.7-460.1-499.7-459.8-500z"/>
			<path style="clip-path:url(#SVGID_00000045581326667687562180000008601590020898398605_);fill:#FFFEFF;" d="M-459.8-500
				c0.3-0.3,0.6,0.3,0.7,0.6c0,0.5,0,0.9,0,1.3c0,0-0.1,0.1-0.1,0.1c0,0-0.2-0.1-0.2-0.2c-0.3-0.3-0.6-0.7-1-0.9
				c-0.1-0.1-0.3-0.2-0.3-0.3c0,0,0,0,0,0l0-0.1C-460.3-499.7-460.1-499.7-459.8-500z"/>
			<path style="clip-path:url(#SVGID_00000045581326667687562180000008601590020898398605_);fill:#9432BF;" d="M-420.3-476
				c1.7,0.1,2.2,1.3,1.3,2.6c-0.2,0.2-0.3,0.5-0.3,0.8c-0.1,2.8-0.1,5.7,0,8.5c0.6,2.3,3.3,1.6,4.8,2.6c1,0.7,0.6,1.8-0.1,2.6
				c-0.7,0.8-2,0.7-3,0.7c-3.3,0-6.6,0.2-7.1-4.1c-0.2-2.2-0.2-4.4-0.2-6.6C-424.7-473.3-425.5-475.6-420.3-476z"/>
			<path style="clip-path:url(#SVGID_00000045581326667687562180000008601590020898398605_);fill:#9432BF;" d="M-404.2-476.2
				c7-0.2,4.7,6,5.1,10.6c0.1,1,0,2.1-0.2,3.1c-0.5,3.6-2.9,4.1-6,4.2c-0.9,0-3.5,0.2-4.2-0.5c-0.3-0.3-0.4-1.6-0.3-2.1
				c0.5-1.9,2.8-1,4.3-2.1c0.4-0.3,0.7-0.7,0.9-1.2c0.5-1.9,0-6.4,0-8.5C-404.5-473.6-406.4-474.8-404.2-476.2z"/>
			<path style="clip-path:url(#SVGID_00000045581326667687562180000008601590020898398605_);fill:#9432BF;" d="M-367.7-595.3
				c0.2,0,0.4,0,0.6,0c2.8-0.1,4.5,2.7,6.4,4.4c1.2,1.1,1.2,2,0,3c-2,1.7-3.1-1.5-4.9-1.6c-1.6,0.1-5.2,4.1-6.4,5.2
				c-1,1-2.1,2.7-2.9,3.4c-1.2,1.2-4.2-3-3.3-4.3c1.4-1.9,3.3-3.8,5.1-5.5C-371.7-592.1-369.6-594.7-367.7-595.3z"/>
			<path style="clip-path:url(#SVGID_00000045581326667687562180000008601590020898398605_);fill:#9432BF;" d="M-377.4-486.4
				c-1.1-0.1-3,0.9-3.9,0.3c-1.8-1.3-3.5-3.2-5.1-4.8c-2.3-2.4-6.2-5-4-8.7c0.8-1.4,2.9-4.3,4.4-4.7c0.4-0.1,0.8,0,1.1,0.2
				c2.9,2.1-1.9,4.4-1,5.8c1.8,2.9,5.1,5.5,7.5,8c0.5,0.5,1.6-0.1,2,1.6c0,0.3,0.1,0.6,0,0.9c0,0,0,0.2,0,0.2
				c0.2,0.1,0.6,0.2,0.8,0.2c0,0.2-1.4,1.6-1.7,1.8C-377.3-485.7-377.4-486-377.4-486.4z"/>
			<path style="clip-path:url(#SVGID_00000045581326667687562180000008601590020898398605_);fill:#FFFEFF;" d="M-376.5-488.6
				c0,0.3,0.1,0.6,0,0.9c0,0,0,0.2,0,0.2c0.2,0.1,0.6,0.2,0.8,0.2c0,0.2-1.4,1.6-1.7,1.8c-0.1-0.3-0.1-0.6-0.1-0.9
				c-0.2,0-0.6,0-0.6-0.2C-378-486.7-376.9-487.4-376.5-488.6z"/>
			<path style="clip-path:url(#SVGID_00000045581326667687562180000008601590020898398605_);fill:#9432BF;" d="M-479.7-545.7
				c1.1-0.1,7.4-0.2,8.2,0c0.5,0.1,0.9,0.3,1.3,0.6c0.9,0.7,1.3,1.6,1.5,2.7c0.4,1.3-0.2,2.9-1.8,2.5c-1.5-0.4-2-0.8-3.7-0.7
				c-1.9,0.1-4-0.1-5.9,0.1c-3,1.1,0.6,7.7-5.7,5.3c-0.2-0.1-0.4-0.6-0.4-0.8C-486.3-542.1-486.5-544.7-479.7-545.7z"/>
			<path style="clip-path:url(#SVGID_00000045581326667687562180000008601590020898398605_);fill:#9432BF;" d="M-462.7-546
				c1.7-0.1,4,0.1,5.5,0c5.4-0.3,9.7,0.3,9.5,6.8c0,1.5,0.6,4.5-1.8,4.3c-0.8,0-1,0.2-1.6-0.4c-0.8-1.4-0.7-3.9-1.2-4.6
				c-0.9-1.5-7.5-1-9.2-0.9c-0.3,0-1.3,0.8-1.6,0.9c-2.9,0.8-2.8-2.7-1.8-4.4C-464.2-545.4-463.8-545.7-462.7-546z"/>
			<path style="clip-path:url(#SVGID_00000045581326667687562180000008601590020898398605_);fill:#9432BF;" d="M-340.3-533
				c2.8-0.2,2.7,0.3,2.7,2.8c0.2,3.6-1.2,7.6-5.4,7.9c-2.1,0.1-8.2,0.4-10-0.1c-1.4-0.5-2-1.2-2.3-2.7c-0.2-1.4-0.2-2.9,1.6-3
				c1,0,1.6,0.7,2.3,0.8c2.2,0.2,4.8,0.2,7,0c2.8-0.4,1.5-3.4,2.6-5C-341.5-532.9-340.9-532.9-340.3-533z"/>
			<path style="clip-path:url(#SVGID_00000045581326667687562180000008601590020898398605_);fill:#9432BF;" d="M-450.6-532.6
				c3.6-0.1,2.8,0.8,3,3.4c0.5,7.6-3.2,7.4-9.4,7.3c-2.1-0.1-4.3,0.3-6.5-0.4c-1.7-1-3.4-4.6-1-5.7c0.8-0.4,2.2,0.6,3,1
				c1.8,0.1,3.8,0,5.7,0c1.2,0,2.6,0,3.6-0.7C-450.5-529-452.7-531.3-450.6-532.6z"/>
			<path style="clip-path:url(#SVGID_00000045581326667687562180000008601590020898398605_);fill:#9432BF;" d="M-362.6-499.7
				c0.6,0,1.2,0,1.8,0c1.1,0.6,8.8,8.3,9.7,10c0.5,1,0.5,1.5,0.3,2.6c-0.4,1.5-3.6,4.7-4.9,5.3c-1.3,0-2.7-0.9-2.6-2.4
				c0-1.3,1.9-1.8,1.9-3c0-1.4-1.4-2.7-2.4-3.7c-1.6-1.6-3.2-3.1-4.7-4.8c-0.1,0-0.2,0-0.3,0c-2.1-0.2-1.7-1.2-1.4-2.8
				c1.2-1.3,0.9-0.6,2.4-1.1L-362.6-499.7z"/>
			<path style="clip-path:url(#SVGID_00000045581326667687562180000008601590020898398605_);fill:#9432BF;" d="M-370.5-545.9
				c3-0.1,6.2-0.1,9.2,0.1c2.5,0.2,3.8,4.1,2.4,5.5c-0.3,0.4-0.8,0.6-1.3,0.5c-0.9,0-2-0.9-2.6-1c-1.8-0.2-4.2-0.1-6,0
				c-0.6,0-1.2,0-1.9,0.2c-2.7,0.8-0.4,4.7-2.4,5.4c-0.9,0.3-2.9,0.1-3-1.2C-376.3-541.2-376.4-545.2-370.5-545.9z"/>
			<path style="clip-path:url(#SVGID_00000045581326667687562180000008601590020898398605_);fill:#9432BF;" d="M-457.9-595.3
				c1-0.1,2.2,0.1,2.9,0.8c2.4,2.5,7.1,6.3,8.8,9.2c0.1,1.5-0.1,2.4-0.8,3.7c-0.2,0.4-0.7,0.9-1.1,0.9c-1.2,0.1-1.8-1.3-2.3-2.2
				c-0.2-0.3-0.7-0.8-0.9-1c-1.6-1.6-3.2-3.2-4.8-4.8c-1.8-2.1-2.9-0.9-4.7,0.5c-2.3,1.9-3.9-1.3-3-2.3
				C-462.4-592-460-594.9-457.9-595.3z"/>
			<path style="clip-path:url(#SVGID_00000045581326667687562180000008601590020898398605_);fill:#9432BF;" d="M-419.1-497.5
				c0.3,0,0.7,0,1-0.1c0.9,0,2.7-0.1,3.3,0.6c0.4,0.4,0.4,1.2,0.3,1.7c-0.1,2.5-3.4,0.8-4.6,2c-1.1,1.1-0.7,8.8-0.7,10.6
				c0.8,1.1,1.6,2.1,0.7,3.4c-1.8,0.4-5.5-0.4-5.7-2.6c-0.2-2.6-0.1-5.3-0.1-7.8C-425-494.6-424.2-496.9-419.1-497.5z"/>
			<path style="clip-path:url(#SVGID_00000045581326667687562180000008601590020898398605_);fill:#9432BF;" d="M-417.9-609.6
				c1,0,2.9-0.1,3.6,0.6c0.4,0.4,0.4,0.9,0.4,1.4c0.1,3.5-3.3,1-4.9,2.7c-0.8,0.8-0.7,2.1-0.7,3.2c0,2.4,0,4.7,0.1,7.1
				c1.1,1.2,1,2.5-0.6,3.1c-0.8,0.1-1.7-0.1-2.4-0.3c-2.8-0.9-2.3-3.9-2.3-6.2C-424.7-603.8-425.4-609.3-417.9-609.6z"/>
			<path style="clip-path:url(#SVGID_00000045581326667687562180000008601590020898398605_);fill:#9432BF;" d="M-404.4-588.9
				c0.4,0,0.9,0,1.3,0c1.7,0,4.1,1.8,4,3.6c-0.2,2.9,0.4,7.8-0.1,10.5c-0.2,0.8-0.5,1.5-1,2.2c-1.3,1.7-3.2,2-5.2,2.2
				c-1,0-2.8,0.2-3.6-0.5c-0.7-0.6-0.7-2.4,0-3c0.6-0.5,2.5-0.3,3.3-0.3c0.3-0.2,0.7-0.4,0.9-0.6c1-1,0.6-8.6,0.6-10.4
				c-0.1-0.1-0.1-0.1-0.2-0.2C-405.1-586.3-405.8-587.9-404.4-588.9z"/>
			<path style="clip-path:url(#SVGID_00000045581326667687562180000008601590020898398605_);fill:#9432BF;" d="M-356.3-586
				c1.1,0.1,1.3,0.5,2.1,1.2c1.9,1.9,4.5,4.7,2.5,7.6c-1.9,2.8-5.2,5.4-7.6,7.9c-0.9,1-1.6,1-2.8,1c-2.3-0.7-5.8-3.5-1.4-4
				c1.2-1.1,6.8-6.5,7-7.6c0.2-1-0.5-1.7-1-2.4c-0.4-0.6-0.8-1.2-0.6-2C-357.9-585.1-357-585.7-356.3-586z"/>
			<path style="clip-path:url(#SVGID_00000045581326667687562180000008601590020898398605_);fill:#9432BF;" d="M-484-533
				c1,0,1.9,0,2.2,1.1c0.2,0.8,0.2,2.4,0.2,3.2c0.1,0.1,0.4,0.6,0.6,0.8c2,1.1,6.2,0.7,8.4,0.5c1.9-0.1,4.3-2.4,4,1.8
				c-0.1,1.3-0.6,2.2-1.7,2.9c-2,1-8.3,0.5-10.7,0.4c-3.5-0.1-5.3-3.6-5.1-6.7C-485.9-531.3-487.1-532.8-484-533z"/>
			<path style="clip-path:url(#SVGID_00000045581326667687562180000008601590020898398605_);fill:#9432BF;" d="M-459.8-500
				c-0.2-1.2-1.4-2.2-0.5-3.4c1.3-1.7,3-3.2,4.5-4.7c3.9-3.9,6.4-7.9,11.6-2.6c0.6,0.6,3.8,3.5,0.1,4.1c-1.2,0.2-2.9-3.2-4.7-1.1
				c-2.8,2.7-5.5,5.5-8.1,8.4c-0.6,0.6-1.5,0.2-2.2-0.1C-459.1-499.7-459.4-500.2-459.8-500z"/>
			<path style="clip-path:url(#SVGID_00000045581326667687562180000008601590020898398605_);fill:#9432BF;" d="M-468.1-586
				c0.1,0,0.2,0,0.3,0c0.8,0.1,1.4,0.6,1.9,1.1c1.6,2-1.3,2.7-1.3,4.4c0,1.6,5.9,6.9,7.2,8.2c2.8-0.1,1.7,1.9,0.4,3
				c-0.7,0.6-1,0.7-1.8,1c-1.6,0.4-2.3-0.7-3.4-1.8c-2.4-2.4-5.1-4.8-7.3-7.3C-474.5-580.2-470.3-584.5-468.1-586z"/>
			<path style="clip-path:url(#SVGID_00000045581326667687562180000008601590020898398605_);fill:#9432BF;" d="M-407.4-497.4
				c1.7-0.1,3.6,0,5.2,0.7c1.3,0.6,2.2,1.7,2.7,3.1c0.6,1.6,0.7,11.1,0,12.4c-0.6,1.2-1.5,1.6-2.8,2c-0.2,0-0.4,0.1-0.6,0.1
				c-3.1,0.6-2.8-2.1-1.4-3.9c0-2.7,0.1-7.1-0.3-9.7c-0.3-1.6-3.8-0.9-4.1-1.4C-410.1-495.9-409.5-497.3-407.4-497.4z"/>
			<path style="clip-path:url(#SVGID_00000045581326667687562180000008601590020898398605_);fill:#9432BF;" d="M-374.4-532.5
				c0.2,0,0.5,0,0.7,0c3,0,0,5.1,3.3,5.4c2.6,0.2,5.3,0.1,7.9,0c4.8-3.1,5,1.6,2.8,4.2c-1.1,0.8-2.9,0.9-4.3,0.7
				c-4.4-0.5-11,1.8-12-4.5c-0.2-1.3-0.4-4.7,0.3-5.6C-375.3-532.4-374.9-532.4-374.4-532.5z"/>
			<path style="clip-path:url(#SVGID_00000045581326667687562180000008601590020898398605_);fill:#9432BF;" d="M-420.9-589
				c3.1-0.2,2.4,2.3,1.2,4.1c-0.1,2.9,0,6.1,0,9c0.1,2.6,3.4,1.3,4.8,2.4c0.6,0.5,0.7,2.4,0.1,2.9c-0.4,0.3-1.5,0.3-2,0.3
				c-8.2-0.1-8-3.2-7.9-10.4C-424.6-584.7-425.9-587.7-420.9-589z"/>
			<path style="clip-path:url(#SVGID_00000045581326667687562180000008601590020898398605_);fill:#9432BF;" d="M-457.7-569
				c1.2,0,1.5,0.3,2.1,1.3c1.2,2,3.3,3.5,4.8,5.2c0.7,0.8,1.6,1.6,2.3,2.3c2.2,2,5.1-4.1,6.2,0.1c0.2,0.8-1.9,2.7-2.6,3.4
				c-5,4.6-7.6-0.7-11.4-3.9c-1.3-1.1-2.8-2.7-3.8-4c-0.5-0.6,0.4-3.8,1-4.1C-458.4-568.8-458.2-568.8-457.7-569z"/>
			<path style="clip-path:url(#SVGID_00000045581326667687562180000008601590020898398605_);fill:#9432BF;" d="M-376-513.3
				c1.2,0,2.2,0.3,3.2,1.1c2.1,1.8,4.1,3.9,6,5.9c0.9,0.9,2.1,2,2.9,3c1,1.2-0.4,4.5-2.1,4.4c-1.2-0.1-1.6-1.2-2.3-2l-0.1-0.1
				c-2.3-2.1-5.1-5.5-7.6-7.2c-1-0.7-2.5,1.2-3.5,1.5c-0.4,0.2-0.9,0.1-1.3-0.1c-1.7-0.9-0.8-2.3,0.2-3.2
				C-379.2-511.3-378-512.8-376-513.3z"/>
			<path style="clip-path:url(#SVGID_00000045581326667687562180000008601590020898398605_);fill:#9432BF;" d="M-365.7-569.1
				c0.1,0,0.2,0,0.3,0l0.2,0.2c0.4,2.1,2.6,3.3,0.6,5.2c-2.6,2.5-5,5.3-7.7,7.6c-2.8,2.5-4.6,1.2-7-0.9c-1.2-1-3.7-1.8-2.1-3.7
				c1.9-2.3,3.7,2.7,5.6,0.9c2.5-2.4,4.9-4.8,7.4-7.3c0.6-0.6,0.6-1.7,1.8-1.7c0.2,0,0.5-0.1,0.7-0.1L-365.7-569.1z"/>
			<path style="clip-path:url(#SVGID_00000045581326667687562180000008601590020898398605_);fill:#9432BF;" d="M-381.7-581.8
				c1.5-0.3,4.2,0.9,4.6,2.5c0.2,0.7-1.7,1.8-2.2,2.3c-2.1,2.2-4.6,4.2-6.5,6.6c-2,2.6,3.2,3.8,1.1,5.8c-2.3,1.4-3.4-1.5-4.9-3
				c-0.9-0.9-1.6-2.9-1.4-4.1c0.1-0.6,0.8-1.7,1.2-2.2C-388-575.4-383.4-580.7-381.7-581.8z"/>
			<path style="clip-path:url(#SVGID_00000045581326667687562180000008601590020898398605_);fill:#9432BF;" d="M-444.3-581.8
				c0.8-0.1,1.5-0.1,2.2,0.5c2.9,2.5,5.6,5.4,8.2,8.2c2.8,3.1-1.1,7.3-3.7,9.1c-0.5,0-1.7-0.2-1.9-0.7c-0.9-1.7,1.6-2.9,1.7-4.6
				c-0.7-1.9-5.8-6.8-7.5-8.3l-0.2,0l-0.2,0c-1.1-0.1-2-1-1.4-2.1C-446.6-580.8-445.4-581.4-444.3-581.8z"/>
			<path style="clip-path:url(#SVGID_00000045581326667687562180000008601590020898398605_);fill:#9432BF;" d="M-438.5-504.2
				c0.7,0,1.2,0.4,1.7,0.9c1.3,1.5,3.8,3.8,3.6,6c-0.3,2.6-3.9,5.7-5.6,7.5c-1,1.1-2,2-3,3c-0.8,0.7-1.4,0.8-2.4,0.8
				c-2.7-0.6-5-3.9-1.1-4.2c1.4-1.2,2.9-2.9,4.2-4.2c0.9-0.8,2.8-2.7,3.2-3.8C-437.1-500.3-442.8-502.4-438.5-504.2z"/>
		</g>
	</g>
</g>
<g>
	<path d="M-376.8,207.8c-1.5-0.2-3-0.4-4.4-0.7c-2.2-0.4-4.4-0.8-6.5-1.5c-4.8-1.5-9.1-4.2-13.4-6.9c-0.7-0.5-1.4-1.1-2.2-1.5
		c-1.5-0.8-1.9-2.1-2.1-3.5c-0.3-2-0.6-4-0.9-5.9c-0.2-1.6-0.5-3.2-0.7-4.8c-0.2-1.4-0.5-2.8-0.7-4.2c-0.3-1.7-0.6-3.5-0.9-5.2
		c-0.4-2.1-0.8-4.3-1.2-6.4c-0.3-1.6-0.5-3.3-0.8-4.9c0.1,0,0.1-0.1,0.2-0.1c0.7,0.6,1.4,1.1,2,1.7c3.9,3.6,8.2,6.8,13.1,9.1
		c3.1,1.4,6.3,2.6,9.6,3.6c2.8,0.8,5.8,1,8.8,1.5c5.1,0.8,9.9,2.3,14,5.5c2.6,2.1,4.9,4.4,6.6,7.3c1.4,2.3,2.3,4.8,3,7.3
		c0.5,1.5,0.6,3.1,0.6,4.7c0,6.9,0,13.8,0,20.7c0,0.3,0,0.7-0.1,1.1c-2.3-2.3-5.1-2.8-8.1-2.5c-1.3,0.1-2.5,0.6-3.6,1.5
		c1.2-0.1,2.2-0.1,3.2-0.2c3.1-0.2,5.8,0.7,8,3c0.3,0.3,0.5,0.8,0.5,1.2c0.1,1.5,0,3,0,4.4c0,0.6-0.2,0.7-0.8,0.7
		c-2.7,0.2-5.4,0.3-8.1,0.7c-2.2,0.3-4.3,0.9-6.5,1.4c-1.6,0.4-3.3,0.7-4.9,1.1c-0.4,0.1-0.8,0.3-0.9,0.6c-0.1,0.2,0.2,0.7,0.5,0.9
		c1.4,1.3,2.8,2.6,4.3,3.8c2.5,2.1,5.3,3.6,8.5,4.4c1.5,0.4,3,0.7,4.5,1c0.5,0.1,0.8,0.3,1,0.9c0.6,2.1,1.7,3.9,3.7,5
		c1.3,0.7,1.3,0.7,0.6,2c-0.9,1.7-1.7,3.4-2.8,5c-0.8,1.2-1.8,2.2-2.8,3.2c-1,1-2.3,0.8-3.4,0.5c-3.5-0.9-6.6-2.5-9.7-4.4
		c-4.5-2.7-8.6-5.9-12.3-9.6c-3.7-3.7-6.9-7.7-9.7-12.1c-2.6-4.1-5-8.4-6.8-13c-0.1-0.2-0.1-0.3-0.1-0.7c5.2,3.2,10.7,4.4,16.5,4.8
		c1.6,0.1,3.2,0,4.7-0.1c0.3,0,0.6-0.2,1.1-0.4c-20-2.5-32.5-13.1-36.2-33.1c4.5,4.9,9.8,8.7,16,11c6.2,2.3,12.6,3.5,19.2,2.6
		C-376.8,208-376.8,207.9-376.8,207.8z M-395.2,186.5c0,0.1,0,0.2,0,0.3c0.1,0.3,0.2,0.6,0.3,0.9c1.2,3.9,3.4,7.1,6.4,9.8
		c4.3,3.8,9.4,5.8,15.2,5.5c2-0.1,3.9-0.5,5.9-0.6c2.6-0.2,5.2-0.7,7.8,0c0.8,0.2,1.2-0.2,0.9-1c-0.2-0.8-0.4-1.6-0.7-2.3
		c-1.8-4.5-4.6-8.2-8.9-10.6c-3.2-1.8-6.7-2.7-10.4-2.8c-2.8,0-5.6,0.3-8.4,0.5c-2.4,0.2-4.8,0.1-7.1-0.5
		C-394.9,185.5-395.2,185.7-395.2,186.5z M-364.7,223c0.2-0.5,0.6-1,0.6-1.5c0.1-1.7,0.9-3.1,1.7-4.5c1.2-2.3,2.5-4.5,3.2-7
		c0.3-1,0.5-2.1,0.7-3.1c-0.1,0-0.2,0-0.2,0c-0.1,0.2-0.1,0.5-0.2,0.7c-0.6,1.2-1,2.5-1.7,3.7c-1.4,2.4-2.9,4.7-3.8,7.3
		C-364.9,220-364.9,221.5-364.7,223z"/>
	<path d="M-290.8,161.7c-0.1,0.9-0.2,1.8-0.3,2.6c-0.4,2.4-0.8,4.8-1.3,7.3c-0.5,3-1.1,6-1.6,9c-0.4,2.6-0.9,5.1-1.3,7.7
		c-0.4,2.3-0.8,4.6-1.3,6.9c-0.2,1.1-1.1,1.6-1.9,2.2c-3.3,2.1-6.6,4.1-10,6.1c-2.9,1.6-6,2.7-9.2,3.4c-2,0.4-4.1,0.7-6.2,1
		c-0.2,0-0.4,0.1-0.7,0.1c3,1.1,12.4,0.2,19.2-2.5c6.2-2.4,11.4-6.2,15.9-11.1c-1.4,9-4.8,16.9-11.7,23c-6.8,6-14.8,9.4-23.9,10.3
		c7.7,1.1,14.9-0.7,21.9-4.4c-0.2,0.7-0.3,1.2-0.6,1.7c-2.3,5.3-5.1,10.3-8.4,15c-3,4.2-6.3,8.1-10.2,11.5
		c-4.7,4.2-9.7,7.8-15.5,10.3c-1.2,0.5-2.5,1-3.9,1.3c-1.7,0.4-3.3-0.1-4.4-1.5c-0.7-0.8-1.4-1.8-2-2.7c-0.5-0.6-0.1-1.2,0.2-1.8
		c0.8-1.2,1.6-2.5,2.4-3.7c0.5-0.8,0.5-1-0.3-1.5c-1.7-1.1-3.2-2.4-4.3-4.2c-0.1-0.2-0.2-0.4-0.3-0.6c0-0.1,0-0.2,0-0.1
		c1.2-0.1,2.4-0.1,3.6-0.2c3.7-0.3,7.2-1.3,10.5-3.1c3.1-1.7,5.7-4,8.2-6.4c0.7-0.6,0.6-1.2-0.3-1.4c-1.5-0.4-3-0.7-4.5-1
		c-1.6-0.4-3.3-0.8-4.9-1.1c-1.6-0.3-3.3-0.6-5-0.8c-1.5-0.2-3.1-0.2-4.6-0.4c-0.2,0-0.6-0.3-0.6-0.5c0-1.5,0-3.1,0-4.7
		c0-0.2,0.2-0.5,0.3-0.7c1.8-2,4-3.4,6.8-3.5c0.8,0,1.6,0.2,2.5,0.3c2.7,0.3,2.2,0.1,2.2-2c-0.1-2.4-0.9-4.6-2.2-6.7
		c-1.2-1.9-2.2-3.9-3.2-5.9c-0.3-0.7-0.7-1.3-1-2c-0.1,0-0.1,0-0.2,0c0.3,1.3,0.4,2.7,1,3.9c1,2.2,2.3,4.3,3.3,6.5
		c0.7,1.6,1.1,3.3,1.7,5c0,0.2,0,0.5-0.1,0.5c-0.2,0-0.5,0-0.7-0.1c-2.6-1-5.2-1-7.8,0.1c-0.9,0.4-1.6,1-2.6,1.6
		c-0.1-0.7-0.3-1.3-0.3-1.9c0-3.3,0.2-6.6,0.2-9.9c0-4.8-0.2-9.5-0.3-14.3c0-0.7,0.2-1.4,0.4-2c1.5-3.8,3.4-7.4,6.4-10.3
		c2.8-2.8,6.1-4.9,9.9-6.3c2.7-1,5.6-1.5,8.4-1.8c3.9-0.4,7.7-1.3,11.4-2.6c3.6-1.2,7-2.8,10.2-4.8c3.8-2.4,7.3-5.1,10.4-8.3
		C-291.1,162-291,161.9-290.8,161.7z M-327.7,203.2c1.6-0.3,3.4-0.4,5.1-0.8c4-0.8,7.3-2.9,10.3-5.7c2.9-2.7,4.9-6,6.3-9.7
		c0.1-0.4,0.2-1,0-1.2c-0.2-0.2-0.8-0.3-1.2-0.2c-2.2,0.4-4.4,0.6-6.6,0.5c-3.7-0.2-7.3-0.9-11-0.3c-2.4,0.3-4.7,0.8-6.8,1.9
		c-4.3,2.2-7.6,5.5-9.6,9.9c-0.6,1.3-1,2.6-1.4,3.9c-0.2,0.8,0,1,0.8,0.8c0.4-0.1,0.8-0.3,1.2-0.3c1.6,0,3.3,0,4.9,0.2
		C-333.1,202.5-330.5,202.9-327.7,203.2z"/>
	<path d="M-351,192.2c-3-6.3-7.5-10.8-13.1-14.3c-3-1.9-6.2-3.1-9.6-3.8c-1.9-0.4-3.8-0.4-5.6-0.8c-2.5-0.5-5-1-7.5-1.7
		c-6.4-1.9-12-5.4-17.5-9.2c-0.7-0.5-1-1.1-1.1-2c-0.2-1.7-0.5-3.4-0.7-5.2c-0.2-1.2-0.4-2.4-0.5-3.6c-0.3-1.8-0.6-3.6-0.9-5.4
		c-0.3-1.6-0.5-3.3-0.7-4.9c0-0.1,0-0.2,0.1-0.5c1,0.9,1.9,1.7,2.9,2.4c4.9,4,10.2,7.2,16.1,9.6c3.2,1.3,6.5,2.3,9.9,3
		c1.7,0.4,3.5,0.6,5.3,0.8c2.2,0.3,4.4,0.3,6.5,0.7c3.1,0.5,6,1.7,8.6,3.3c3.3,2,5.9,4.8,7.7,8.4c1.3,2.7,2.2,5.5,2.2,8.5
		c0,1.9,0.1,3.8-0.1,5.6c-0.2,2-0.7,3.9-1.1,5.8C-350.4,190-350.7,191-351,192.2z"/>
	<path d="M-293.2,140.9c-0.5,3.4-1,6.7-1.5,10.1c-0.4,2.9-1,5.8-1.2,8.7c-0.2,2.1-1.6,3-3.1,4c-1.7,1.1-3.4,2.3-5.2,3.3
		c-3.5,2-7.1,3.7-11.1,4.7c-3.1,0.7-6.1,1.4-9.3,1.8c-3.3,0.4-6.4,1.1-9.4,2.5c-3.8,1.7-7.2,4.1-10.1,7.1c-0.2,0.2-0.3,0.3-0.7,0.7
		c0.1-0.6,0.2-1,0.2-1.5c0-2.2-0.1-4.3-0.2-6.5c-0.1-2.1-0.6-4.2-1.4-6.1c-0.4-1.2-1-2.3-1.7-3.5c-0.4-0.7-0.3-1.1,0.2-1.6
		c2.5-2.6,5.5-4.5,8.8-5.9c2.6-1,5.4-1.5,8.2-1.8c2.6-0.2,5.2-0.5,7.7-1c6.9-1.1,13.3-3.8,19.2-7.5c3.2-2,6.2-4.5,9.3-6.7
		c0.3-0.3,0.6-0.6,0.9-1C-293.3,140.9-293.2,140.9-293.2,140.9z"/>
</g>
<g>
	<path d="M68.8,47.4c1,1.2,1.6,2,2.3,2.9c2.6,3.1,2.4,6.9,2.2,10.6c0,0.3-0.2,0.7-0.4,0.9c-3.1,2.5-10.2,0-11-3.8
		c-0.2-0.7-1.1-1.6-1.8-1.8c-1.1-0.3-2.3-0.2-3.5-0.1c-2.9,0.3-5.1-0.5-7-2.8c-2.2-2.5-5.4-2.8-8.5-1.5c-0.9,0.4-2.1,0.1-3.1,0.2
		c0.1-0.9-0.2-2.3,0.3-2.7c0.6-0.5,1.9-0.5,2.9-0.4c4.6,0.4,8.6,1.7,12.2,5.2c1.3,1.3,4.9,0.3,7.5,0.2c0.4,0,1.1-0.9,1-1
		c-0.2-0.5-0.7-1-1.2-1.3c-0.5-0.2-1.2-0.2-1.7-0.1c-2.5,0.4-4.5-0.4-6.1-2.5c-1.9-2.6-4.4-3.6-7.5-3.1c-3.4,0.5-6.8,0.8-10.2,1.1
		c-0.7,0.1-1.8-0.2-2-0.6c-0.3-0.8-0.4-1.9,0-2.6c0.2-0.4,1.3-0.7,2-0.7c3.1,0.4,6.3,1,9.6,1.6c0-2,0-3.3,0-5.1
		c-5.3,0.7-10.8-1.3-16.1,1.2c-0.4,0.2-1.5-0.2-1.7-0.6c-0.3-0.6-0.3-1.6,0.1-2.2c0.2-0.4,1.2-0.6,1.8-0.5
		c7.6,1.9,15.2,1.9,22.7-0.1c0.5-0.1,1-0.5,1.4-0.7c-0.4-0.4-0.9-1.1-1.4-1.2c-4.9,0-9.8,0.1-14.6,0.1c-1.2,0-2.7,0.4-3.5-0.2
		c-0.5-0.4-0.1-2.1-0.1-3.7c-1.9,0.3-4,0.7-6.2,0.7c-1,0-2.2-0.6-2.9-1.3c-0.4-0.4-0.4-2,0-2.4c0.7-0.7,1.9-1.3,2.9-1.3
		c4.1,0.1,8.3,0.5,12.4,0.6c4.8,0.1,9.6-0.2,14.3,0.1c2,0.1,3.9,1.5,5.8,2.2c0.9,0.3,2,0.5,2.8,0.2c1.3-0.6,2.4-1.8,3.7-2.5
		c5.8-3.4,12.1-2.6,18.2-1.3c3.9,0.8,6.1,6,4.9,9.8c-0.2,0.7-0.5,1.5-0.9,2.4c1.1,0.1,2,0.1,2.8,0.2c0.2-0.3,0.4-0.5,0.4-0.6
		c-0.4-7.8,1.5-10.8,9.2-10.5c6.4,0.2,12.8,0.1,19.2,0c1.5,0,3-0.5,4.4-0.5c1.2,0,2.7,0.3,3.6,1c0.6,0.5,0.7,2.6,0.1,3.1
		c-0.8,0.7-2.3,0.8-3.5,0.7c-1.9-0.1-3.8-0.5-5.8-0.8c0,1.6,0,2.8,0,4c-1.3-0.1-2.6-0.2-4-0.2c-4.7,0-9.3-0.1-14,0
		c-0.6,0-1.1,1.1-1.6,1.6c0.6,0.5,1.2,1.2,1.9,1.4c0.7,0.1,1.5-0.4,2.2-0.6c0.7-0.2,1.7-0.8,2.2-0.5c4.9,2.6,10,0.6,15,1.2
		c0.7,0.1,1.5-0.5,2.3-0.6c0.8-0.1,1.7-0.1,2.4,0.2c0.3,0.1,0.4,1.5,0.1,1.8c-0.4,0.5-1.3,0.9-2,0.9c-4-0.1-8.1-0.5-12.1-0.5
		c-1.8,0-3.5,0.8-5.3,1c-0.9,0.1-2-0.2-2.9-0.5c-2-0.7-3.7-1.7-4.1,1.8c-0.3,2.4-3.3,4.4-6,4.7c-1,0.1-1.9,0.7-2.9,1.1
		c1,0.5,2,1.1,3,1.3c2.6,0.5,4.8-0.2,6.4-2.5c1.9-2.6,4.4-3.3,7.5-3.1c3.3,0.1,6.6-0.4,10-0.6c0.7,0,2,0.2,2.1,0.5
		c0.2,0.8,0.1,1.9-0.3,2.6c-0.3,0.5-1.7,0.8-2.1,0.5c-4-2.4-8.4-0.9-12.6-1c-1.2,0-2.8,1.5-3.8,2.7c-1.9,2.4-4.2,3-7,2.8
		c-0.8-0.1-1.6,0.7-2.4,1.2c0.8,0.4,1.5,1.1,2.4,1.2c3.3,0.5,6.1-0.1,8.3-3c0.8-1.1,2.7-1.4,4.1-1.8c1.9-0.6,3.9-1,5.9-1.2
		c1-0.1,2.1,0.5,3,1.1c0.3,0.2,0.2,1.8-0.1,2c-0.9,0.4-2.1,0.8-2.9,0.5c-3.8-1.3-7.3-1.5-9.9,2.1c-1.9,2.6-4.4,2-6.9,2.1
		c-2.5,0-4.9-0.7-5,3.6c-0.1,2.9-3.4,2.8-5.9,2.7c-2.7-0.1-1.5-2-1.7-3.3c-0.1-0.3-0.3-0.6-0.8-1.6c-0.6,1.9-1,3.1-1.5,4.4
		c-0.2,0-0.4,0-0.6,0c0-1.9,0.2-3.8-0.1-5.7c-0.2-1-1.2-2.6-2-2.6c-2.1-0.1-2.5-1.5-3.3-3C73.2,48.7,72.2,46.7,68.8,47.4z
		 M85.6,40.1c-0.1-0.5-0.1-1-0.2-1.5c-4,0-8-0.1-12,0c-2.2,0-4.1,0.1-4.6-2.8c-0.1-0.8-1-1.8-1.7-2c-1.8-0.4-3.8-0.4-5.6-0.6
		c-0.2,2-0.6,4.1-0.3,6.1c0.1,0.5,2.2,0.9,3.5,1c1.5,0.1,3.1-0.3,4.7-0.2c1.9,0.1,3.7,0.4,5.6,0.5c2.4,0.1,4.8,0.2,7.1,0.1
		C83.2,40.7,84.4,40.3,85.6,40.1z M116,33.4c-0.1-0.4-0.1-0.8-0.2-1.1c-5.8,0-11.6-0.1-17.4,0c-2.2,0-2.7,1.5-2.7,3.6
		c-0.1,6.7-0.1,6.7-6.4,7.9c2.1,2.7,3.9,2.8,6.5,0.7c2.3-1.8,2.8-4.1,2.5-6.8c-0.4-2.8,0.6-4,3.6-3.8c3.7,0.3,7.4,0.1,11.2,0
		C114,34,115,33.6,116,33.4z M36.3,32.3c-0.1,0.4-0.1,0.8-0.2,1.1c1,0.2,2,0.6,3,0.6c3.8,0.1,7.7,0.2,11.5,0
		c3.1-0.2,4.3,0.9,3.9,3.9c-0.4,3.2,0.3,5.9,3.1,7.9c2.4,1.7,3.9,1,4.4-2.1c-5.6-0.8-5.6-0.8-5.7-6.7c0-0.7,0.2-1.6-0.1-2.1
		c-0.7-1-1.7-2.6-2.7-2.6C47.8,32.2,42.1,32.3,36.3,32.3z M48.1,43.3c2.4,2.1,4.5,3.6,6.2,5.5c1.6,1.8,3.4,2.4,5.6,2
		c0.9-0.2,1.6-0.9,2.4-1.3c-0.8-0.6-1.7-1.8-2.4-1.8c-3,0.3-4.7-1.7-5.9-3.6c-1.4-2.3-3.2-3.1-5.5-3.7
		C48.3,41.7,48.1,42.8,48.1,43.3z M87.8,34c0-2.3-1.7-4.3-3.8-4.5c-2-0.2-4.8,2.4-4.9,4.5c-0.1,2.1,1.9,4.1,4.1,4.2
		C86.3,38.4,87.7,37,87.8,34z M78.9,51.9c2.7-2,5.6-4.1,8.4-6.2c0.3-0.2,0.4-0.8,0.4-1.2c-0.1-0.3-0.5-0.8-0.8-0.8
		C83.4,43.1,78.2,48.9,78.9,51.9z M71.1,61.2c1.3-2.6,0.5-4.8-1-6.9c-1.3-1.7-2-4.4-4.9-3.6C67.2,54.2,69.1,57.6,71.1,61.2z"/>
	<path d="M76.2,84.1c1.4-3.3,2.5-5.9,3.5-8.3c0.7,1.8,0.9,3.9,2.1,5.4c1.8,2.2,1.3,3.8-0.3,5.6c-0.9,1-1.7,2.1-2.6,3.1
		c0.2,0.2,0.3,0.4,0.5,0.6c1.4-0.8,2.8-1.6,4.2-2.5c1.7-1.1,3.4-2.4,5.2-3.2c0.9-0.4,2.3-2.6,3.3-0.3c0.8,1.9,0.1,3.6-2.3,4.1
		c-1.9,0.4-3.2,1.2-3,3.8c1.8-0.7,3.5-1.4,5.1-2c0.8,7.4,0.7,7.7-3.5,9.4c6.2,2.1,7.6,4.9,7.3,10.4c-0.3,6.2-0.1,12.3-0.1,18.5
		c0,5.5-2.7,8.9-7.4,8.9c-3.6,0-8.3-3.1-7.6-8.8c0.3-2.5,0.5-5.2-0.1-7.6c-0.4-1.8-1.8-3.7-3.3-4.9c-0.6-0.5-2.8,0.1-3.7,0.8
		c-0.9,0.7-1.5,2.3-1.6,3.5c-0.2,3,0,6-0.1,9.1c-0.2,3.8-2.4,6.4-6,7.5c-3.2,1-6.2,0.1-8.2-2.8c-0.8-1.2-1.3-3-1.3-4.5
		c-0.1-6.9-0.1-13.7-0.1-20.6c0-5.7,1.6-7.8,6.6-9.2c-1-1.5-2.7-3-2.9-4.8c-0.3-1.7-1.4-4.2,1.1-5.6c0.2-0.1,0.3-0.5,0.2-0.7
		c-1.8-4.7-1.8-4.7,1.9-6.3c-6.2-3.3-2.1-8.6-3.5-12.9c3,0.7,5.3,1.7,7.7,1.7c2.9,0.1,4.2,1.7,5.2,3.9
		C73.7,78.1,74.8,80.8,76.2,84.1z M63.9,132.6c0.6,0.2,1.2,0.3,1.9,0.5c0.6-1.6,1.6-3.1,1.7-4.7c0.3-2.9,0-5.8,0.1-8.7
		c0.1-1.3,0.4-2.8,1.1-3.9c2-3.2,7.1-4.7,10.9-3.2c2.8,1.1,5.4,3.1,5.1,8.1c-0.2,3.1,0,6.3,0.3,9.4c0.1,0.8,1.4,1.5,2.2,2.2
		c0.2-0.8,0.7-1.7,0.7-2.5c-0.1-1.2-0.5-2.4-0.7-3.6c-0.2-1-0.6-2.1-0.3-2.9c2.3-5.8,1.8-7.2-3.4-10.2c-0.5-0.3-0.9-1.9-0.6-2.1
		c0.6-0.6,2.3-1.2,2.4-1c1.3,1.9,2.8,3.9,3.6,6c0.8,2.5,1,5.2,1.4,7.9c0.1,0.6-0.2,1.3-0.3,2c-0.4,2.3-0.9,4.5-1.3,6.8
		c0.5,0.2,1,0.3,1.6,0.5c0.7-1.5,1.8-3,1.9-4.5c0.3-3.8,0.1-7.7,0.1-11.5c0-3.4-3-7.5-6.1-8.7c-0.8-0.3-1.4-1.1-2.1-1.7
		c0.7-0.7,1.4-1.8,2.2-1.9c0.6-0.1,1.5,1,2.1,1.7c1.1,1.4,2.1,2.9,3.1,4.3c1-4.3-0.5-7-3.7-7.2c-7.2-0.3-14.5-0.1-22.5-0.1
		c3.7,2,3.5,2.4,1,4.5c-3.4,2.9-6.9,5.8-5.9,11.3c0.6,3,0,6.3,0.2,9.4c0.1,1.2,0.9,2.4,1.4,3.5c0.5-0.1,1-0.3,1.5-0.4
		c-0.5-2.7-1.1-5.5-1.5-8.2c-0.1-0.5-0.1-1.1,0.1-1.6c1-3.9,1.4-8.1,4.6-11c0.7-0.6,1.6-1.1,2.4-1.3c0.3-0.1,1.3,1.1,1.1,1.4
		c-0.3,0.8-0.9,1.8-1.6,2.1c-4,1.6-4.9,3.8-3.1,7.8c0.3,0.8,0.5,1.7,0.3,2.6C65,126.6,64.4,129.6,63.9,132.6z M66.4,72.1
		c-2.6,0.1-4.8,2.3-4.9,4.8c0,2.2,2.8,4.7,5.1,4.7c2.4,0,4.9-2.5,4.9-4.9C71.7,74.5,68.8,72,66.4,72.1z M85.8,100.2
		c-5.7-1.8-11.3-3-16.8-0.8c0,0.3,0,0.5,0,0.8C74.6,100.2,80.2,100.2,85.8,100.2z"/>
	<path d="M72.2,21.9c-1.1-0.5-2.2-1.2-3.4-1.5c-5-1.3-5.4-1.7-5.4-6.8c0-1.6,0.1-3.3-0.1-4.9c-0.1-1.5-0.5-3-0.7-4.5
		C62.8,4.1,63,4.1,63.3,4c0.8,1.3,1.5,2.7,2.5,3.8c0.7,0.8,1.8,1.5,2.9,1.8c4.8,1.5,4.8,1.5,7.5,5.6c1.1-3.5,4.1-4.3,7-5.6
		c2.4-1.1,4.2-3.3,6.3-5c0,3.2,0.2,7-0.1,10.7c-0.2,2.2-1.3,4.1-4,4.6c-1.8,0.4-3.6,1.2-5.8,2c5.1,2.3,10.5,1.1,12.9-2.7
		c0.4-0.6-0.1-1.8,0.3-2.5c0.5-1,1.3-2.1,2.2-2.6c0.3-0.2,2,0.9,2.1,1.5c0.2,1-0.3,2.3-0.9,3.2c-0.5,0.7-2.1,0.8-2.6,1.5
		c-3,4.4-7.2,4.7-11.9,4.4c-5.5-0.3-11,0-16.6-0.1c-1.3,0-2.8-0.8-3.9-1.6c-1.9-1.2-3.7-2.6-5.4-4.2c-0.8-0.7-1.6-2-1.4-2.8
		c0.2-0.8,1.8-2,2.4-1.8c1,0.3,2.2,1.5,2.4,2.5c0.9,4.2,3.1,6.2,7.2,6.3c1.8,0,3.6,0,5.4,0C72,22.6,72.1,22.3,72.2,21.9z"/>
	<path d="M83.4,67.3c-2.3,2.2-5.1,3.9-5.8,7.4c-0.1,0.5-0.7,1-1.3,1.2c-0.2,0.1-0.8-0.5-1.1-0.9c-1.6-2.3-3.2-4.7-4.8-7.1
		c-0.3,0.1-0.5,0.2-0.8,0.3c-0.1,0.7-0.1,1.5-0.2,2.3c-1.8-0.3-3.6-0.5-5.3-0.7c-0.1-0.2-0.1-0.5-0.2-0.7c1.2-0.4,2.4-0.8,4.3-1.4
		c-2.1-0.9-3.7-1.6-5.4-2.3c3.9-2.5,22.6-2.6,26.7,0C87.4,66.1,85.3,66.7,83.4,67.3L83.4,67.3z"/>
	<path d="M92.3,70.5c0,2.9,0.2,5.8-0.1,8.6c-0.1,1.1-1.4,2-2.6,3.5c0.7-3.1,1.7-5.4,1.5-7.5c-0.2-2.5-2.2-3.8-5.4-3.8
		C88.2,71,90.1,70.8,92.3,70.5z"/>
	<path d="M83.3,67.4c1.6,0.1,3.2,0,4.8,0.3c0.6,0.1,1,0.9,1.5,1.4c-0.6,0.3-1.1,0.8-1.7,0.8c-1.8,0.2-3.6,0.3-5.4,0.4
		C82.9,69.4,83.1,68.3,83.3,67.4L83.3,67.4z"/>
	<path d="M88.6,76.4c-1.4,1.1-2.3,2-3.4,2.5c-0.3,0.2-1.1-0.6-1.7-1c0.7-1.1,1.3-2.3,2.2-3.3C85.8,74.6,87.3,75.6,88.6,76.4z"/>
	<path d="M86.3,34.9c-0.9,0.5-2,1.6-2.7,1.4c-1.1-0.3-1.8-1.6-2.7-2.4c0.9-0.8,1.8-2.2,2.9-2.3c0.7-0.1,1.7,1.3,2.6,2.1
		C86.4,34,86.4,34.5,86.3,34.9z"/>
	<path d="M75.9,104.6c2.3-0.2,3.5,1.3,3.5,3.2c-0.1,1.8-1.2,3.5-3.6,3.3c-2-0.1-3.3-1.2-3.3-3.2C72.6,106.1,73.4,104.4,75.9,104.6z"
		/>
	<path d="M69.7,77c-1,0.9-1.9,2.4-2.9,2.5c-2.1,0.2-2.2-1.7-2.5-3.4c-0.3-1.9,0.7-2.4,2.1-2.1c1.1,0.2,2.2,1.1,3.2,1.6
		C69.6,76,69.7,76.5,69.7,77z"/>
</g>
</svg>
